<?xml version="1.0" encoding="utf-8"?>
<!-- Generator: Adobe Illustrator 19.0.0, SVG Export Plug-In . SVG Version: 6.00 Build 0)  -->
<svg version="1.1" id="Layer_1" xmlns="http://www.w3.org/2000/svg" xmlns:xlink="http://www.w3.org/1999/xlink" x="0px" y="0px"
	 viewBox="0 0 1224 792" style="enable-background:new 0 0 1224 792;" xml:space="preserve">
<style type="text/css">
	.st0{fill:#144740;}
	.st1{display:none;fill:#144740;}
</style>
<g>
	<path class="st0" d="M1234.2,190.5c0,201.1,0,402.2,0,603.2c-414.5,0-828.9,0-1243.4,0c0-145.9,0-291.7,0-437.6
		c1-0.5,2.1-1.4,3.1-1.3c3.5,0.3,7,0.9,10.5,1.5c1.7,0.3,3.3,1.1,5,1.4c3,0.4,4.6,2,4.6,5.1c0,4.6,0,9.2,0,13.8c0,1.3,0,2.3,1.7,2.7
		c0.8,0.2,1.9,1.3,2,2.2c0.7,5.1-0.1,10.1-1.2,15.1c-0.8,3.7-1.7,7.3-2.5,10.6c2.4-0.3,4.5-0.6,6.6-0.8c2.5-0.2,5-0.4,7.4-0.6
		c1.1-0.1,2.1-0.7,3.2-0.8c2-0.1,4.1-0.2,6.1,0c2.9,0.2,5-1.3,6.2-3.5c1.1-1.9,1.9-4.3,1.8-6.4c-0.1-3.2,0.7-5.7,3.2-7.6
		c0.4-0.3,0.6-1,1-1.3c2.5-2.1,3.7-6.2,8.2-5.1c0.2-0.5,0.1-1,0.4-1.3c1.3-1.3,2.5-2.7,4-3.6c0.5-0.3,1.8,0.8,2.7,1.2
		c1,0.4,1.8,0.5,2.5-0.8c1.8-3.2,4.5-5.5,8.3-6c3.7-0.4,7.5-0.7,11.2-0.9c5.5-0.4,10.9-0.9,16.4-1c4,0,8,0.5,12,1
		c1,0.1,2.2,1,2.7,1.8c2.7,4.8,5.4,9.7,7.9,14.7c1.1,2.2,2.6,3.6,5.1,4c1.2,0.2,2.8,0,3.4,1.9c0.4,1.3,1.7,2.1,2.6,0
		c0.3-0.6,0.7-1,0.9-1.4c1.2,0.1,2.3,0.2,3.3,0.2c4,0,8.1-0.1,12.1,0.1c1.1,0,2.5,0.4,3.2,1.1c2.7,3,5.3,6.1,7.7,9.2
		c3.8,5,11,5.4,14.1,0.6c1.7-2.7,3.8-3.7,6.7-3.4c-0.6,1.5-1.1,3.1-1.7,4.6c2.9-1.5,3.8-4.1,4.2-6.9c0.4-2.8,1.2-3.6,4.1-3.7
		c4.6-0.1,9.2,0,13.8-0.4c1.4-0.1,2.9-1,4.1-1.8c1.4-1,2.6-2.3,4.1-3.7c2.1,3.2,4,6.1,6,9c0.4,0.5,1.3,1.4,1.5,1.2
		c3-1.5,5.4-0.5,8.3,0.8c2.5,1.1,4.5,1.6,5.2,4.5c1.3-1.8,2.6-3.5,4.2-5.6c0.4,1.5,0.6,2.2,0.9,3.3c1.6-0.2,3.2-0.4,4.7-0.7
		c0.9-0.2,1.9-0.4,2.8-0.6c0.1,1,0.2,2.1,0.2,3.1c0.1,1.9,0.1,3.8,0.2,5.6c0.3,0,0.6,0,0.9,0c0.3-0.9,0.6-1.7,0.9-2.7
		c2.8,0.2,4.9,0.8,3.8,4.4c0.7,0.2,1.2,0.4,1.6,0.4c0.4,1.9,0.8,3.7,1.3,6c0.9-1.3,1.4-1.9,2.2-3c0.2,1.6,0.3,2.6,0.4,3.9
		c1.3-2.2,2.5-4.1,3.6-6c0.2-0.3,0.1-0.8,0.1-1.1c0.1-0.8,0.1-1.8,0.5-2.5c0.8-1.4,1.8-2.6,2.8-3.9c-0.1-0.1-0.2-0.2-0.4-0.3
		c-0.6,0.4-1.2,0.8-1.8,1.2c1.1-2.6,2.8-4.8,4.2-7.2c1.4-2.3,2.4-4.8,3.8-7.5c0.7,5.3,1.4,9.9,2,14.6c-0.6-0.4-1.3-0.9-2.4-1.7
		c0.9,2.6,1.7,4.7,2.4,6.8c-0.2,0.1-0.4,0.2-0.6,0.3c-0.7-0.7-1.3-1.5-2-2.2c0.8,3.4,1.9,6.6,1,10.1c-0.2,0.7,1,1.7,1.6,2.7
		c0.9-1.9,1.6-3.5,2.4-5.1c-1-0.7-2-1.4-3-2.1c0-0.3,0-0.6,0-0.9c2-0.5,4.1-1,6.1-1.5c1.5-0.4,3.9-0.6,4.3-1.6
		c0.7-1.9,2.3-2.9,3.6-3.5c3.8-1.8,6.5-4.6,8.8-7.9c0.8-1.1,1.2-2.3,0.1-3.7c-0.5-0.7-0.4-2.1-0.1-3c0.7-1.9,0.8-3.7,0.1-6
		c-2.4,2.9-4.7,5.3-6.7,8c-1.9,2.6-4.7,4.3-8,3.6c2-3.1,3.9-5.9,6.2-9.4c-5,2.2-9.5,4.2-13.9,6.2c-0.2-0.3-0.3-0.6-0.5-0.9
		c2.3-2.2,4.4-4.6,6.9-6.6c2.4-1.9,5.6-3.1,7.1-6c-1.7,0-3.3,0-5,0c-0.1-0.2-0.3-0.5-0.4-0.7c1.6-1.1,3-2.5,4.8-3.4
		c2.4-1.2,5.2-1.7,7-4.2c2.2-2.9,3-6.9,1.1-10.6c-0.6,0.7-1,1.2-1.5,1.7c-1.4,1.4-2.4,3.4-4.9,3.1c-0.5-0.1-1-0.4-1.3-0.8
		c-0.1-0.2,0.2-0.8,0.5-1.1c0.9-1.4,1.9-2.7,2.9-4c-3.7,1.8-6,6-11,4.7c0-2,0.8-3.2,2.4-4.2c1.8-1.1,3.4-2.5,4.8-4.1
		c1.7-1.9,3.2-4.1,4.7-6.2c1.3-1.7,2.5-3.5,3.7-5.3c0.2-0.3,0-0.9,0-1.5c-3.5,1.2-4.6,6-9.5,5.5c0.8-1.5,1.3-2.8,2.1-3.8
		c2-2.8,4.2-5.5,6-8.4c0.6-0.9,0.4-2.2,0.5-3.4c0.2-4.2,0.4-8.5,0.7-12.8c1.3-0.4,2.1,0.2,2.1,1.9c0,1.7-0.2,3.7,0.5,5.1
		c2.7,5,3.6,11,8.9,14.5c-2.8,1.1-5,0.7-6.8-1.5c-0.9,3.1-0.3,5.4,1.9,7.3c1.3,1.1,2.4,2.9,3.9,3.5c2.8,1.2,5.9,1.7,8.9,2.5
		c0.5,0.1,1,0.5,1.4,0.8c0,0.3,0,0.6,0,0.9c-2.2,0.6-4.5,1.2-7,1.8c1.9,2.6,6.5,1.6,6.9,5.4c-5.4,1.6-9.5-2.2-14.3-3.4
		c0.3,1,0.6,1.9,1.2,2.6c2.3,2.9,4.6,5.7,6.9,8.5c0.4,0.5,0.4,1.3,0.5,2c-0.7-0.1-1.5,0-2-0.3c-1.9-1.1-3.8-2.4-5.7-3.6
		c-0.2,3.4,4,8.5,7.6,9.7c5.6,1.9,11,4.2,17.1,6.5c-6.5,1.5-12.3,2.4-18.1-1.1c0.6,0.8,1.4,1.3,1.9,2c0.3,0.5,0.3,1.8,0.1,1.9
		c-1.8,1-3.8,1.7-5.6,2.5c-0.9-1.4-1.6-2.6-2.7-4.4c0.4,4.4,0.7,8.1,1,11.8c5.9,1.8,11.8,3.6,18.2,5.6c-1,0.9-1.9,1.7-3.2,2.9
		c3.9-0.3,7.3-0.5,10.6-0.7c0.7,0,1.3,0.3,2,0.5c-0.4,0.6-0.8,1.6-1.3,1.8c-2.7,0.8-5.5,1.5-8.3,2.1c-1.7,0.3-3.7-0.1-5.2,0.6
		c-3.6,1.6-6.9,1.5-10.3-0.2c-1.6-0.8-2,0-2,1.5c0.2,3.2,0.3,6.5,0.5,9.8c3.6-0.5,7.2-1,10.6-1.6c0.4-0.1,0.8-0.9,1-1.4
		c0.5-1.2,0.9-2.5,1.3-3.8c1.7,0.6,2.6,1.2,2,2.9c-0.3,0.8-0.2,2,0.1,2.8c0.7,2,1.6,4,2.5,6c0.1,0.2,0,0.4,0,0.8
		c-0.7-0.1-1.3-0.3-1.9-0.4c-0.2,0.2-0.3,0.4-0.5,0.6c0.7,0.7,1.3,1.6,2.2,2c1.5,0.7,3.1,1.2,4.7,1.6c1,0.3,2.1,0.5,2.7-1.1
		c1.5-3.7,3.1-7.4,5.7-10.6c1-1.3,1-3.3,1.6-5c-1.5,0.2-2.4,0.4-3.7,0.6c1.9-2.2,3.7-3.9,4.8-5.9c1.5-2.7,1.7-6.1,5-7.5
		c0.1-0.1,0-0.6,0.1-0.9c0.5-1.8,0.9-3.6,1.4-5.4c1.6,4.2,3.1,8.1,4.6,12.1c0.1,0.4,0.3,0.9,0.1,1.1c-0.9,1.7-0.1,3,0.8,4.4
		c1,1.5,1.9,3,3.2,5.1c-1.4-0.2-2.1-0.4-2.9-0.5c0,1.6,1.7,3.2-0.1,4.6c-0.1,0.1,0.1,0.6,0.2,0.9c0.6,1.7,1.3,3.3,1.9,5
		c0.4,1.2,0.6,2.4,0.9,3.5c-1.3-0.1-2.5-0.2-3.8-0.3c-0.1,0-0.2,0.2-0.5,0.4c1.9,2.5,3.8,5,5.7,7.6c2-2.1,3.7-3.8,5.2-5.4
		c-1-0.2-2.5-0.6-3.9-0.9c0-0.3,0-0.6,0.1-0.9c2.2-0.2,4.4-0.3,6.5-0.5c0.2-3.1-0.7-4-4.8-4.6c1.8-1.2,3.3-2.2,4.7-3.3
		c1.4-1.1,2.8-2.3,4.7-3.8c-1.9-0.9-3.1-1.5-3.9-1.9c4.2-3.6,8.3-7.1,12.4-10.7c-7.4,2.9-7.6,3-8.2,2.4c1.6-1.5,3.3-2.9,5-4.5
		c-0.4-0.2-0.9-0.4-1.3-0.6c-0.1-0.2-0.3-0.4-0.4-0.6c0.8-0.4,1.7-0.7,2.5-1.1c-0.2-0.1-0.3-0.3-0.5-0.4c-1.2,0.2-2.4,0.4-3.6,0.6
		c-0.1-0.2-0.3-0.5-0.4-0.7c0.6-0.7,1.1-1.4,1.7-2c0.3-0.3,1-0.6,1-0.9c0.4-2.9,2.7-4.4,4.3-6.5c2.1-2.7,4.9-5,5.2-8.9
		c0.1-1.3,1.4-2.5,2.2-3.7c0.4,0.1,0.8,0.2,1.2,0.3c-2.7,6.9-1.1,13.1,3.5,18.8c-3.3,0.5-3.3-2.5-5-3.3c-0.1,0.4-0.2,0.7-0.1,0.8
		c1.7,2.9,3.5,5.7,5.1,8.7c0.4,0.7,0.2,1.7,0.3,2.5c-0.8-0.3-1.6-0.4-2.2-0.8c-0.9-0.7-1.5-1.6-2.3-2.4c-0.2,0.2-0.4,0.4-0.7,0.7
		c2.1,2.4,4.3,4.8,6.4,7.1c-5,1.7-6.1-2.5-8.7-4.6c0.3,1.4,0.6,2.8,1.3,3.9c1.5,2.2,3.3,4.1,4.8,6.3c0.7,1,1,2.3,1.6,3.9
		c-1.4-0.2-2.1-0.3-3-0.4c0.4,0.8,0.7,1.4,1.1,2.1c-2.6,1.4-4.2-0.9-6.3-1.2c1.6,2.3,3.3,4.4,5.1,6.3c1.1,1.1,1.8,2.5,0.6,3.6
		c-0.6,0.5-2.2,0-3.4-0.1c-0.2,0-0.4-0.3-0.9-0.6c0.9,5.7,5.9,6.4,9.4,8.9c-0.9,1.6-2.4,1.6-3.8,1.3c-1.3-0.3-2.5-1-4-1.6
		c0.5,0.6,0.7,1.2,1.2,1.6c1.4,1.4,2.9,2.8,4.2,4.2c0.3,0.4,0.2,1.1,0.3,1.7c-0.6,0-1.2,0.1-1.7,0.1c-0.3,0-0.6-0.3-1.1-0.6
		c0.2,0.9,0.3,1.6,0.4,2.3c-0.9,0.1-1.7,0.1-2.9,0.2c1.4,2.7,2.7,5.1,4.3,8.1c0.4-1.3,0.6-2,0.7-2.6c0.2,0,0.4,0.1,0.7,0.1
		c-0.3,2.7-1.1,5.5-0.8,8.1c0.3,2.4,2,4.7,3,7c1-1.1,1.6-1.9,2.4-2.6c0.8-0.7,1.1-1.1,0.5-2.4c-1.2-2.2-0.2-3.9,2.2-4.9
		c0.7-0.3,1.3-0.7,1.9-1.1c-2.9,1-3.3,0.8-4.6-2.1c2.5-2,4.9-4,7.2-6c0.5-0.5,0.8-1.3,1.1-1.9c-0.8-0.3-1.5-0.7-2.3-0.9
		c-1.2-0.3-2.4-0.4-3.7-0.6c0.3-0.5,0.4-0.7,0.5-0.8c0.3-0.2,0.6-0.3,0.8-0.5c1.7-2.1,6.3-2,5.1-6.5c0-0.1,0.2-0.2,0.3-0.4
		c2.3-3.3,4.6-6.5,7-10c0.2,1.9,0.2,4,0.8,5.9c0.6,1.9,1.7,3.7,2.6,5.5c-0.1,0.1-0.3,0.3-0.4,0.4c-0.9-0.3-1.8-0.7-3.1-1.2
		c0.8,2.3,0.7,4.7,2.8,6c1,0.6,2.5,1.2,1.6,2.7c-1,1.7-2.2,0.3-3.2-0.2c-0.1,0-0.3,0.1-0.5,0.2c-1.1,3.6,3.5,5.1,3.3,8.6
		c-0.9,0.1-1.7,0.1-2.6,0.2c1,1.1,1.9,2.1,2.8,3.1c2,2.3,2.1,3.8,0.7,4.8c0.9,1.7,1.7,3.4,2.6,5.1c-0.2,0.2-0.4,0.4-0.6,0.6
		c-1.2-0.3-2.4-0.7-3.5-1c0.4,4.1,0.3,8.1,4.5,10.4c0.2-1,0.4-1.8,0.6-2.7c0.8,0.4,1.4,0.7,1.7,0.9c1.5-2.9,3-5.7,4.4-8.5
		c-0.7,0.4-1.4,0.8-1.4,0.8c-1.2-1.1-1.9-1.8-2.8-2.6c0.2-0.3,0.5-0.7,0.8-1.1c1.2-1.5,4.8-2,2.2-5.2c0-0.1,0.1-0.3,0.2-0.4
		c0.6-1.4,1.1-3,1.8-4.3c1-1.7,2.3-3.3,3.5-4.9c-0.2-0.1-0.3-0.3-0.5-0.4c-0.5,0.3-1.1,0.5-1.5,0.9c-2.1,1.8-2.1,1.9-3.5-0.5
		c0.2-0.3,0.5-0.6,0.7-0.9c0.9-1.4,2.7-3.2,2.4-4.2c-0.9-2.5,0.5-4.2,1.2-6c2-5.1,4.6-9.9,4.7-15.6c0-0.6,0.5-1.2,0.8-1.7
		c0.3,0,0.5,0,0.8,0c0.3,1.3,0.5,2.6,0.8,3.8c0.1,0.6,0.2,1.2,0.4,1.8c0.3,0.9,1.1,1.8,1.1,2.7c-0.2,2.9,1.3,5.3,2.5,7.7
		c0.7,1.4,2.4,2.3,3.8,3.3c1.3,0.9,1.1,1.7,0.1,2.4c-0.5,0.4-1.3,0.5-2.1,0.7c0.3,0.5,0.5,1.1,0.8,1.5c1,1.4,2.5,2.8,2.9,4.3
		c0.5,2.5,0.9,4.8,3.6,7.1c-2.4,0.2-4.2,0.4-6.1,0.6c-0.2,0.2-0.3,0.4-0.5,0.6c0.5,0.3,1.1,0.5,1.5,0.8c1.8,1.3,2.1,3,2,5.2
		c-0.2,3.8,0.1,7.7,0.3,11.5c0,0.2,0.7,0.4,1.4,0.9c0.4-4.1,0.7-7.9,1-11.6c0.1-0.9-0.1-1.8,0-2.7c0.2-1.6,0.7-3.2,2.9-2.2
		c0.2,0.1,0.5-0.3,0.8-0.4c-2.8-1.7-2.8-2.7-0.4-5.1c1.5-1.6,2.9-3.3,4.3-5c-2.4-2-2.4-2.8-0.7-4.8c1.4-1.6,2.5-3.4,3.9-5.3
		c-3,0-4-1.1-2.6-2.3c4-3.8,4-9.2,6.3-13.6c0.2-0.3,0.1-0.8,0.1-1c-2,1.7-4,3.5-6,5.3c-0.2-0.1-0.3-0.3-0.5-0.4
		c4.2-7,9.5-13.4,11.5-21.7c0.9,3,1.2,6,2.2,8.8c0.9,2.6,2.6,5,4.2,7.9c-1.3-0.4-2-0.6-2.9-0.9c0.1,2.8,4,4.1,2.2,7.7
		c-1.2-0.9-2.3-1.7-3.6-2.6c0.1,0.6,0,1.2,0.2,1.6c1.2,2.1,2.5,4.2,3.7,6.4c0.6,1,1.2,2.1,1.5,3.2c0.1,0.6-0.3,1.6-0.8,2
		c-0.3,0.2-1.4-0.1-1.8-0.6c-0.9-0.8-1.5-1.8-2.2-2.7c-0.2,0.1-0.4,0.2-0.6,0.3c1.7,3.1,3.4,6.3,5.3,10c-1.4-0.6-2.3-0.9-3.2-1.3
		c-0.1,0.1-0.3,0.3-0.4,0.4c1.6,2.6,3.3,5.2,4.9,7.8c0.2,0.4,0.3,1.4,0,1.7c-1.5,1.5-0.8,2.6,0.4,3.8c1,1.1,2.5,2,1.6,4
		c-0.4,0.8-0.1,2-0.1,3c0.2,0,0.4,0,0.6,0c0.3-2.1,0.7-4.1,1.1-6.5c1.9,0.9,2.2,0.1,2.5-1.3c0.9-3.3,2-6.5,3.1-9.7
		c0.2,0,0.3,0,0.5,0c1,2.9,2.1,5.8,3.2,8.9c1.3-0.7,2.5-1.5,3.8-2c4.2-1.4,8.6-2.1,12.2-5.3c2.4-2.2,4.5-4,3.7-7.5
		c-0.1-0.4,0.1-1,0.1-1.4c0-3.2,0-6.3,0-10c-5.6,7-11.5,11.8-15.6,12.8c1.6-2.2,3.1-4.2,4.7-6.4c-1,0.3-1.6,0.5-2.2,0.8
		c-0.1-0.2-0.3-0.4-0.4-0.6c1.5-1.2,3-2.4,4.4-3.6c0.9-0.7,2-1.5,2.4-2.4c1.6-3.7,2.8-7.6,4.6-11.3c1.3-2.6,2.8-4.9,1.9-8
		c-2.2,3.1-5.5,4.8-7.1,3.9c0.5-0.6,1-1.2,1.6-1.8c-1.5,0.6-2.7,1.5-4.1,2.1c-2.1,0.9-3,0.3-3.2-1.6c5.8-0.1,13.3-12.2,13.5-16.3
		c-0.4,0.1-0.8,0.2-1.1,0.4c-1.2,0.7-2.3,1.7-3.7,2.2c-0.8,0.3-1.9-0.3-2.8-0.4c0.4-0.6,0.7-1.2,1.1-1.8c0.4-0.5,0.8-1.1,1.1-1.5
		c-1.7-0.2-3.1-0.4-4.4-0.6c-0.1-0.3-0.2-0.6-0.2-0.8c0.3-0.1,0.6-0.3,0.9-0.4c3-1.7,6.7-2.2,8-6.1c0-0.1,0.2-0.2,0.4-0.2
		c2.5-0.4,2.8-2.5,3.3-4.4c0.3-1.6,0.6-3.2,0.8-4.8c0.1,0,0.3,0,0.4,0c0.1,0.4,0.2,0.8,0.2,0.9c1-0.4,2-0.7,2.6-1
		c0.2,3.4,0.2,6.4,0.5,9.3c0.2,2.3,2.4,4.3,4.7,4.3c1.5,0,3.1,0,4.7,0c-2,3.3-5.1,1.9-7.8,2.5c0.7,1.1,1.2,2,1.7,2.8
		c-1.9,0.9-3.7,1.7-5.8,2.8c4.4,4,9,7.1,14.6,9.6c-5.2,0.7-5.3,1.4-9.8-0.6c1.3,1.3,2.7,2.6,4.1,3.9c-4,1.8-5.6-2.4-8.9-3.7
		c1.1,5.9,0,11.2,0.7,16.7c0.6,4.1,1.4,7.2,4.4,9.9c0.5,0.5,0.5,1.5,0.9,2.1c0.4,0.6,1,1.2,1.7,1.6c0.3,0.2,1.1-0.1,1.2-0.4
		c1.2-2.7,2.2-5.4,3.6-8.7c-1.3,0.6-1.9,0.9-2.5,1c-0.3,0.1-0.8-0.2-1-0.5c-0.1-0.2,0-0.8,0.2-1c2.4-3.7,4.9-7.4,7.4-11.1
		c0.3-0.5,1-1,1.5-1c0.4,0,1,0.6,1.2,1.1c0.3,0.7,0.3,1.6,0.4,2.4c0.5,3.9,1,7.8,3.4,10.9c1.6,2,0,1.7-0.9,2.1
		c0.4,1,0.8,2.1,1.4,3.4c-1-0.2-1.5-0.3-2.9-0.6c1.1,2.1,1.8,3.9,2.9,5.3c2.5,3.1,2.6,3,0.8,6.4c-0.1,0.1-0.1,0.3-0.1,0.5
		c-0.2,0.2-0.3,0.3-0.5,0.5c1.5,1.3,3.1,2.5,4.5,3.9c1.2,1.2,2.4,2.4,3.4,3.7c0.4,0.5,0.5,1.2,0.8,1.8c-0.2,0.1-0.4,0.1-0.6,0.2
		c-0.9-0.4-1.7-0.8-2.6-1.2c-0.2,0.3-0.3,0.5-0.5,0.8c0.9,0.8,1.9,1.5,2.8,2.3c-0.2,0.1-0.4,0.1-0.6,0.2c0.1,0.9,0,1.9,0.5,2.6
		c0.2,0.4,1.4,0.2,2.1,0.2c0.5,0,1-0.2,1.5-0.3c0,0.6,0.2,1.3-0.1,1.7c-0.4,0.7-1.1,1.3-1.3,1.5c0.3,1.9,0.9,3.4,0.7,4.8
		c-0.4,2.8,0.5,4,3.3,3.8c0.1,0.7,0.1,1.4,0.2,2.4c1.6-0.5,3.1-1,4.6-1.4c2.3-0.5,4.1-1.5,5.2-3.7c0.5-1.1,1.7-1.9,2.6-2.7
		c1-0.9,2.1-1.7,3.5-2.9c-1.3-0.4-1.8-0.5-2.3-0.7c0.8-1.2,1.4-2.2,2-3.1c-0.2-0.2-0.4-0.3-0.6-0.5c-1.1,0.9-2.1,1.9-3.2,2.8
		c-0.2-0.1-0.4-0.2-0.6-0.4c1.1-4.4,6.4-6.7,6.3-11.3c-1.3,1.4-2.6,2.9-4,4.4c-0.3-0.3-0.6-0.5-1-0.8c-0.3-3.5,3.6-5.6,4.1-9.5
		c-1.2,1.3-1.8,2.2-2.7,2.9c-0.4,0.3-1.1,0.2-1.6,0.3c0.2-0.4,0.3-0.9,0.6-1.3c1.1-1.7,2.5-3.3,3.2-5.2c2-5.5,3.6-11.1,5.4-16.7
		c0.2-0.6,0.8-1.1,1.3-1.6c0.2,0,0.5,0.1,0.7,0.1c-0.7,8.1-0.2,15.8,6.9,21.5c-0.2,0.1-0.5,0.3-0.7,0.4c-0.9-0.2-1.8-0.5-2.5-0.6
		c0.6,1.5,1.3,2.9,2,4.6c-1.2,0-1.7,0-2.2,0c-0.1,0.2-0.1,0.4-0.2,0.6c2,1.3,4,2.5,6.5,4.2c-2.6,0-4.7,0-6.7,0
		c-0.1,0.1-0.3,0.3-0.4,0.4c2.1,1.5,4.2,3.1,6.4,4.6c0.1,0.2,0.2,0.5,0.3,0.7c-2.9-0.9-3.3,1.5-3.1,2.5c0.2,1.4,1.8,2.2,3.6,1.8
		c2.3-0.5,4.6-0.7,6.9-1.2c3.2-0.8,6.3-2.3,9.5-2.5c7.9-0.5,15.8-0.4,23.8-0.5c0.5,0,1.3,0.3,1.4,0.6c2.2,4.8,7.8,8.8,3.9,15.1
		c-0.1,0.1,0,0.3,0,0.5c-1,4.6-2,9.2-3.1,13.8c-1,4.1-0.9,4.3,2.4,7c1.3,1.1,2.5,2.5,3.3,3.9c1.6,2.8,3.2,4.9,6.9,4.8
		c2.9-0.1,5.7,0.7,7.3,3.7c0.4,0.8,1.8,1,2.6,1.6c2.5,1.9,5.2,3.6,7.5,5.8c1.9,1.8,3.6,1.9,5.7,0.9c1.2-0.6,2.2-1.5,3.2-2.2
		c-0.7-1-1.2-1.8-1.9-2.7c3.9-0.5,7.3-1.2,9.9-4c1.5-1.7,3.3-3.8,5.3-4.5c2.8-1,4.4-2.8,6.1-4.8c0.7-0.8,1.4-1.5,2.1-2.3
		c1.1-1.2,2.1-1.4,3.4,0c1.1,1.3,2.6,2.2,4,3.2c2.4,1.7,4.7,0.8,6.6,0c-1-0.7-2.1-1.5-3.4-2.2c-1.7-0.9-3.5-1.7-5.3-2.5
		c-0.7-0.3-1.4-0.5-2.8-1c3.3-1.8,3.4-6.2,7.7-5.8c1.8-2.5,4.6-1.6,7.1-2.1c3.6-0.7,7.3-4.6,6.5-7.3c-0.7-2.5-2.3-4.8-3.2-6.5
		c2.2-2,4.4-4.1,6.9-6.5c-1,0.1-1.5,0.1-2,0.1c0.1-0.8,0.1-1.5,0.2-2.1c-3.6-1-4.6,2.2-6.7,3.7c-0.2-0.1-0.6-0.3-0.9-0.4
		c-0.5-0.3-1-0.6-1.4-0.8c0.4-0.4,0.6-0.9,1.1-1.1c1.3-0.8,2.6-1.5,3.8-2.2c1.3-0.8,2.6-1.7,3.9-2.6c-0.1-0.1-0.3-0.2-0.4-0.3
		c-1.8,0.3-3.6,0.5-5.5,0.8c-0.5-2,0.8-3.1,2.3-3.3c4.3-0.4,6.4-3.7,9.2-6.1c0.3-0.3,0.4-0.8,0.7-1.3c-1.3,0.5-2.4,0.9-4,1.5
		c0.5-2.6,0.8-4.6,1.3-6.5c0.1-0.5,1-0.8,1.5-1c1-0.3,2-0.5,3-0.8c1.9-0.4,2.1-1,0.8-2.6c-0.9,0.4-1.8,0.8-2.5,1.1
		c-2.5-2.1-1.7-4.2-0.4-6c0.6-0.8,1.8-1.3,2.7-1.8c2.5-1.2,3.3-2.9,2.5-5.6c-0.5-1.7-0.2-3.2,1.3-4.3c1-0.7,1.7-1.6,2.8-2.6
		c-4.6-1.7-4.9-3.3-2.1-6.1c0.4-0.4,0.9-0.8,1.2-1.2c1-1.3,2-2.7,3-4c-0.1-0.1-0.3-0.1-0.4-0.2c-1.2,0.5-2.4,0.9-3.4,1.3
		c-0.3-2.4,0-4.8-1-6.1c-1.7-2.3,0.2-2.8,1.1-3.9c0.2-0.3,0.6-0.4,1-0.7c-0.6-0.2-1-0.3-2-0.7c2.6-2,4.8-3.7,7.6-5.8
		c-1.3-0.1-1.9-0.1-2.4-0.2c1.7-1.5,1-5.3,4.7-4.4c0.2-1.2,0.3-2.2,0.4-3.2c-0.1-0.1-0.3-0.2-0.4-0.3c-0.8,0.9-1.5,1.7-2.5,2.9
		c-0.5-1.8-0.9-3.1-1.3-4.5c-0.4,0-1.2,0-2.7,0c3.6-3.1,7.9-5,6.8-10.3c-0.7,0-1.4-0.1-2.4-0.1c0.5-1.2,0.8-2.1,1.2-3
		c1.2-2.3,2.4-4.5,3.7-6.8c0.4-0.7,1-1.3,1.5-2c0.5,0.7,1.2,1.3,1.5,2.1c1.1,2.7,2.1,5.5,3,8.3c0.2,0.6,0.2,1.4,0.3,2.3
		c-1-0.3-1.6-0.4-2.2-0.6c-0.2,0.2-0.4,0.3-0.6,0.5c1.1,1.8,2.3,3.5,3.3,5.3c1.3,2.2,2.4,4.5,3.5,6.7c-1.2,0.7-2.4,1.5-3.7,2.3
		c0.7,2.3,1.5,4.6,2,6.2c3.2,0.5,3.5,2.9,4.7,4.5c-0.1,0.2-0.2,0.5-0.3,0.7c-1.5-0.4-3.1-0.8-4.7-1.2c0.2,0.2,0.3,0.4,0.5,0.6
		c2.9,2.1,3.3,3,2.1,6.1c-0.1,0.3-0.9,0.7-1.1,0.6c-1-0.6-2.1-0.6-2.2,0.6c-0.1,0.6,0.9,1.6,1.6,2.1c2.2,1.7,4.5,3.2,6.7,4.7
		c0,0.2,0,0.4,0.1,0.5c-2.6-0.2-5.2-0.4-8.4-0.6c2.6,2.3,4.7,4.3,7,6.4c-3,2.2-5.3-0.4-8.5-0.9c0.4,1.3,0.4,2.6,1,3.4
		c1.6,2.2,3,4.7,5.6,6.1c1,0.5,1.7,1.9,2.5,2.9c-0.8,0.3-1.7,0.7-2.5,1c-0.1,0-0.2,0.2-0.2,0.3c0.6,0.5,1.2,1,1.8,1.5
		c-0.8,0.6-1.4,0.9-2.2,1.5c1.7,1.5,4.6,2.5,2.6,5.5c0,0,0.3,0.3,0.4,0.5c0.1,0.7,0.1,1.4,0.1,2.8c1.9,1.1,4.5,2.5,7.5,4.3
		c0.8-1.2,1.7-2.5,2.5-4c0.5-0.9,0.7-2,1.1-3c1-2.1,2-4.3,3.2-6.3c0.4-0.8,1.2-1.4,2-2.3c-0.1,4.4-0.5,8.2-0.3,11.9
		c0.1,2.5-0.6,5.9,3.5,6.5c0.4,0.1,0.7,0.8,0.8,1c1.4-0.5,2.7-1.3,4-1.3c3.1,0.1,6-0.3,8.3-2.5c-2.9-2.7-6.3-1.1-9.7-0.9
		c0-2.5-1-4.2-3.3-5.2c-0.4-0.2-0.4-1.2-0.6-1.8c0.5,0,1.1,0,1.6,0.1c0.6,0.1,1.4,0.8,1.8,0.6c2.4-1.2,4.7-1,6.6,0
		c0.3-1.4,0.5-2.5,0.7-3.9c-1.1-0.3-2.8-0.6-4.3-1.3c-1.6-0.7-3-1.7-4.7-2.8c0.1-0.5,0.4-1.5,0.5-2.5c0.1-2.1,1.1-2.1,2.5-1.3
		c2.3,1.2,4.5,2.7,7.3,1.5c0.3-0.1,0.6-0.6,0.9-1c-2.1-0.7-4.7,1-5.8-2c0.8-0.4,1.5-0.7,2.9-1.4c-1.7-1.1-3-2-4.9-3.3
		c1.3-0.3,2.1-0.5,3-0.6c1.2-0.1,2.5,0.1,3.7-0.3c2-0.7,3.9-1.6,5.8-2.6c2.2-1.1,4-2.6,4-5.7c-1.5,0.7-2.8,1.3-4.1,2
		c-3,1.6-5.4,0.5-6.2-2.8c4,0.3,6.5-2.1,9.5-4.8c-1.1,0-1.7-0.2-2.2,0c-3.1,1.2-6,0.4-9-0.8c-1.6-0.6-2.3-2.1-1.7-3.5
		c0.2-0.5,0.1-1.3,0-1.9c-0.2-0.7-0.5-1.4-1-2.7c4.5,1.5,8.1,1.8,12.1,0.1c4.4-1.9,7.5-4.9,6.4-7.9c-2.6,2.2-9.4,3-12.4,0.8
		c1.3-0.5,2.4-1,3.2-1.3c-1.2-0.9-2.5-1.8-3.9-2.8c2.1-0.2,3.7,0.2,5.3,0.3c0.5,0,1.1-0.5,1.6-0.9c0.1-0.1-0.3-0.7-0.4-1
		c-2.1,1.1-1.6-1.4-2.6-1.7c1.6-0.1,3.2,0,4.7-0.1c1.5-0.1,3-0.4,4.5-0.6c0-0.2-0.1-0.3-0.1-0.5c-1.3-0.5-2.6-0.9-3.9-1.4
		c0-0.3-0.1-0.6-0.1-0.9c0.9-0.4,1.8-1.1,2.7-1.1c3.6,0,3.8-0.1,4.2-3.6c0.1-0.6,0.3-1.2,0.4-1.9c-2.4,0.3-4.6,0.4-6.9,0.8
		c-2.5,0.4-5,1.1-7.4-1.6c2.5-0.1,4.4-0.2,6.4-0.4c0.1-0.3,0.1-0.7,0.2-1c-1.2-0.5-2.7-0.8-3.6-1.7c-0.9-0.9-1.2-2.3-1.6-3.3
		c1.8,0.7,3.3,1.5,4.9,1.8c4,0.6,6.6-2.1,9.3-4.3c0.9-0.7,1.4-1.9,2.1-2.9c-2,0.2-3.6,0.9-5.2,1.4c-0.6,0.2-1.3-0.2-2-0.3
		c0.6-0.5,1.1-1.1,1.7-1.6c1.5-1.3,3.2-2.3,4.5-3.8c1.1-1.2,1.7-2.8,2.5-4.3c0.3,0.1,0.7,0.1,1,0.2c0.2,1.4,1,3.1,0.5,4.2
		c-2,4.5,0.8,8.3,1.8,12.3c0.5,1.9,2.2,3.5,3.2,5.3c0.4,0.7,0.2,1.7,0.2,2.6c-1-0.2-2-0.3-2.9-0.7c-0.8-0.4-1.5-1.2-2.2-1.8
		c0.5,6.2,6.1,5.9,10.5,8.3c-2.7,0.8-4.7,1.4-6.5,2c0,0.3,0.1,1.2,0.1,2.1c-1.1,0-2.3,0.3-3.3,0c-1.1-0.4-1.9-1.4-3.1-2.3
		c0.4,3.7,2.6,6,5.8,8.9c1.2,1.1,3.8,0.6,5.9,0.8c-0.4,3.2-3.6,2.2-5.2,3.5c3.3,1.6,3.3,1.6,3.3,3.8c-1.8,0.7-7.2,0.1-7.6-1
		c-0.9-2.4-3.2-1.9-4.9-2.7c1.9,3.7,4,7.1,7.7,9.1c3.7,1.9,7.6,3.3,11.9,5c-2.8,2.3-5.9,1.5-9.1,1.1c0,0.9-0.2,1.7,0,2.4
		c0.3,0.9,0.7,2.3,1.3,2.4c0.8,0.2,1.8-0.8,2.7-1.1c0.8-0.3,1.8-0.9,2.5-0.7c2,0.8,3.9,1.9,6.1,3c0.5,1.5,0.8,3.7,1.7,5.6
		c1.2,2.5,0.6,4.4-0.6,6.6c-1.7,2.9-0.9,7.4,1.6,9.8c2.2,2.1,6.6,2.5,9.5,1.1c1.3-0.6,2.7-0.8,4.1-1.3c0.7-0.3,1.7-0.8,1.8-1.4
		c0.2-1.9,0-3.8,0.2-5.7c0.1-1.3,0.4-2.6,1.1-3.7c0.8-1.2,1.9-2.2,3.2-2.9c2.8-1.7,3.4-4.1,2.1-6.8c-1.8-3.4-0.1-5.6,2.2-7.8
		c0.5-0.5,1.2-0.9,1.5-1.6c0.9-2.2,3.5-3.7,2.9-6.6c-0.2-1.2-0.2-2.8,0.4-3.8c1.4-2.1,3.1-4.1,5-5.9c0.4-0.4,2.4,0,2.5,0.4
		c1,3.4,2.3,6.9,2.2,10.3c0,3.1,0.6,5.7,1.8,8.3c0.9,2.1,0.3,4.1-1.9,4.7c-2.3,0.7-1.9,1.9-1.3,3.4c1.1,3.2,2,6.4,3.3,9.5
		c0.8,1.8,1.3,3.3,0.6,5.2c-0.1,0.3,0.5,1.2,1,1.4c0.6,0.2,1.6,0.2,2-0.1c0.9-1,1.7-2.2,2.2-3.4c1.7-3.9,5.3-5.9,8.3-8.4
		c0.6-0.5,1.9-0.1,2.8-0.3c1.3-0.3,2.8-0.5,3.8-1.3c3.9-3.3,12.2-4.4,16.8-1.9c2,1.1,4.1,1.3,5.5-0.6c1.5-1.9,2.9-4,3.6-6.2
		c1.2-4.1,4-6.2,7.8-7.8c4.3-1.8,8.5-3.8,12.4-6.3c2.8-1.7,5.2-4.2,7.6-6.5c1.3-1.2,1.6-2.6,0.7-4.6c-0.7-1.4-0.7-3.4-0.4-5.1
		c0.8-4.3,1.8-8.5,2.8-12.7c0.4-1.6,0.7-3.5,1.7-4.7c4-4.8,8.2-9.4,12.3-14c5-5.6,10.1-11.1,15.1-16.7c1.7-1.9,2.6-4.1,2.5-6.8
		c-0.2-4.4-0.1-8.9,0-13.4c0-2.8,1.1-3.6,3.8-3c1.9,0.5,3.7,1,5.6,1.2c2.8,0.4,5.7,0.3,8.4,0.8c2.2,0.4,3.1-0.2,3-2.4
		c-0.1-1.4,0-2.8,0-4.2c0.2,0,0.5,0,0.7,0c0.1,1.3,0.1,2.6,0.2,3.9c0.7-3.1,1.3-6.1,1.5-9.1c0.4-4.9,0.3-4.9,5.4-5
		c2,0,3.5,0.1,3.3,2.9c1.1-0.7,2-1.2,2.6-1.8c3.5-3.8,7-7.6,10.4-11.5c2.9-3.3,5.4-7.1,10.4-7.5c0.4,0,0.8-0.4,1.3-0.7
		c6.2-3.2,11.8-7,16.3-12.4c0.6-0.7,1.5-1.3,2.3-1.7c3.5-1.8,7-3.5,10.5-5.3c1.3-0.6,2.6-1.3,3.6-2.2c2.3-2.1,4.3-4.6,6.7-6.4
		c2.2-1.6,3.3-3.7,4.3-6c0.5-1.2,0.5-2.7,1-4c1.5-3.7,3.1-7.4,4.6-11.1c0.8-2,1.9-3.5,4.4-3.4c-0.8,3.5-3.7,6.9-0.2,11
		c0.3-3.4,0.7-6.3,0.9-9.2c0.1-1.4,0.4-1.9,1.9-2.2c3.1-0.5,6.2-1.3,8.9-1.9c0.4-1.7,0.6-2.8,0.9-3.9c0.2,0,0.4,0.1,0.6,0.1
		c0.3,0.9,0.5,1.7,0.7,2.3c2-0.5,3.9-1.6,5.5-1.2c2.7,0.6,3.5-1.8,5.4-2.5c0.5-0.2,1-1.3,0.8-1.8c-1-3.2,0.3-6,1-8.9
		c0.7-2.7,2.1-4.5,4.7-5.2c1.8-0.5,3.8-0.6,5.7-0.9c3-0.6,6.1-1.4,9.1-1.7c2.1-0.2,3.8-0.6,4.4-2.9c0.6-2.3,1.8-2.2,3.3-0.7
		c0.3,0.3,0.8,0.5,1.1,0.8c3.4-2,5.7-4.8,7.1-8c-1.5-0.5-2.7-0.9-4.4-1.5c5.2-2.4,8.7-5.6,12-9c-0.2-0.2-0.3-0.4-0.5-0.7
		c-1.8,0.9-3.5,1.8-5.3,2.7c-0.2-0.2-0.4-0.4-0.6-0.5c0.6-0.8,1.2-1.8,1.9-2.5c2.1-2.1,4.3-4.1,6.7-6.5c-2.5-0.5-2.6-1-1.6-2.8
		c1.6-2.8,3.3-5.6,4.6-8.6c1.4-3,2.4-6.3,3.7-9.4c0.6-1.4,1.6-2.6,2.4-4c0.2,0.1,0.5,0.1,0.7,0.2c0.1,1.1,0,2.1,0.2,3.2
		c0.8,4.3,1.4,8.8,2.7,12.9c0.8,2.5,1.7,4.9,1.2,7c-1.2,1-2.1,1.7-2.9,2.4c0.1,0.3,0.3,0.5,0.4,0.8c7.2-0.1,14.1,1.6,20.3,3.9
		c0.8-1.3,1.5-2.4,2.5-4.1c0.9,3.2,2.8,3.3,5,3.2c2.8-0.1,5.6-0.3,8.4,0.1c2.2,0.3,5.1,0.8,6.2,2.3c2.2,2.9,5.2,4.4,8.2,5.3
		c2.2,0.7,3.6,1.9,5.4,3.9c1.8-4,3.4-7.7,5.1-11.6C1233.2,189.8,1233.7,190.2,1234.2,190.5z M488,475.3c2,4,2.6,4.2,6.2,4.1
		c3.8-0.1,6.7-2.2,9.5-4.1c2.2-1.5,4.6-3.7,3.7-7.3c-0.4-1.4,0.1-2.9,0.1-4.4c0.1-2.4,0.3-4.8,0.5-7.1c-0.2-0.1-0.4-0.2-0.6-0.2
		c-3.2,3.3-6.2,7-11.9,6.2c0.7-0.8,1.1-1.3,1.5-1.9c-3.1,0.2-5.9,0.5-9.1,0.7c0.9,2.9,1.8,5.6,2.6,8.3c-0.2,0.2-0.4,0.4-0.5,0.6
		c-1.1-0.9-2.3-1.9-3.7-3c0.8,3.3,4.9,5,3.6,9C489.2,475.8,488.7,475.6,488,475.3z M292.7,424.8c-0.2,0.3-0.3,0.5-0.5,0.8
		c0.5-0.5,1-1,1.5-1.4c2.8-2.5,4.1-5.7,4-9.5c-0.1-2.1-1-2.2-2.4-1.4c-1.3,0.7-2.5,1.7-3.9,2.4c-1.2,0.6-2.6,0.9-3.9,1.1
		c-0.4,0.1-1.2-0.5-1.4-1c-0.1-0.3,0.4-1.1,0.8-1.4c1.1-0.9,2.3-1.6,3.5-2.4c-0.1-0.2-0.1-0.3-0.2-0.5c-3.3,1.1-6.5,2.1-9.9,3.2
		c0,0.1-0.1,0.2-0.1,0.4c0.6,3.7,1.2,7.4,1.9,11.1c0.1,0.4,0.5,0.8,0.9,1.1c2.4,1.8,3.1,1.8,6.1-0.4c-1.2-1.3-1.7-2.6,1.2-3.8
		C291,423.4,291.9,424.1,292.7,424.8z M324,446.6c0.8-2.9,0.7-5.2,3-6.7c1.2-0.8,2.8-2.5,1.1-4.2c-2.4-0.3-4.7-0.6-6.8-0.8
		c-0.1,1.1-0.1,2.4-0.3,3.7c-0.1,0.4-0.7,0.9-0.6,1.1C321.4,441.8,322.6,443.9,324,446.6z M351.7,447.9c0.3,0.1,0.6,0.3,0.8,0.4
		c-0.8-3.5,1.1-5.4,3.4-7.2c-2.5,0.6-4.6,0.8-5.7-1.8c-0.7,0.5-1.3,0.9-1.7,1.2C349.6,443,350.7,445.5,351.7,447.9z M504.1,485.5
		c-0.2-0.2-0.4-0.3-0.6-0.5c-2.2,1.6-4.3,3.2-6.6,4.8c0.6,0.6,1.2,1.3,1.8,2C500.5,489.6,502.3,487.5,504.1,485.5z M306.6,423.4
		c3.3,2.2,6.6,1.4,7.4-1.5C311.6,422.3,309.4,422.8,306.6,423.4z M178.2,411.9c0,0.1,0.1,0.3,0.1,0.4c1.9,0,3.8,0,5.6,0
		c-0.8-1-1.7-1.7-2-2.6c-0.4-1.1-0.2-2.3-0.3-3.5c-0.2,0-0.5,0-0.7,0c-0.3,1.7-0.6,3.3-0.9,5C179.4,411.4,178.8,411.6,178.2,411.9z
		 M517.4,458.9c0-0.2,0-0.5-0.1-0.7c-1.2-0.1-2.4-0.2-3.5-0.4c0,1.4,0,2.6,0,4.3C515.3,460.8,516.4,459.9,517.4,458.9z M26.6,414.5
		c-0.2,0-0.4,0-0.6,0c0,2.9,0,5.7,0,8.6c0.2,0,0.4,0,0.6,0C26.6,420.2,26.6,417.3,26.6,414.5z M504.5,490.5
		c-0.2-0.2-0.4-0.3-0.6-0.5c-1.6,0.8-3.1,1.7-4.7,2.5c0,0.2,0,0.5,0,0.7c0.8,0,1.7,0.3,2.3-0.1C502.6,492.5,503.5,491.4,504.5,490.5
		z M386.9,459.8c-1.4-0.8-2.3-1.3-3.1-1.8c-0.1,0.1-0.3,0.2-0.4,0.2c0.7,1.3,1.4,2.6,2.4,4.5C386.3,461.2,386.6,460.4,386.9,459.8z
		 M770.1,464.6c-0.2,0.2-0.3,0.5-0.5,0.7c0.9,0.9,1.8,1.7,3,2.9c0.4-1.4,0.6-2,0.9-2.8C772.3,465.1,771.2,464.8,770.1,464.6z
		 M807.8,426.6c-1.2-0.8-2.4-1.5-3.5-2.2c-0.2,0.8,0.1,1.6,0.6,2.1C805.7,427.3,806.7,428.1,807.8,426.6z M777.8,475.5
		c-0.2-1-0.4-1.7-0.5-2.4c-0.7,0.3-1.4,0.5-2.2,0.8c0,0.7,0,1.4,0,2.3C776,475.9,776.8,475.7,777.8,475.5z M772.1,469.7
		c-0.9-1-1.8-1.8-2.6-2.7c-0.1,0-0.3,0.1-0.4,0.1c0.4,1.2,0.7,2.5,1.1,3.9C771.1,470.4,771.6,470,772.1,469.7z"/>
	<path class="st1" d="M1234.2,190.5c-0.5-0.4-1-0.7-1.7-1.3c-1.7,3.8-3.3,7.5-5.1,11.6c-1.8-2-3.2-3.2-5.4-3.9c-3.1-1-6-2.4-8.2-5.3
		c-1.1-1.5-4-2-6.2-2.3c-2.7-0.4-5.6-0.2-8.4-0.1c-2.2,0.1-4.1-0.1-5-3.2c-1,1.7-1.7,2.7-2.5,4.1c-6.2-2.3-13.1-4.1-20.3-3.9
		c-0.1-0.3-0.3-0.5-0.4-0.8c0.9-0.7,1.7-1.4,2.9-2.4c0.5-2.1-0.4-4.5-1.2-7c-1.3-4.2-1.9-8.6-2.7-12.9c-0.2-1-0.1-2.1-0.2-3.2
		c-0.2-0.1-0.5-0.1-0.7-0.2c-0.8,1.3-1.8,2.6-2.4,4c-1.3,3.1-2.3,6.3-3.7,9.4c-1.4,2.9-3,5.8-4.6,8.6c-1.1,1.8-1,2.3,1.6,2.8
		c-2.4,2.3-4.6,4.4-6.7,6.5c-0.7,0.7-1.3,1.6-1.9,2.5c0.2,0.2,0.4,0.4,0.6,0.5c1.8-0.9,3.5-1.8,5.3-2.7c0.2,0.2,0.3,0.4,0.5,0.7
		c-3.3,3.4-6.7,6.6-12,9c1.7,0.6,2.9,1,4.4,1.5c-1.4,3.2-3.7,6.1-7.1,8c-0.3-0.2-0.8-0.4-1.1-0.8c-1.5-1.5-2.7-1.5-3.3,0.7
		c-0.6,2.3-2.3,2.7-4.4,2.9c-3.1,0.3-6.1,1.1-9.1,1.7c-1.9,0.3-3.8,0.5-5.7,0.9c-2.6,0.7-4,2.5-4.7,5.2c-0.7,3-2,5.8-1,8.9
		c0.1,0.5-0.4,1.6-0.8,1.8c-1.8,0.7-2.7,3.1-5.4,2.5c-1.6-0.4-3.5,0.7-5.5,1.2c-0.2-0.6-0.5-1.4-0.7-2.3c-0.2,0-0.4-0.1-0.6-0.1
		c-0.3,1.1-0.5,2.3-0.9,3.9c-2.7,0.6-5.8,1.4-8.9,1.9c-1.5,0.2-1.8,0.8-1.9,2.2c-0.2,2.9-0.6,5.9-0.9,9.2c-3.5-4.1-0.6-7.5,0.2-11
		c-2.5-0.1-3.6,1.3-4.4,3.4c-1.5,3.7-3.1,7.4-4.6,11.1c-0.5,1.3-0.4,2.7-1,4c-1,2.3-2.1,4.4-4.3,6c-2.5,1.8-4.4,4.3-6.7,6.4
		c-1,0.9-2.4,1.6-3.6,2.2c-3.5,1.8-7,3.5-10.5,5.3c-0.8,0.4-1.7,1-2.3,1.7c-4.5,5.4-10.2,9.2-16.3,12.4c-0.4,0.2-0.8,0.6-1.3,0.7
		c-5,0.4-7.5,4.2-10.4,7.5c-3.4,3.9-6.9,7.7-10.4,11.5c-0.6,0.7-1.5,1.1-2.6,1.8c0.2-2.8-1.3-3-3.3-2.9c-5.1,0.1-5,0-5.4,5
		c-0.2,3-0.9,6-1.5,9.1c-0.1-1.3-0.1-2.6-0.2-3.9c-0.2,0-0.5,0-0.7,0c0,1.4-0.1,2.8,0,4.2c0.1,2.2-0.8,2.8-3,2.4
		c-2.8-0.5-5.6-0.4-8.4-0.8c-1.9-0.2-3.8-0.8-5.6-1.2c-2.7-0.6-3.8,0.2-3.8,3c0,4.5-0.2,8.9,0,13.4c0.1,2.7-0.7,4.9-2.5,6.8
		c-5,5.6-10.1,11.1-15.1,16.7c-4.2,4.6-8.4,9.2-12.3,14c-1,1.2-1.3,3.1-1.7,4.7c-1,4.2-2.1,8.4-2.8,12.7c-0.3,1.6-0.3,3.6,0.4,5.1
		c0.9,1.9,0.6,3.3-0.7,4.6c-2.5,2.3-4.8,4.8-7.6,6.5c-3.9,2.4-8.1,4.5-12.4,6.3c-3.8,1.6-6.5,3.7-7.8,7.8c-0.7,2.2-2.1,4.4-3.6,6.2
		c-1.4,1.8-3.5,1.7-5.5,0.6c-4.5-2.5-12.8-1.4-16.8,1.9c-0.9,0.8-2.5,1-3.8,1.3c-0.9,0.2-2.2-0.2-2.8,0.3c-3.1,2.5-6.6,4.5-8.3,8.4
		c-0.5,1.2-1.3,2.4-2.2,3.4c-0.3,0.4-1.4,0.4-2,0.1c-0.5-0.2-1.1-1.1-1-1.4c0.7-1.9,0.2-3.5-0.6-5.2c-1.3-3.1-2.2-6.3-3.3-9.5
		c-0.6-1.6-1-2.8,1.3-3.4c2.2-0.6,2.8-2.6,1.9-4.7c-1.1-2.7-1.8-5.3-1.8-8.3c0-3.4-1.3-6.9-2.2-10.3c-0.1-0.4-2.1-0.7-2.5-0.4
		c-1.8,1.8-3.6,3.7-5,5.9c-0.6,1-0.6,2.6-0.4,3.8c0.6,3-2,4.4-2.9,6.6c-0.3,0.6-1,1.1-1.5,1.6c-2.3,2.2-3.9,4.4-2.2,7.8
		c1.4,2.7,0.7,5.1-2.1,6.8c-1.2,0.7-2.4,1.7-3.2,2.9c-0.7,1-1,2.4-1.1,3.7c-0.2,1.9,0.1,3.8-0.2,5.7c-0.1,0.5-1.1,1.1-1.8,1.4
		c-1.3,0.5-2.8,0.6-4.1,1.3c-2.9,1.4-7.3,1-9.5-1.1c-2.5-2.4-3.3-6.9-1.6-9.8c1.3-2.2,1.8-4.1,0.6-6.6c-0.9-1.9-1.3-4.1-1.7-5.6
		c-2.2-1.1-4.1-2.2-6.1-3c-0.6-0.2-1.7,0.3-2.5,0.7c-0.9,0.4-1.9,1.3-2.7,1.1c-0.6-0.1-1-1.5-1.3-2.4c-0.2-0.7,0-1.6,0-2.4
		c3.2,0.4,6.3,1.2,9.1-1.1c-4.3-1.8-8.2-3.1-11.9-5c-3.7-1.9-5.8-5.4-7.7-9.1c1.7,0.8,4,0.3,4.9,2.7c0.4,1.1,5.8,1.6,7.6,1
		c0-2.3,0-2.3-3.3-3.8c1.6-1.3,4.8-0.3,5.2-3.5c-2.1-0.2-4.7,0.3-5.9-0.8c-3.2-2.9-5.4-5.2-5.8-8.9c1.2,0.9,2.1,1.9,3.1,2.3
		c1,0.3,2.2,0,3.3,0c-0.1-0.9-0.1-1.7-0.1-2.1c1.8-0.6,3.8-1.2,6.5-2c-4.5-2.4-10-2.1-10.5-8.3c0.7,0.6,1.4,1.4,2.2,1.8
		c0.9,0.4,1.9,0.5,2.9,0.7c-0.1-0.9,0.2-1.9-0.2-2.6c-1-1.8-2.7-3.4-3.2-5.3c-1-4-3.7-7.7-1.8-12.3c0.5-1.1-0.3-2.8-0.5-4.2
		c-0.3-0.1-0.7-0.1-1-0.2c-0.8,1.4-1.4,3.1-2.5,4.3c-1.3,1.4-3,2.5-4.5,3.8c-0.6,0.5-1.1,1-1.7,1.6c0.7,0.1,1.4,0.5,2,0.3
		c1.6-0.5,3.2-1.2,5.2-1.4c-0.7,1-1.2,2.2-2.1,2.9c-2.8,2.1-5.4,4.9-9.3,4.3c-1.6-0.3-3.1-1.1-4.9-1.8c0.4,0.9,0.8,2.4,1.6,3.3
		c0.9,0.9,2.4,1.2,3.6,1.7c-0.1,0.3-0.1,0.7-0.2,1c-2,0.1-3.9,0.2-6.4,0.4c2.4,2.7,4.9,2.1,7.4,1.6c2.2-0.4,4.5-0.6,6.9-0.8
		c-0.2,0.7-0.3,1.3-0.4,1.9c-0.4,3.5-0.5,3.6-4.2,3.6c-0.9,0-1.8,0.7-2.7,1.1c0,0.3,0.1,0.6,0.1,0.9c1.3,0.5,2.6,0.9,3.9,1.4
		c0,0.2,0.1,0.3,0.1,0.5c-1.5,0.2-3,0.5-4.5,0.6c-1.5,0.1-3.1,0-4.7,0.1c1,0.4,0.5,2.8,2.6,1.7c0.2,0.4,0.5,1,0.4,1
		c-0.5,0.4-1.1,0.9-1.6,0.9c-1.7-0.1-3.3-0.5-5.3-0.3c1.3,1,2.7,2,3.9,2.8c-0.8,0.3-1.9,0.8-3.2,1.3c3,2.2,9.8,1.4,12.4-0.8
		c1.1,3-2,6-6.4,7.9c-4,1.7-7.6,1.4-12.1-0.1c0.5,1.3,0.9,2,1,2.7c0.1,0.6,0.2,1.3,0,1.9c-0.6,1.5,0.1,2.9,1.7,3.5
		c2.9,1.2,5.8,2,9,0.8c0.5-0.2,1.1,0,2.2,0c-3,2.7-5.5,5.1-9.5,4.8c0.7,3.4,3.2,4.4,6.2,2.8c1.3-0.7,2.7-1.3,4.1-2
		c0,3.1-1.8,4.6-4,5.7c-1.9,1-3.8,1.9-5.8,2.6c-1.1,0.4-2.4,0.2-3.7,0.3c-0.9,0.1-1.7,0.3-3,0.6c1.9,1.3,3.2,2.1,4.9,3.3
		c-1.4,0.7-2.1,1-2.9,1.4c1.1,3,3.7,1.3,5.8,2c-0.4,0.4-0.6,0.9-0.9,1c-2.7,1.2-5-0.3-7.3-1.5c-1.5-0.8-2.4-0.7-2.5,1.3
		c0,1-0.4,2-0.5,2.5c1.7,1,3.2,2.1,4.7,2.8c1.5,0.7,3.1,1,4.3,1.3c-0.3,1.5-0.5,2.6-0.7,3.9c-1.9-1.1-4.3-1.3-6.6,0
		c-0.4,0.2-1.2-0.4-1.8-0.6c-0.5-0.1-1.1-0.1-1.6-0.1c0.2,0.6,0.2,1.7,0.6,1.8c2.3,1,3.3,2.7,3.3,5.2c3.4-0.2,6.8-1.8,9.7,0.9
		c-2.4,2.2-5.2,2.6-8.3,2.5c-1.3,0-2.6,0.8-4,1.3c-0.1-0.2-0.4-0.9-0.8-1c-4.1-0.6-3.4-4-3.5-6.5c-0.2-3.7,0.1-7.5,0.3-11.9
		c-0.8,0.9-1.5,1.5-2,2.3c-1.1,2.1-2.2,4.2-3.2,6.3c-0.5,1-0.6,2.1-1.1,3c-0.8,1.4-1.7,2.8-2.5,4c-3-1.7-5.6-3.2-7.5-4.3
		c-0.1-1.4-0.1-2.1-0.1-2.8c0-0.2-0.4-0.4-0.4-0.5c2-3-0.9-3.9-2.6-5.5c0.8-0.6,1.4-1,2.2-1.5c-0.7-0.6-1.3-1-1.8-1.5
		c0.1-0.1,0.1-0.3,0.2-0.3c0.8-0.3,1.7-0.7,2.5-1c-0.8-1-1.4-2.4-2.5-2.9c-2.7-1.4-4-3.9-5.6-6.1c-0.6-0.8-0.7-2.1-1-3.4
		c3.2,0.5,5.5,3.1,8.5,0.9c-2.3-2.1-4.4-4.1-7-6.4c3.2,0.2,5.8,0.4,8.4,0.6c0-0.2,0-0.4-0.1-0.5c-2.2-1.6-4.5-3.1-6.7-4.7
		c-0.7-0.5-1.7-1.5-1.6-2.1c0.2-1.2,1.2-1.2,2.2-0.6c0.2,0.1,0.9-0.3,1.1-0.6c1.2-3.1,0.8-4-2.1-6.1c-0.2-0.1-0.3-0.4-0.5-0.6
		c1.6,0.4,3.1,0.8,4.7,1.2c0.1-0.2,0.2-0.5,0.3-0.7c-1.2-1.6-1.6-4-4.7-4.5c-0.5-1.6-1.2-3.9-2-6.2c1.3-0.8,2.5-1.5,3.7-2.3
		c-1.2-2.3-2.3-4.5-3.5-6.7c-1-1.8-2.2-3.5-3.3-5.3c0.2-0.2,0.4-0.3,0.6-0.5c0.6,0.2,1.3,0.4,2.2,0.6c-0.1-0.9-0.1-1.7-0.3-2.3
		c-1-2.8-1.9-5.5-3-8.3c-0.3-0.8-1-1.4-1.5-2.1c-0.5,0.7-1.1,1.3-1.5,2c-1.3,2.2-2.5,4.5-3.7,6.8c-0.5,0.9-0.8,1.9-1.2,3
		c1,0,1.7,0.1,2.4,0.1c1.2,5.2-3.2,7.2-6.8,10.3c1.5,0,2.2,0,2.7,0c0.4,1.4,0.8,2.7,1.3,4.5c1-1.2,1.8-2,2.5-2.9
		c0.1,0.1,0.3,0.2,0.4,0.3c-0.1,1-0.3,2-0.4,3.2c-3.6-1-3,2.8-4.7,4.4c0.6,0,1.1,0.1,2.4,0.2c-2.8,2.1-5,3.8-7.6,5.8
		c1,0.3,1.5,0.5,2,0.7c-0.4,0.3-0.8,0.4-1,0.7c-0.9,1.1-2.8,1.7-1.1,3.9c1,1.3,0.7,3.7,1,6.1c1-0.4,2.2-0.8,3.4-1.3
		c0.1,0.1,0.3,0.1,0.4,0.2c-1,1.3-2,2.7-3,4c-0.3,0.4-0.8,0.8-1.2,1.2c-2.8,2.8-2.5,4.5,2.1,6.1c-1,1-1.8,1.9-2.8,2.6
		c-1.5,1.1-1.8,2.6-1.3,4.3c0.7,2.7-0.1,4.4-2.5,5.6c-1,0.5-2.1,1-2.7,1.8c-1.3,1.8-2.1,3.9,0.4,6c0.7-0.3,1.6-0.7,2.5-1.1
		c1.3,1.6,1.1,2.2-0.8,2.6c-1,0.2-2.1,0.4-3,0.8c-0.6,0.2-1.4,0.6-1.5,1c-0.5,1.9-0.8,4-1.3,6.5c1.5-0.6,2.6-1,4-1.5
		c-0.2,0.4-0.3,1-0.7,1.3c-2.8,2.5-4.9,5.8-9.2,6.1c-1.5,0.1-2.8,1.2-2.3,3.3c1.9-0.3,3.7-0.5,5.5-0.8c0.1,0.1,0.3,0.2,0.4,0.3
		c-1.3,0.9-2.5,1.8-3.9,2.6c-1.3,0.8-2.6,1.5-3.8,2.2c-0.4,0.3-0.7,0.7-1.1,1.1c0.5,0.3,1,0.6,1.4,0.8c0.3,0.2,0.7,0.3,0.9,0.4
		c2.1-1.5,3.1-4.7,6.7-3.7c-0.1,0.6-0.1,1.2-0.2,2.1c0.5,0,1-0.1,2-0.1c-2.6,2.4-4.8,4.4-6.9,6.5c0.9,1.8,2.5,4,3.2,6.5
		c0.8,2.7-2.9,6.6-6.5,7.3c-2.4,0.5-5.2-0.4-7.1,2.1c-4.2-0.5-4.4,4-7.7,5.8c1.4,0.5,2.2,0.7,2.8,1c1.8,0.8,3.6,1.6,5.3,2.5
		c1.2,0.7,2.3,1.5,3.4,2.2c-1.9,0.8-4.3,1.7-6.6,0c-1.4-1-2.8-2-4-3.2c-1.3-1.4-2.3-1.2-3.4,0c-0.7,0.8-1.5,1.5-2.1,2.3
		c-1.7,2-3.4,3.9-6.1,4.8c-2,0.7-3.8,2.7-5.3,4.5c-2.6,2.9-6,3.5-9.9,4c0.6,0.9,1.2,1.7,1.9,2.7c-1,0.7-2,1.6-3.2,2.2
		c-2,1.1-3.8,0.9-5.7-0.9c-2.3-2.2-5-3.9-7.5-5.8c-0.8-0.6-2.2-0.9-2.6-1.6c-1.6-3-4.4-3.9-7.3-3.7c-3.8,0.1-5.4-1.9-6.9-4.8
		c-0.8-1.5-2-2.9-3.3-3.9c-3.3-2.7-3.4-2.9-2.4-7c1.1-4.6,2.1-9.2,3.1-13.8c0-0.2,0-0.4,0-0.5c3.8-6.4-1.7-10.3-3.9-15.1
		c-0.2-0.4-0.9-0.6-1.4-0.6c-7.9,0.1-15.9,0-23.8,0.5c-3.2,0.2-6.3,1.8-9.5,2.5c-2.3,0.5-4.6,0.7-6.9,1.2c-1.8,0.4-3.4-0.3-3.6-1.8
		c-0.2-1,0.2-3.4,3.1-2.5c-0.1-0.2-0.2-0.5-0.3-0.7c-2.1-1.5-4.2-3.1-6.4-4.6c0.1-0.1,0.3-0.3,0.4-0.4c2,0,4.1,0,6.7,0
		c-2.6-1.6-4.6-2.9-6.5-4.2c0.1-0.2,0.1-0.4,0.2-0.6c0.5,0,1.1,0,2.2,0c-0.7-1.7-1.4-3.1-2-4.6c0.7,0.2,1.6,0.4,2.5,0.6
		c0.2-0.1,0.5-0.3,0.7-0.4c-7.1-5.7-7.6-13.4-6.9-21.5c-0.2,0-0.5-0.1-0.7-0.1c-0.4,0.5-1.1,1-1.3,1.6c-1.8,5.6-3.5,11.2-5.4,16.7
		c-0.7,1.9-2.1,3.5-3.2,5.2c-0.3,0.4-0.4,0.9-0.6,1.3c0.6-0.1,1.3,0,1.6-0.3c0.8-0.7,1.5-1.6,2.7-2.9c-0.5,3.9-4.3,6-4.1,9.5
		c0.3,0.3,0.6,0.5,1,0.8c1.4-1.5,2.7-3,4-4.4c0,4.7-5.3,7-6.3,11.3c0.2,0.1,0.4,0.2,0.6,0.4c1.1-0.9,2.1-1.9,3.2-2.8
		c0.2,0.2,0.4,0.3,0.6,0.5c-0.6,1-1.2,2-2,3.1c0.6,0.2,1,0.3,2.3,0.7c-1.4,1.2-2.5,2-3.5,2.9c-0.9,0.8-2.1,1.6-2.6,2.7
		c-1.1,2.2-2.8,3.3-5.2,3.7c-1.5,0.3-3,0.9-4.6,1.4c-0.1-1-0.1-1.7-0.2-2.4c-2.8,0.2-3.7-1-3.3-3.8c0.2-1.4-0.4-3-0.7-4.8
		c0.2-0.2,0.9-0.7,1.3-1.5c0.3-0.4,0-1.1,0.1-1.7c-0.5,0.1-1,0.3-1.5,0.3c-0.7,0-1.9,0.2-2.1-0.2c-0.4-0.7-0.3-1.7-0.5-2.6
		c0.2-0.1,0.4-0.1,0.6-0.2c-0.9-0.8-1.9-1.5-2.8-2.3c0.2-0.3,0.3-0.5,0.5-0.8c0.9,0.4,1.7,0.8,2.6,1.2c0.2-0.1,0.4-0.1,0.6-0.2
		c-0.2-0.6-0.4-1.3-0.8-1.8c-1.1-1.3-2.2-2.6-3.4-3.7c-1.4-1.4-3-2.6-4.5-3.9c0.2-0.2,0.3-0.3,0.5-0.5c0-0.2,0-0.3,0.1-0.5
		c1.9-3.5,1.8-3.4-0.8-6.4c-1.1-1.4-1.7-3.2-2.9-5.3c1.4,0.3,1.9,0.4,2.9,0.6c-0.5-1.4-1-2.4-1.4-3.4c0.8-0.3,2.4,0,0.9-2.1
		c-2.4-3.1-2.9-7.1-3.4-10.9c-0.1-0.8-0.1-1.6-0.4-2.4c-0.2-0.5-0.8-1.1-1.2-1.1c-0.5,0-1.2,0.5-1.5,1c-2.5,3.7-5,7.4-7.4,11.1
		c-0.2,0.3-0.3,0.8-0.2,1c0.2,0.3,0.7,0.6,1,0.5c0.6-0.1,1.1-0.4,2.5-1c-1.4,3.3-2.4,6.1-3.6,8.7c-0.1,0.3-1,0.5-1.2,0.4
		c-0.6-0.4-1.2-1-1.7-1.6c-0.4-0.6-0.4-1.6-0.9-2.1c-3-2.7-3.9-5.9-4.4-9.9c-0.7-5.5,0.4-10.8-0.7-16.7c3.3,1.3,5,5.5,8.9,3.7
		c-1.4-1.3-2.7-2.6-4.1-3.9c4.5,2,4.6,1.3,9.8,0.6c-5.6-2.5-10.2-5.6-14.6-9.6c2.2-1,3.9-1.8,5.8-2.8c-0.5-0.8-1-1.7-1.7-2.8
		c2.7-0.6,5.9,0.8,7.8-2.5c-1.7,0-3.2,0-4.7,0c-2.3,0-4.6-2-4.7-4.3c-0.2-3-0.3-5.9-0.5-9.3c-0.6,0.2-1.6,0.6-2.6,1
		c0-0.1-0.1-0.5-0.2-0.9c-0.1,0-0.3,0-0.4,0c-0.3,1.6-0.5,3.2-0.8,4.8c-0.4,1.9-0.7,4-3.3,4.4c-0.1,0-0.3,0.1-0.4,0.2
		c-1.3,3.9-5,4.5-8,6.1c-0.3,0.2-0.6,0.3-0.9,0.4c0.1,0.3,0.2,0.6,0.2,0.8c1.4,0.2,2.7,0.4,4.4,0.6c-0.3,0.5-0.8,1-1.1,1.5
		c-0.4,0.6-0.7,1.2-1.1,1.8c1,0.2,2,0.7,2.8,0.4c1.3-0.5,2.4-1.5,3.7-2.2c0.3-0.2,0.7-0.3,1.1-0.4c-0.2,4.1-7.7,16.2-13.5,16.3
		c0.1,1.9,1.1,2.5,3.2,1.6c1.4-0.6,2.6-1.5,4.1-2.1c-0.5,0.6-1,1.2-1.6,1.8c1.7,1,4.9-0.8,7.1-3.9c0.9,3.1-0.6,5.5-1.9,8
		c-1.8,3.6-3,7.6-4.6,11.3c-0.4,1-1.6,1.7-2.4,2.4c-1.4,1.2-2.9,2.4-4.4,3.6c0.1,0.2,0.3,0.4,0.4,0.6c0.6-0.2,1.2-0.4,2.2-0.8
		c-1.6,2.2-3.1,4.2-4.7,6.4c4.1-1,10-5.8,15.6-12.8c0,3.7,0,6.9,0,10c0,0.5-0.2,1-0.1,1.4c0.8,3.5-1.3,5.3-3.7,7.5
		c-3.6,3.2-8,3.9-12.2,5.3c-1.3,0.4-2.4,1.2-3.8,2c-1.1-3.1-2.2-6-3.2-8.9c-0.2,0-0.3,0-0.5,0c-1,3.2-2.2,6.4-3.1,9.7
		c-0.4,1.4-0.6,2.2-2.5,1.3c-0.4,2.3-0.7,4.4-1.1,6.5c-0.2,0-0.4,0-0.6,0c0-1-0.3-2.2,0.1-3c1-2-0.6-2.9-1.6-4
		c-1.2-1.3-1.9-2.3-0.4-3.8c0.3-0.3,0.3-1.2,0-1.7c-1.6-2.7-3.2-5.2-4.9-7.8c0.1-0.1,0.3-0.3,0.4-0.4c0.9,0.4,1.8,0.7,3.2,1.3
		c-2-3.7-3.7-6.8-5.3-10c0.2-0.1,0.4-0.2,0.6-0.3c0.7,0.9,1.4,1.9,2.2,2.7c0.4,0.4,1.6,0.8,1.8,0.6c0.5-0.4,0.9-1.4,0.8-2
		c-0.3-1.1-0.9-2.2-1.5-3.2c-1.2-2.1-2.5-4.2-3.7-6.4c-0.2-0.4-0.1-0.9-0.2-1.6c1.3,0.9,2.4,1.7,3.6,2.6c1.8-3.6-2.1-4.9-2.2-7.7
		c0.9,0.3,1.6,0.5,2.9,0.9c-1.6-2.9-3.3-5.2-4.2-7.9c-1-2.8-1.3-5.8-2.2-8.8c-2,8.3-7.3,14.7-11.5,21.7c0.2,0.1,0.3,0.3,0.5,0.4
		c2-1.8,4-3.6,6-5.3c0,0.2,0.1,0.6-0.1,1c-2.3,4.4-2.4,9.9-6.3,13.6c-1.3,1.3-0.4,2.3,2.6,2.3c-1.4,1.9-2.6,3.7-3.9,5.3
		c-1.7,2-1.7,2.8,0.7,4.8c-1.4,1.7-2.8,3.4-4.3,5c-2.4,2.4-2.4,3.4,0.4,5.1c-0.3,0.2-0.7,0.5-0.8,0.4c-2.3-1-2.7,0.5-2.9,2.2
		c-0.1,0.9,0,1.8,0,2.7c-0.3,3.7-0.6,7.5-1,11.6c-0.8-0.5-1.4-0.7-1.4-0.9c-0.2-3.8-0.5-7.7-0.3-11.5c0.1-2.2-0.2-3.9-2-5.2
		c-0.5-0.3-1-0.5-1.5-0.8c0.2-0.2,0.3-0.4,0.5-0.6c1.8-0.2,3.6-0.4,6.1-0.6c-2.7-2.3-3-4.6-3.6-7.1c-0.3-1.6-1.9-2.9-2.9-4.3
		c-0.3-0.5-0.5-1-0.8-1.5c0.8-0.3,1.6-0.3,2.1-0.7c1-0.8,1.2-1.6-0.1-2.4c-1.4-0.9-3.1-1.9-3.8-3.3c-1.2-2.3-2.7-4.7-2.5-7.7
		c0.1-0.9-0.7-1.8-1.1-2.7c-0.2-0.6-0.3-1.2-0.4-1.8c-0.3-1.3-0.5-2.6-0.8-3.8c-0.3,0-0.5,0-0.8,0c-0.3,0.6-0.8,1.1-0.8,1.7
		c-0.1,5.7-2.8,10.5-4.7,15.6c-0.7,1.8-2.1,3.5-1.2,6c0.4,1-1.5,2.8-2.4,4.2c-0.2,0.3-0.5,0.6-0.7,0.9c1.5,2.4,1.5,2.4,3.5,0.5
		c0.4-0.4,1-0.6,1.5-0.9c0.2,0.1,0.3,0.3,0.5,0.4c-1.2,1.6-2.5,3.2-3.5,4.9c-0.8,1.3-1.2,2.8-1.8,4.3c-0.1,0.1-0.2,0.4-0.2,0.4
		c2.7,3.1-1,3.6-2.2,5.2c-0.3,0.4-0.6,0.8-0.8,1.1c0.9,0.8,1.6,1.5,2.8,2.6c0.1,0,0.8-0.4,1.4-0.8c-1.4,2.8-2.9,5.5-4.4,8.5
		c-0.4-0.2-0.9-0.5-1.7-0.9c-0.2,0.9-0.4,1.7-0.6,2.7c-4.2-2.3-4.2-6.3-4.5-10.4c1.1,0.3,2.3,0.7,3.5,1c0.2-0.2,0.4-0.4,0.6-0.6
		c-0.8-1.7-1.7-3.4-2.6-5.1c1.4-1,1.3-2.5-0.7-4.8c-0.9-1-1.8-2-2.8-3.1c0.9-0.1,1.6-0.1,2.6-0.2c0.2-3.4-4.4-5-3.3-8.6
		c0.2-0.1,0.4-0.2,0.5-0.2c1.1,0.5,2.2,1.9,3.2,0.2c0.9-1.5-0.6-2-1.6-2.7c-2.2-1.4-2.1-3.7-2.8-6c1.3,0.5,2.2,0.8,3.1,1.2
		c0.1-0.1,0.3-0.3,0.4-0.4c-0.9-1.8-2-3.6-2.6-5.5c-0.6-1.9-0.5-4-0.8-5.9c-2.4,3.4-4.7,6.7-7,10c-0.1,0.1-0.3,0.3-0.3,0.4
		c1.2,4.4-3.3,4.4-5.1,6.5c-0.2,0.2-0.5,0.3-0.8,0.5c-0.1,0.1-0.2,0.3-0.5,0.8c1.4,0.2,2.6,0.3,3.7,0.6c0.8,0.2,1.6,0.6,2.3,0.9
		c-0.4,0.6-0.6,1.4-1.1,1.9c-2.3,2-4.8,3.9-7.2,6c1.3,2.9,1.7,3.1,4.6,2.1c-0.6,0.4-1.2,0.8-1.9,1.1c-2.4,1-3.3,2.7-2.2,4.9
		c0.7,1.2,0.3,1.6-0.5,2.4c-0.7,0.7-1.4,1.5-2.4,2.6c-1-2.3-2.7-4.6-3-7c-0.4-2.6,0.4-5.4,0.8-8.1c-0.2,0-0.4-0.1-0.7-0.1
		c-0.2,0.6-0.4,1.2-0.7,2.6c-1.6-3-2.8-5.4-4.3-8.1c1.2-0.1,1.9-0.2,2.9-0.2c-0.1-0.8-0.3-1.4-0.4-2.3c0.5,0.3,0.8,0.6,1.1,0.6
		c0.6,0.1,1.1,0,1.7-0.1c-0.1-0.6,0-1.3-0.3-1.7c-1.3-1.5-2.8-2.8-4.2-4.2c-0.4-0.4-0.7-1-1.2-1.6c1.5,0.6,2.7,1.3,4,1.6
		c1.4,0.3,2.9,0.3,3.8-1.3c-3.5-2.5-8.6-3.2-9.4-8.9c0.5,0.4,0.7,0.6,0.9,0.6c1.2,0.1,2.8,0.7,3.4,0.1c1.2-1.1,0.5-2.4-0.6-3.6
		c-1.8-2-3.6-4-5.1-6.3c2.1,0.4,3.7,2.7,6.3,1.2c-0.3-0.7-0.7-1.3-1.1-2.1c0.8,0.1,1.5,0.2,3,0.4c-0.6-1.6-0.9-2.9-1.6-3.9
		c-1.5-2.2-3.3-4.1-4.8-6.3c-0.7-1.1-1-2.5-1.3-3.9c2.6,2.1,3.7,6.3,8.7,4.6c-2.1-2.4-4.3-4.8-6.4-7.1c0.2-0.2,0.4-0.4,0.7-0.7
		c0.7,0.8,1.4,1.7,2.3,2.4c0.6,0.5,1.5,0.6,2.2,0.8c-0.1-0.8,0-1.8-0.3-2.5c-1.6-2.9-3.4-5.8-5.1-8.7c-0.1-0.2,0.1-0.4,0.1-0.8
		c1.7,0.9,1.7,3.9,5,3.3c-4.5-5.7-6.2-11.9-3.5-18.8c-0.4-0.1-0.8-0.2-1.2-0.3c-0.8,1.2-2.1,2.4-2.2,3.7c-0.3,3.9-3.1,6.2-5.2,8.9
		c-1.6,2-3.9,3.6-4.3,6.5c0,0.3-0.7,0.6-1,0.9c-0.6,0.6-1.1,1.3-1.7,2c0.1,0.2,0.3,0.5,0.4,0.7c1.2-0.2,2.4-0.4,3.6-0.6
		c0.2,0.1,0.3,0.3,0.5,0.4c-0.8,0.4-1.7,0.7-2.5,1.1c0.1,0.2,0.3,0.4,0.4,0.6c0.4,0.2,0.9,0.4,1.3,0.6c-1.7,1.6-3.4,3-5,4.5
		c0.6,0.6,0.9,0.5,8.2-2.4c-4.1,3.5-8.3,7.1-12.4,10.7c0.8,0.4,2,1,3.9,1.9c-1.9,1.6-3.3,2.7-4.7,3.8c-1.4,1.1-2.9,2.1-4.7,3.3
		c4.1,0.6,5.1,1.6,4.8,4.6c-2.2,0.2-4.3,0.3-6.5,0.5c0,0.3,0,0.6-0.1,0.9c1.5,0.3,2.9,0.7,3.9,0.9c-1.5,1.6-3.2,3.3-5.2,5.4
		c-1.9-2.6-3.8-5.1-5.7-7.6c0.3-0.2,0.4-0.4,0.5-0.4c1.3,0.1,2.5,0.2,3.8,0.3c-0.3-1.2-0.5-2.4-0.9-3.5c-0.6-1.7-1.3-3.3-1.9-5
		c-0.1-0.3-0.3-0.8-0.2-0.9c1.9-1.5,0.1-3,0.1-4.6c0.8,0.1,1.5,0.3,2.9,0.5c-1.3-2-2.2-3.6-3.2-5.1c-0.9-1.4-1.6-2.7-0.8-4.4
		c0.1-0.3,0-0.8-0.1-1.1c-1.5-4-3-7.9-4.6-12.1c-0.5,1.8-0.9,3.6-1.4,5.4c-0.1,0.3,0.1,0.9-0.1,0.9c-3.3,1.5-3.6,4.9-5,7.5
		c-1.1,2-2.9,3.6-4.8,5.9c1.4-0.2,2.3-0.4,3.7-0.6c-0.5,1.7-0.6,3.7-1.6,5c-2.5,3.2-4.2,6.9-5.7,10.6c-0.6,1.6-1.7,1.3-2.7,1.1
		c-1.6-0.4-3.2-0.9-4.7-1.6c-0.8-0.4-1.5-1.3-2.2-2c0.2-0.2,0.3-0.4,0.5-0.6c0.6,0.1,1.2,0.2,1.9,0.4c0-0.4,0.1-0.6,0-0.8
		c-0.8-2-1.8-4-2.5-6c-0.3-0.9-0.4-2-0.1-2.8c0.6-1.8-0.3-2.3-2-2.9c-0.5,1.3-0.8,2.6-1.3,3.8c-0.2,0.5-0.6,1.3-1,1.4
		c-3.5,0.6-7,1.1-10.6,1.6c-0.2-3.3-0.3-6.5-0.5-9.8c-0.1-1.5,0.4-2.3,2-1.5c3.4,1.7,6.7,1.7,10.3,0.2c1.5-0.7,3.5-0.2,5.2-0.6
		c2.8-0.5,5.6-1.2,8.3-2.1c0.6-0.2,0.9-1.2,1.3-1.8c-0.7-0.2-1.4-0.5-2-0.5c-3.3,0.1-6.7,0.4-10.6,0.7c1.4-1.3,2.2-2,3.2-2.9
		c-6.4-2-12.3-3.8-18.2-5.6c-0.3-3.8-0.6-7.5-1-11.8c1.1,1.8,1.8,3,2.7,4.4c1.8-0.8,3.8-1.6,5.6-2.5c0.3-0.1,0.2-1.4-0.1-1.9
		c-0.4-0.7-1.3-1.2-1.9-2c5.7,3.5,11.6,2.7,18.1,1.1c-6.1-2.3-11.5-4.6-17.1-6.5c-3.6-1.2-7.8-6.3-7.6-9.7c1.9,1.2,3.7,2.5,5.7,3.6
		c0.5,0.3,1.3,0.2,2,0.3c-0.2-0.7-0.1-1.5-0.5-2c-2.2-2.9-4.6-5.7-6.9-8.5c-0.6-0.7-0.9-1.6-1.2-2.6c4.8,1.2,8.8,5,14.3,3.4
		c-0.4-3.8-5-2.8-6.9-5.4c2.6-0.7,4.8-1.3,7-1.8c0-0.3,0-0.6,0-0.9c-0.5-0.3-0.9-0.6-1.4-0.8c-3-0.8-6-1.4-8.9-2.5
		c-1.5-0.6-2.6-2.4-3.9-3.5c-2.2-1.9-2.8-4.2-1.9-7.3c1.8,2.2,4,2.5,6.8,1.5c-5.3-3.5-6.2-9.6-8.9-14.5c-0.8-1.4-0.5-3.4-0.5-5.1
		c0-1.8-0.7-2.3-2.1-1.9c-0.2,4.4-0.4,8.6-0.7,12.8c-0.1,1.1,0.1,2.5-0.5,3.4c-1.9,2.9-4,5.6-6,8.4c-0.7,1.1-1.3,2.3-2.1,3.8
		c4.9,0.5,6-4.3,9.5-5.5c0,0.6,0.2,1.2,0,1.5c-1.2,1.8-2.4,3.5-3.7,5.3c-1.5,2.1-3,4.3-4.7,6.2c-1.4,1.6-3,3-4.8,4.1
		c-1.6,1-2.4,2.2-2.4,4.2c5,1.3,7.3-2.9,11-4.7c-1,1.3-1.9,2.7-2.9,4c-0.2,0.4-0.6,1-0.5,1.1c0.3,0.4,0.8,0.7,1.3,0.8
		c2.4,0.3,3.5-1.7,4.9-3.1c0.5-0.5,1-1.1,1.5-1.7c1.8,3.7,1,7.6-1.1,10.6c-1.9,2.5-4.6,2.9-7,4.2c-1.7,0.9-3.2,2.2-4.8,3.4
		c0.1,0.2,0.3,0.5,0.4,0.7c1.6,0,3.3,0,5,0c-1.5,2.9-4.7,4-7.1,6c-2.5,2-4.6,4.4-6.9,6.6c0.2,0.3,0.3,0.6,0.5,0.9
		c4.4-2,8.9-4,13.9-6.2c-2.3,3.4-4.1,6.3-6.2,9.4c3.2,0.7,6.1-0.9,8-3.6c1.9-2.7,4.3-5.1,6.7-8c0.7,2.3,0.6,4.1-0.1,6
		c-0.3,0.9-0.4,2.3,0.1,3c1.1,1.4,0.7,2.6-0.1,3.7c-2.4,3.2-5.1,6-8.8,7.9c-1.3,0.6-2.8,1.7-3.6,3.5c-0.4,1-2.8,1.2-4.3,1.6
		c-2,0.6-4.1,1-6.1,1.5c0,0.3,0,0.6,0,0.9c1,0.7,2,1.4,3,2.1c-0.8,1.7-1.5,3.2-2.4,5.1c-0.6-0.9-1.8-2-1.6-2.7
		c0.9-3.5-0.1-6.7-1-10.1c0.7,0.7,1.3,1.5,2,2.2c0.2-0.1,0.4-0.2,0.6-0.3c-0.8-2.1-1.5-4.3-2.4-6.8c1.1,0.8,1.8,1.3,2.4,1.7
		c-0.6-4.7-1.3-9.2-2-14.6c-1.4,2.8-2.4,5.2-3.8,7.5c-1.4,2.4-3.1,4.5-4.2,7.2c0.6-0.4,1.2-0.8,1.8-1.2c0.1,0.1,0.2,0.2,0.4,0.3
		c-0.9,1.3-2,2.5-2.8,3.9c-0.4,0.7-0.4,1.6-0.5,2.5c-0.1,0.4,0,0.8-0.1,1.1c-1.1,1.9-2.3,3.8-3.6,6c-0.1-1.2-0.2-2.3-0.4-3.9
		c-0.8,1.1-1.3,1.8-2.2,3c-0.5-2.3-0.9-4-1.3-6c-0.3-0.1-0.9-0.3-1.6-0.4c1.1-3.6-1-4.2-3.8-4.4c-0.3,1-0.6,1.8-0.9,2.7
		c-0.3,0-0.6,0-0.9,0c-0.1-1.9-0.1-3.8-0.2-5.6c0-1-0.2-2.1-0.2-3.1c-0.9,0.2-1.8,0.5-2.8,0.6c-1.6,0.3-3.1,0.4-4.7,0.7
		c-0.3-1.1-0.5-1.8-0.9-3.3c-1.6,2.1-2.8,3.8-4.2,5.6c-0.8-2.9-2.8-3.4-5.2-4.5c-2.9-1.3-5.3-2.3-8.3-0.8c-0.3,0.1-1.2-0.7-1.5-1.2
		c-2-2.9-3.9-5.8-6-9c-1.5,1.3-2.7,2.7-4.1,3.7c-1.2,0.8-2.7,1.7-4.1,1.8c-4.6,0.3-9.2,0.3-13.8,0.4c-2.9,0.1-3.7,0.9-4.1,3.7
		c-0.4,2.7-1.3,5.3-4.2,6.9c0.6-1.5,1.1-3.1,1.7-4.6c-2.8-0.3-5,0.7-6.7,3.4c-3.1,4.8-10.2,4.4-14.1-0.6c-2.5-3.2-5-6.3-7.7-9.2
		c-0.7-0.7-2.1-1.1-3.2-1.1c-4-0.1-8.1,0-12.1-0.1c-1,0-2.1-0.1-3.3-0.2c-0.2,0.3-0.7,0.8-0.9,1.4c-0.9,2-2.2,1.2-2.6,0
		c-0.7-1.9-2.2-1.7-3.4-1.9c-2.5-0.4-4-1.8-5.1-4c-2.5-4.9-5.1-9.8-7.9-14.7c-0.5-0.9-1.7-1.7-2.7-1.8c-4-0.5-8-1-12-1
		c-5.5,0.1-10.9,0.6-16.4,1c-3.7,0.3-7.5,0.5-11.2,0.9c-3.8,0.4-6.4,2.8-8.3,6c-0.8,1.3-1.5,1.2-2.5,0.8c-1-0.4-2.2-1.5-2.7-1.2
		c-1.5,0.9-2.7,2.4-4,3.6c-0.2,0.2-0.2,0.7-0.4,1.3c-4.5-1.1-5.7,3-8.2,5.1c-0.4,0.3-0.6,1-1,1.3c-2.5,2-3.3,4.4-3.2,7.6
		c0.1,2.1-0.7,4.5-1.8,6.4c-1.2,2.2-3.3,3.7-6.2,3.5c-2-0.2-4.1-0.1-6.1,0c-1.1,0.1-2.1,0.7-3.2,0.8c-2.5,0.3-4.9,0.4-7.4,0.6
		c-2.1,0.2-4.1,0.5-6.6,0.8c0.8-3.2,1.7-6.9,2.5-10.6c1.1-5,1.9-10,1.2-15.1c-0.1-0.8-1.2-2-2-2.2c-1.7-0.4-1.7-1.4-1.7-2.7
		c0-4.6,0-9.2,0-13.8c0-3.1-1.6-4.7-4.6-5.1c-1.7-0.3-3.3-1.1-5-1.4c-3.5-0.6-7-1.2-10.5-1.5c-1-0.1-2,0.9-3.1,1.3
		c0-113.3,0-226.6,0-340c414.5,0,828.9,0,1243.4,0C1234.2,74.3,1234.2,132.4,1234.2,190.5z M1105.6,231.8c0-0.5,0.2-0.7,0.1-0.9
		c-1.9-3.1-3.8-6.3-5.9-9.3c-0.5-0.7-1.7-0.9-2.7-1.1c-0.5-0.1-1.5,0.7-1.5,0.8c0.3,0.9,0.8,1.7,1.3,2.4c0.2,0.3,0.4,0.5,0.7,0.6
		c1.9,0.9,2.1,2.6,2.1,4.4c0,0.5,0.1,1,0.2,1.5c0.2,0,0.4,0.1,0.6,0.1c0.3-0.7,0.6-1.5,0.8-2.1
		C1102.6,229.3,1104.1,230.5,1105.6,231.8z M658.1,517.4c1.3-1.2,2-1.8,2.8-2.5c-0.6-0.7-1.4-2-1.9-1.9c-1.1,0.2-2.1,1.1-3.2,1.6
		C656.4,515.4,657.1,516.1,658.1,517.4z M657.9,485.7c0.4-2.5-1.9-3.7-5.6-2.9C653,486.3,656,484.7,657.9,485.7z M659.2,509.6
		c-0.3-0.1-0.5-0.2-0.8-0.3c-1.7,0.5-3.4,0.9-5.2,1.4c3.6,2,3.6,2.5,4.8,1.1C658.5,511.2,658.8,510.3,659.2,509.6z M665,457.5
		c-0.5-2.8-2.4-2.8-6.2,0.4C660.8,457.8,662.9,457.7,665,457.5z"/>
	<path class="st1" d="M488,475.3c0.8,0.3,1.2,0.5,1.8,0.8c1.2-3.9-2.8-5.7-3.6-9c1.4,1.2,2.6,2.1,3.7,3c0.2-0.2,0.4-0.4,0.5-0.6
		c-0.9-2.7-1.7-5.5-2.6-8.3c3.2-0.3,6-0.5,9.1-0.7c-0.5,0.6-0.9,1.1-1.5,1.9c5.6,0.7,8.6-3,11.9-6.2c0.2,0.1,0.4,0.2,0.6,0.2
		c-0.2,2.4-0.3,4.8-0.5,7.1c-0.1,1.5-0.5,3.1-0.1,4.4c1,3.6-1.5,5.8-3.7,7.3c-2.8,1.9-5.7,4-9.5,4.1
		C490.6,479.4,490,479.3,488,475.3z"/>
	<path class="st1" d="M292.7,424.8c-0.8-0.7-1.7-1.4-2.3-1.9c-3,1.2-2.4,2.5-1.2,3.8c-3,2.2-3.7,2.3-6.1,0.4
		c-0.4-0.3-0.8-0.7-0.9-1.1c-0.7-3.7-1.3-7.4-1.9-11.1c0-0.1,0.1-0.3,0.1-0.4c3.3-1.1,6.6-2.1,9.9-3.2c0.1,0.2,0.1,0.3,0.2,0.5
		c-1.2,0.8-2.4,1.5-3.5,2.4c-0.4,0.3-1,1.1-0.8,1.4c0.2,0.5,1,1.1,1.4,1c1.3-0.2,2.7-0.5,3.9-1.1c1.4-0.6,2.5-1.6,3.9-2.4
		c1.5-0.8,2.4-0.7,2.4,1.4c0.1,3.8-1.1,7-4,9.5c-0.5,0.5-1,1-1.5,1.4C292.4,425.3,292.6,425.1,292.7,424.8z"/>
	<path class="st1" d="M324,446.6c-1.4-2.7-2.6-4.8-3.6-7c-0.1-0.2,0.6-0.7,0.6-1.1c0.2-1.3,0.2-2.6,0.3-3.7c2.1,0.3,4.3,0.5,6.8,0.8
		c1.7,1.7,0.2,3.4-1.1,4.2C324.7,441.4,324.7,443.7,324,446.6z"/>
	<path class="st1" d="M351.7,447.9c-1.1-2.4-2.2-4.9-3.2-7.3c0.5-0.3,1-0.7,1.7-1.2c1.1,2.5,3.2,2.4,5.7,1.8
		c-2.3,1.8-4.2,3.7-3.4,7.2C352.3,448.2,352,448,351.7,447.9z"/>
	<path class="st1" d="M504.1,485.5c-1.8,2.1-3.5,4.1-5.4,6.3c-0.7-0.7-1.2-1.3-1.8-2c2.3-1.6,4.4-3.2,6.6-4.8
		C503.7,485.2,503.9,485.3,504.1,485.5z"/>
	<path class="st1" d="M306.6,423.4c2.8-0.6,5-1,7.4-1.5C313.3,424.8,309.9,425.6,306.6,423.4z"/>
	<path class="st1" d="M178.2,411.9c0.6-0.2,1.2-0.5,1.7-0.7c0.3-1.7,0.6-3.3,0.9-5c0.2,0,0.5,0,0.7,0c0.1,1.2-0.1,2.4,0.3,3.5
		c0.3,0.9,1.2,1.7,2,2.6c-1.7,0-3.7,0-5.6,0C178.3,412.1,178.3,412,178.2,411.9z"/>
	<path class="st1" d="M517.4,458.9c-1.1,1-2.1,1.9-3.5,3.2c0-1.7,0-2.9,0-4.3c1.1,0.1,2.3,0.2,3.5,0.4
		C517.4,458.4,517.4,458.7,517.4,458.9z"/>
	<path class="st1" d="M26.6,414.5c0,2.9,0,5.7,0,8.6c-0.2,0-0.4,0-0.6,0c0-2.9,0-5.7,0-8.6C26.2,414.5,26.4,414.5,26.6,414.5z"/>
	<path class="st1" d="M504.5,490.5c-1,0.9-1.9,2-3,2.7c-0.6,0.4-1.5,0.1-2.3,0.1c0-0.2,0-0.5,0-0.7c1.6-0.8,3.1-1.7,4.7-2.5
		C504.1,490.2,504.3,490.3,504.5,490.5z"/>
	<path class="st0" d="M386.9,459.8c-0.2,0.6-0.6,1.4-1.2,2.9c-1-1.9-1.7-3.2-2.4-4.5c0.1-0.1,0.3-0.2,0.4-0.2
		C384.6,458.5,385.4,459,386.9,459.8z"/>
	<path class="st1" d="M770.1,464.6c1.1,0.3,2.2,0.5,3.4,0.8c-0.2,0.8-0.4,1.4-0.9,2.8c-1.2-1.1-2.1-2-3-2.9
		C769.8,465.1,770,464.8,770.1,464.6z"/>
	<path class="st1" d="M807.8,426.6c-1,1.5-2,0.7-2.9-0.1c-0.5-0.5-0.8-1.3-0.6-2.1C805.4,425.1,806.5,425.8,807.8,426.6z"/>
	<path class="st1" d="M777.8,475.5c-1,0.2-1.7,0.4-2.7,0.6c0-0.9,0-1.6,0-2.3c0.8-0.3,1.4-0.5,2.2-0.8
		C777.4,473.8,777.6,474.5,777.8,475.5z"/>
	<path class="st1" d="M772.1,469.7c-0.5,0.4-1,0.7-1.9,1.3c-0.4-1.4-0.8-2.7-1.1-3.9c0.1,0,0.3-0.1,0.4-0.1
		C770.4,467.8,771.2,468.7,772.1,469.7z"/>
	<path class="st1" d="M1105.6,231.8c-1.6-1.3-3-2.4-4.4-3.6c-0.2,0.7-0.5,1.4-0.8,2.1c-0.2,0-0.4-0.1-0.6-0.1
		c-0.1-0.5-0.2-1-0.2-1.5c0-1.8-0.2-3.5-2.1-4.4c-0.3-0.1-0.6-0.4-0.7-0.6c-0.5-0.8-1-1.6-1.3-2.4c0-0.1,1-0.9,1.5-0.8
		c0.9,0.2,2.2,0.4,2.7,1.1c2.1,3,4,6.2,5.9,9.3C1105.8,231,1105.7,231.3,1105.6,231.8z"/>
	<path class="st0" d="M658.1,517.4c-1-1.3-1.7-2-2.3-2.8c1.1-0.6,2.1-1.5,3.2-1.6c0.5-0.1,1.2,1.2,1.9,1.9
		C660.1,515.6,659.4,516.2,658.1,517.4z"/>
	<path class="st1" d="M657.9,485.7c-1.8-1-4.9,0.6-5.6-2.9C655.9,482,658.3,483.2,657.9,485.7z"/>
	<path class="st1" d="M659.2,509.6c-0.4,0.7-0.7,1.5-1.2,2.1c-1.2,1.4-1.2,0.9-4.8-1.1c1.9-0.5,3.6-1,5.2-1.4
		C658.7,509.4,658.9,509.5,659.2,509.6z"/>
	<path class="st1" d="M665,457.5c-2.1,0.1-4.2,0.3-6.2,0.4C662.6,454.7,664.5,454.7,665,457.5z"/>
</g>
</svg>
