<?xml version="1.0" encoding="utf-8"?>
<!-- Generator: Adobe Illustrator 19.0.0, SVG Export Plug-In . SVG Version: 6.00 Build 0)  -->
<svg version="1.1" id="Layer_1" xmlns="http://www.w3.org/2000/svg" xmlns:xlink="http://www.w3.org/1999/xlink" x="0px" y="0px"
	 viewBox="0 0 1224 792" style="enable-background:new 0 0 1224 792;" xml:space="preserve">
<style type="text/css">
	.st0{display:none;}
	.st1{fill:#417252;}
	.st2{display:none;fill:#417252;}
	.st3{display:none;fill:#2D6349;}
	.st4{fill:#2D6349;}
</style>
<g class="st0">
	<path class="st1" d="M1230.3,231.3c0,180.2,0,360.4,0,540.7c-412.2,0-824.4,0-1236.7,0c0-171.2,0-342.5,0-513.7
		c10.4,1.2,20.9,2.4,31.5,3.6c0-1.5,0.1-3,0-4.5c-0.2-2.3-0.6-4.5-0.9-6.8c-0.4-2.9-0.7-5.8-1-8.7c-0.1-0.4-0.6-0.7-0.6-1.1
		c0-1.9-0.5-4.7,0.4-5.6c1.1-1.1,1.2-2,1.2-3.4c0-3.3,0-6.6,0-9.9c0-4.1,0-8.2,0-12.3c1.4,0,2.4,0,3.5,0c0.5,4,1,7.8,1.5,11.7
		c1.7,0.1,3.5,0.2,5.4,0.3c0,3.2-0.1,6.1,0,9c0.1,2.8,0.4,5.5,0.7,8.5c2,0,3.5,0,5.1,0c0,4.2,0,8.2,0,12.6c2-2.1,3.6-3.9,5.3-5.6
		c1.4-1.4,2.7-2.9,4.2-3.8c5.4-3.1,11.2-1.1,16.8-1.6c0.4,0,0.9,0.3,1.3,0.6c4.6,2.4,9.2,4.8,13.9,7.1c2.6,1.3,4.5,0.5,5.8-1.3
		c-0.1-2.5-0.4-4.2-0.2-5.8c0.2-1.6,0.8-3.1,1.4-4.6c0.6-1.2,1.3-2.6,2.2-3.2c3.5-2.5,7.3-4.6,10.7-7.2c3.6-2.7,7.3-2.9,11.2-1.2
		c4.6,2.1,9.1,4.4,13.6,6.6c1.1-1.7,3.1-3.1,1.4-5.8c-0.2-0.3,0.4-1.3,0.8-1.9c0.4-0.7,1-1.2,1.5-1.9c-0.7-0.3-1.3-0.6-2.1-1
		c1.2-1.9,2.2-3.6,3.1-5.1c0-0.7-0.4-1.7-0.1-2.3c1-2.3,2.2-4.5,3.4-6.7c0.5-0.8,1.2-1.5,2.1-2.6c0.1,1.2,0.3,2,0.1,2.4
		c-1.2,2.5,0.2,3.8,1.6,5.3c0.5,0.5,0.9,1.3,0.9,2c0,3.4,2.3,6.5,1.1,10.1c-0.1,0.3,0.3,0.8,0.5,1.1c1.6,2.6,3.2,5,3.1,8.6
		c0,1.4,3,2.9,4.6,4.3c0,0,0.3-0.3,0.5-0.5c-0.2-0.1-0.4-0.2-0.6-0.3c0.3-1.5,0.2-3.2,0.9-4.4c1.7-3.1,2.4-7.4,5.6-8.7
		c5.4-2.3,11-4.4,16.9-2.1c0.6,0.2,1.5,0.3,1.8,0c1.4-1.9,2.6-3.9,4.1-6.2c-2.1-0.6-2.2-1.7-1.5-3.2c1.4-2.8,2.7-5.6,4.1-8.3
		c0.1-0.1,0.3-0.1,0.5-0.2c0.6,0.9,1.4,1.8,1.9,2.9c0.9,1.7,2.6,3.9,2.2,5.2c-0.8,2.7,0.4,4.2,1.4,6.1c0.4,0.8,0.1,2.1,0.1,3.2
		c0,1.4-0.6,3.2-0.1,4.2c1.5,2.9,1.6,5.5,0.2,7.9c0.6,0.8,1,1.5,1.5,1.9c1.4,1.2,2.2,4.2,4.4,3.4c4.1-1.4,7.6,1.6,11.4,1.6
		c0.5,0,1,0.9,1.3,1.5c1.1,2.1,1.8,4.7,3.3,6.3c1.1,1.2,3.5,1.9,4.8,1.3c3.1-1.2,8.1-0.7,10.7,2.1c2,2.2,2.6,2.1,4.3-0.5
		c-1.8-0.4-1.4-1.5-0.8-2.8c1.3-2.9,2.4-5.9,3.8-9.1c0.7,1.5,1.3,3.5,2.4,4.9c1.2,1.5,2.8,2.6,4.1,3.7c2.1-3.1,2.6-7.3,5.2-10.3
		c1,3.6,1.8,6.6,2.6,9.6c0.2,0.7,1,1.7,0.8,2.1c-1.8,3.1,0.3,4.1,2.1,5.2c3.3,1.9,6.7,3.7,10.1,5.4c1.4,0.7,1.9,1.6,2.1,3.4
		c0.2,2.3,0.8,4.9,2,6.6c1.8,2.6,1.8,5.6,0.9,7.9c-1.2,2.9-0.1,5.5,0.6,7.6c1.4,4.4,4.4,7.9,8.6,9.6c0.6-0.7,1.3-1.3,1.7-2.2
		c1.2-2.5,1.5-5.6,3.2-8c0.6-0.8,0.1-2.4,0.6-3.3c1.4-3.1,3-6,4.5-9c0.2-0.4,0.7-0.9,1.1-0.9c0.3,0,0.9,0.6,1,1
		c0.8,3.6,1.5,7.2,2.3,11.2c3.2-0.3,6.4-0.6,9.6-1c1.9-0.3,3.7-1,5.5-1.5c0.8-0.2,1.7-0.6,2.4-0.3c3,1.2,5.9,2.5,8.8,3.8
		c1,0.4,1.9,1,2.9,1.5c2.1,0.3,4.2,1,6.3,1.4c0.9,0.2,2.3,0.5,2.7,0c0.7-1,0.9-2.6,1.2-3.9c0.2-0.7-0.1-1.6,0.2-2.1
		c1-1.5,2.2-2.8,3.6-4.5c-2.2-1-2-2.2-0.8-3.5c0.4-0.4,0.7-0.9,1-1.4c1.9-3.7,3.7-7.4,5.8-11.5c0.3,1.1,0.5,1.7,0.7,2.4
		c0.9,2.8,1.8,5.5,2.7,8.3c0.2,0.6,0.4,1.3,0.6,1.9c-0.6,0.2-1.2,0.3-2.3,0.7c1.1,2.6,2.1,5.1,3.4,8.1c-0.2,0.1-1,0.6-1.9,1.2
		c1.2,0.9,2.3,1.6,3.4,2.4c0,0.2,0,0.5,0,0.7c-1.1,0.3-2.2,0.7-3.5,1.1c0.4,3,2.5,2.5,4.1,2.9c1.9-3.3,1.7-7.7,4.8-10.8
		c1.2,10.1,1.2,10.1,3.4,13c1.1-4.2,2.2-8.4,3.3-12.5c0.8,0.9,0.9,1.7,1.2,2.3c1.1,2,1.7,4,1.5,6.5c-0.1,2.1-0.7,4.6,1.2,6.4
		c1.6,1.6,1,2.7-1.2,3.1c1.3,2.2,2.8,3.9,3.3,6c0.7,2.9,2.2,2.9,4.1,2.6c0.5-0.1,1.1-0.4,1.6-0.3c4.4,0.9,8.7,1.9,13,2.7
		c3.8,0.7,7.7,1,11.6,1.7c3.5,0.6,7,1.4,10.5,2.2c0.3,0.1,0.6,0.2,0.8,0.5c2.1,3.9,4.1,7.7,6.3,12c0.7-1.8,1.5-3.8,2.3-5.7
		c0.2-0.6,0.5-1.1,0.8-1.6c0.8-1.3,1.6-1.5,1.8,0.4c0.1,1.3-0.2,2.6,0,3.9c0.5,3,1.3,6,2.1,9.6c1.1-1.9,1.8-3.3,2.6-4.6
		c0.4-0.6,1.2-1.4,1.5-1.2c0.6,0.3,1.1,1.1,1.4,1.9c0.2,0.6-0.1,1.5,0.1,2.2c0.5,2,0.5,4.4,2.9,5c2.1-2.9,3.6-2.6,5.4,1.4
		c0.6-1.2,1.2-2.2,1.8-3.3c-2.3-0.9-2.4-1.6-1.4-4c1.2-3,2.1-6.1,3.2-9.2c0.2-0.7,0.6-1.3,1.1-2.3c0.5,1,0.8,1.4,0.9,1.9
		c0.7,3,1.4,5.9,2.9,8.6c0.5,0.9,0,2.7,0,4c-0.3,0.1-0.7,0.3-1,0.4c0.7,0.6,1.5,1.1,2.1,1.9c0.6,0.9,1.4,2.2,1.3,3.2
		c-0.3,2,0.7,2.3,1.7,1.9c3.1-1.3,5.4,0.5,7.8,2.1c1.5,1,3,2.1,4.6,3.2c1.1-1.7,2-3,2.6-4.4c0.6-1.4,0.7-3.2,2.6-3.5
		c0.6,3.7-0.6,7.5,1.5,11c2.3-4.9,4.1-9.6,4.4-14.9c0-0.7,0.9-1.3,1.4-1.9c2,3.5-0.4,8.8,4.6,10c0.2-0.7,0.7-1.4,0.6-1.8
		c-1-3.3,0.8-5.4,2.4-7.7c0.2-0.3,0.4-0.6,0.4-1c0.6-4.9,4.2-7.9,5.9-12.1c0.2-0.4,1-0.5,1.6-0.7c0.1,0.5,0.6,1.3,0.4,1.6
		c-2.4,4.5-0.8,8.5,1.2,12.4c1.1,2.2,0.5,4.3-1.3,4.7c1.3,1.9,2.6,3.8,4,5.9c-0.1,0.1,0.2-0.1,0.4-0.4c1.3-2,2-4.8,4.8-4.7
		c0.3,0,0.7-0.5,0.9-0.9c0.9-2.9,1.7-5.8,2.5-8.6c-0.4-0.1-1.1-0.2-2.1-0.5c0.8-2,1.5-3.7,1.9-4.9c-0.1-1.4-0.6-2.5-0.3-3.4
		c1.2-4.1,2.6-8.1,4-12.2c0.2-0.5,0.5-0.9,0.8-1.4c0.3,0.4,0.6,0.8,0.9,1.3c2,3.6,3.9,7.2,6,11c1.1-2.2,3.8-3.4,2.1-6.5
		c-0.1-0.2,0.1-0.7,0.3-1c0.7-1.2,2.2-2.6,2.1-3.6c-0.3-2.6,1.6-3.6,2.2-5.3c-0.4-0.5-0.8-1-1.2-1.4c1.2-0.9,2.3-1.9,3.5-2.5
		c0.4-0.2,1.5,0.3,1.8,0.8c1.1,2.1,2.1,4.4,3.2,6.7c-2.5,0.7-1.1,3.1-0.3,4.2c1.5,2.1,1.5,3.6-0.2,4.9c0.6,4.1,4.3,6.6,3.4,11.1
		c-0.1,0.4,0.8,1.2,1.3,1.8c0.4,0.5,1.2,0.9,1.4,1.5c0.8,2.5,1.9,1.3,3.3,0.6c-2.2-1.7-1.6-3.4-0.4-5.1c1.1-1.6,2.3-3,3.1-4.7
		c1.6-3.6,4.5-4.7,7.9-3.9c0.4,0.1,1-0.4,1.5-0.6c0.5-0.2,0.9-0.6,1.3-0.8c3.8-1.2,7.4-0.6,10.3,1.5c1.6-2.4,3-4.6,4.6-6.9
		c-2.5-0.8-2.8-1.9-1.3-3.8c1.9-2.3,3-5.6,6.1-6.1c1.1,2.5,2.1,5,3.2,7.4c-0.2,0-0.4,0.1-0.6,0.1c-0.1,0.6-0.3,1.2-0.2,1.8
		c0.4,1.5,1.5,3.1,1.2,4.2c-0.9,3.2-0.3,5.9,0.8,8.8c0.4,1-0.1,2.5-0.2,4.1c1.8,1.5,1.8,1.5,1.5,3c1.3,1.7,2.1,2.9,3.1,4.2
		c5.3-0.4,10.9-0.8,14.7,5.9c0.7-1.2,1.3-2.3,1.9-3.3c0.6-1,1.3-2,2.3-3.5c0.4,1.3,0.7,2,0.8,2.8c0.1,1.7,0,3.5-0.1,5.2
		c-0.1,2.6,1,3.8,3.3,3.7c2.1,0,4.3-0.2,6.1,0.6c1.7,0.7,3.1,2.6,4.7,4c0.1-0.1,0.2-0.2,0.3-0.3c0.7-0.6,1.8-1.1,2.1-1.9
		c0.2-0.6-0.7-1.7-1-2.6c-0.1-0.2,0-0.6,0.1-0.8c0.9-2.2,1.8-4.4,2.9-6.6c0.4-0.8,1-1.5,1.4-2.2c0.9,0.8,1.8,1.6,2.7,2.4
		c-1.3,1.8,0.7,2.9,0.8,4.4c0.2,2.5,0.7,4.9,1.1,8c1-0.6,2.2-1.4,3.3-2c2.6-1.3,5.2-2.6,7.8-3.7c1.2-0.5,2.6-0.9,3.9-1
		c1.3-0.1,2.6,0.1,3.8,0.2c0.1,0.4,0.2,0.7,0.3,1.1c1-1,2-2,3-2.9c1.1-0.7,2.7-0.7,4-1.4c1.3-0.7,2.2-2.2,3.3-3.4
		c0.2,0.2,0.4,0.4,0.6,0.5c-0.1-0.8-0.2-1.7-0.4-2.7c1.9-0.8,3.8,0,5.7-2.2c2.9-3.4,7-5.6,10.6-8.2c1.9-1.4,3.9-2.8,6-3.9
		c2.1-1,4.6-2.6,6.6-2.2c6,1.3,11.9,3.4,17.8,5.4c1.7,0.6,2.4,2.2,2.8,4.5c0.9,5.2-1.8,9.3-3,13.7c-0.8,3.1-0.3,5,1.1,7.5
		c1.5,2.5,3.6,5.1,2.4,8.8c-0.2,0.7,0.2,1.8,0.7,2.5c1.3,1.9,2.6,3.9,4.2,5.5c1.4,1.4,3.3,3.4,4.9,3.3c2.8-0.1,5.6-1.7,8.4-2.5
		c2.6-0.7,5-3,7.9-1.6c0.9,0.4,1.5,1.5,2.3,2.3c-0.8,0.7-1.6,1.4-2.8,2.4c0-0.2,0,0.4,0.1,0.9c1.3,0,2.3,0,3.4,0
		c-0.1,0.2-0.3,0.4-0.4,0.6c1,1.2,2.1,2.3,3.1,3.5c1.4,1.8,2.6,1.5,3.5-0.9c-0.7,0-1.4,0-2.5,0c0.5-0.8,0.7-1.5,1.1-1.8
		c1.7-1,2.3-2.2,1.2-4.4c-0.4-0.9-0.1-2.2-0.1-3.6c-1.1,0.4-2.2,0.8-3.3,1.3c0.6-1.4,1.2-2.9,2.2-3.3c3.3-1.4,4.4-4.5,5.3-7.9
		c0.1-0.2-0.1-0.5-0.2-0.7c-0.7,0.2-1.4,0.3-2.5,0.5c0.3-1.3,0.4-2.2,0.8-3c1.2-2.6,2.8-4.9,3.6-7.6c0.7-2.3,1.7-2.9,3.3-3
		c1.3,4.7,2.6,9.2,3.9,13.9c-1.1-0.2-1.9-0.3-2.9-0.4c0.8,1.5,1.4,2.7,2.1,4c1.6-2.3,9-2.2,10,0.4c-2.7-0.5-5.1-0.9-8.3-1.5
		c1.8,4.1,3.3,7.4,4.8,10.9c-0.9,0.2-1.3,0.2-1.6,0.4c-0.9,0.7-2.6,1.7-2.5,2.4c0.2,1.5,1.1,3.1,2,4.2c1.3,1.5,3.1,2.3,4.3,3.8
		c1.9,2.7,4.7,3.2,7.3,4c2.9,1,3.8-0.3,4-3.8c0-1,0.4-2,0.7-2.9c1-2.5,2.1-4.9,3-7.4c0.1-0.4-0.5-1-0.5-1.6c-0.2-1.5-1.4-3.3,1-4.1
		c0.3-0.1,0.5-0.8,0.6-1.3c0.3-1.3,0.4-2.7,0.7-4.5c-4.1,2.7-7.7-0.3-11.4-1.7c1.7,0,3.5,0.2,5,0.9c4.1,1.7,7.4-0.7,7.6-5.5
		c0-0.9,0.4-2,0.9-2.5c2.3-2.4,3.2-5.3,3-8.8c-0.1-0.9,0.1-2,0.5-2.8c1.2-2.6,2.6-5,4-7.7c3.8-0.3,4.8,1.3,3.2,5.4
		c-0.3,0.7-0.3,1.6-0.2,2.4c0.3,2.5,1,5.1,0.8,7.6c-0.2,3.2,1,5.2,3,7c0.8,0.8,1.6,1.8,2.6,2.2c2,0.8,1.3,2.7,1.1,3.9
		c-0.2,0.8-1.5,1.4-2.4,1.9c-0.7,0.3-1.5,0.3-2.2,0.5c0,0.3,0.1,0.6,0.1,0.8c1.3,0.1,2.8-0.3,3.9,0.3c1,0.5,1.5,2.1,2.3,3.4
		c3.9-4.7,2.5-9.9,2-15.2c1,0.1,2.1,0.2,2.8,0.2c2.3-1.8,4.5-3.4,6.6-5.1c-0.1-0.2-0.2-0.4-0.3-0.7c-1.4,0.3-2.8,0.7-4.2,0.8
		c-0.4,0-1.1-0.8-1.3-1.4c-0.1-0.3,0.6-1.4,1-1.4c2.8-0.2,4.1-2.4,5.3-4.9c0.9-1.7,2.1-3.2,3.3-4.8c2.1,2.7,1.8,5.3,1,8
		c-0.6,1.9-0.5,2.8,1.6,3.5c1.9,0.6,4.2,1.6,4.4,5c-0.8,0-1.3-0.1-2-0.1c0.7,1.3,1.3,2.3,1.8,3.4c0.5,1.2,0.8,2.4,1.2,3.6
		c0.4,1.2,0.8,2.5,1.5,3.3c1.7,1.7,1.8,2.7,0.1,4.2c2,0.8,3.1,3.1,2,5.1c-1.3,2.4,0,3.6,1.2,5.3c0.9-0.9,2-1.6,2.3-2.6
		c1.1-3.8,2-7.8,2.9-11.7c1.1,0,2.2,0,2.7,0c0.9,2.7,1.7,5,2.6,7.2c0.2,0.5,0.7,0.8,1.1,1.3c0.2-0.5,0.6-1.1,0.6-1.6
		c-0.6-3.1-0.6-6.1,0.5-9.2c0.8-2.3,1.2-4.7,1.8-7.1c0.7-2.8,1.6-5.5,2.4-8.4c1.5,0.3,3.4-1.2,4.2,1.5c0.5,1.6,0.7,3.3,1.3,4.9
		c0.4,1.1,1.3,2.1,1.9,3.1c0.2-0.1,0.4-0.3,0.6-0.4c0.1,0.9,0.2,1.7,0.4,2.6c0.1,0,0.2,0,0.4,0c0.1-0.9,0.3-1.9,0.4-2.8
		c1.4-0.1,2.7-0.2,4.5-0.3c-2-5.6-1.7-11.1-0.2-16.7c-1.6,0-2.6,0.1-3.5,0c-0.4,0-0.7-0.5-1-0.8c0.3-0.3,0.6-0.9,0.9-1
		c2.5-0.1,4.9,0,7.5,0c0,2,0,3.5,0,5c0.2-0.1,0.3-0.3,0.5-0.4c1.6,2,3.3,3.8,4.7,5.9c0.9,1.4-0.3,3.3-1.9,3.4
		c-0.7,0.1-1.4,0.1-2.5,0.2c1.7,2,3.1,3.6,4.4,5.2c1.1,1.8-0.2,3-1.2,4.5c-0.4,0.6-0.1,2-0.1,3c1.1-0.1,2.6,0.3,3.1-0.3
		c3.9-5.2,8.7-7.9,14.6-7.9c5.4,0,10.7,0,14.5,0c4.3-3.2,5-8.1,9.6-9.3c-1-2.6,2.1-6.6-2.8-8.1c-0.9-0.3-1.8-3.5-1.4-4.9
		c0.5-1.9,0.6-5.3,3.5-4.4c0.8-1.2,1.2-2.5,2-3c2.3-1.4,3.8-3.3,4-6.4c0.1-0.8,0.2-1.7,0.6-2.3c1.9-2.8,2.5-5.9,2.8-9.3
		c0.3-3.4,2-4.7,3.7-3.6c1.1-0.8,2.1-1.3,2.9-2.2c2.1-2.6,3.7-6.1,6.2-7.8c2.7-1.7,4.2-4.5,6.2-6.7c0.7-0.7,1.1-2.2,1.1-3.3
		c0-6.2-0.2-12.4-0.4-18.6c0-1.4-0.2-2.9-0.4-4.3c-0.5-3-2-6.1,1-8.3c1.4-0.1,2.9-0.2,4-1c3.2-2.3,6.6-4.2,9-7.7
		c0.9-1.3,1.9-2.4,2.9-3.6c-0.1-0.2-0.3-0.4-0.4-0.5c0.7-0.2,1.4-0.4,2.2-0.6c-0.2-0.8-0.4-1.4-0.4-2c-0.4-4.2,0-4.7,3.6-5.3
		c0.6-0.1,1.5-0.6,1.7-1.2c1.2-3.4,3.5-5.2,6.3-6.4c2.3,2,2.6,1.9,3.8-0.9c0.2-0.5,0.8-0.7,1.2-1c3.1-2.6,6-5.3,6.6-10
		c0.1-1.3,0-2.6,0-4.1c0.7,0.2,1.2,0.4,1.7,0.6c0.6,0.2,1.2,0.3,1.8,0.5c0.7-3.5,0.8-3.4,3.9-5c0.8-0.4,1.4-1.6,1.6-2.6
		c0.3-1.3,0.1-2.7,0.1-4c-3-0.6-4-2-3.7-4.9c3.5,0,7,0,10.8,0c-0.2,1.7-0.5,3.5-0.7,5.4c1.1,0,2.3,0,3.6,0c0.2-1.1,0.3-2.1,0.4-3
		c1.5,0,2.8,0,4.2,0c0.1,0.3,0.3,0.5,0.4,0.8c-0.8,0.7-1.6,1.4-1.9,1.6c-0.9,1.9-1.6,3.3-2.2,4.8c-0.2,0.5,0.1,1.4,0.5,1.9
		c0.4,0.6,1,1.2,1.6,1.6c2.3,1.6,4.6,3.5,7.4,1.2c0.5-0.4,1.1-0.4,1.9-0.6c0.1,1.6,0.1,2.9,0.2,4.5c2.5,0,4.9,0,7.3,0
		c0.7,0,1.8,0,2,0.4c1.1,2.5,3.1,0.6,4.5,1.3c2,1,3.3,0.6,4.2-1.8c0.1-0.2,0.5-0.3,0.8-0.4c1.5-0.6,3.1-1.3,4.7-2
		c-0.3-0.8-0.4-1.4-0.7-1.9c-1.1-2-1.4-3.9-0.4-6.3c1.3-3.2,2.4-6.5,4.9-9c1.8-1.7,1.6-5.9,5.5-5.1c1.7,0.3,3.5-0.9,5.3-1
		c5.9-0.3,11.8-0.4,17.8-0.5c1.2,0,2.3,0.7,3.5,0.9c1.3,0.3,2.6,0.8,3.8,0.7c7.3-0.5,14.5,0.2,21.2,3.9c1.2,0.7,1.9,0.7,1.5-1.2
		c-0.2-1.3-0.2-2.6-0.3-3.9c0.1,0,0.1,0,0.2,0c0.1,0.9,0.3,1.9,0.3,2.4c1.9-0.3,3.5-0.5,4.7-0.7c1.9,2.7,3.4,5,5.1,7.2
		c0.7,0.9,1.8,1.4,2.5,2.3c1.9,2.6,3.6,5.3,5.4,8c0.1,0.1-0.1,0.5-0.2,1.5c-1.6-1.5-3-2.7-4.9-4.4c0.3,2.2,0.7,4,0.8,5.8
		c0.1,2.6,1.1,2.1,2.6,1.5c1.7-0.6,3.6-0.7,5.4-1.1c1.4-0.8,3-1.4,4.5-2.1c0.6-0.3,1.6-0.8,1.6-1.2c-0.1-3.2,1.6-5.5,3.2-7.7
		c0.4-0.5,0.7-1.4,1.1-1.5c2.8-0.1,5.6-0.1,7.9-0.1c0.9,1.9,1.8,3.7,2.8,5.7c0.8-0.9,1.2-1.3,1.4-1.5c1.9,1.7,3.7,3.4,5.5,4.9
		c0.4,0.3,1.1,0.2,1.6,0c1-0.2,2.1-0.9,3.1-0.8c1.7,0.1,3.3,1.1,5,1c7.9-0.4,15.8,1.2,23.6-0.9c2.5-0.7,5,0.4,7.5,1.8
		c2.7,1.4,3,3.6,2.3,5.5c-1.3,3.5-0.4,7-0.8,10.4c-0.2,2-0.8,3.9-1.3,6.4c0.1,1.2,0.1,3.1,0.4,5c0.2,1.2,0.4,2.5,1,3.3
		c2.2,2.9,2.5,4.6,1,7.8c4,1.3,4.1,1.7,4.8,6.7c0.2,1.3,1.5,2.3,2.3,3.4c0.5,1.9,0.5,4,0.5,6.2c0.1,1.9,1.9,3.7,2.7,2.6
		c2.2-3.1,6.4-4.6,6.3-9.6c0-0.4,0.3-1,0.6-1.3c1.8-1.8,3.6-3.9,5.7-5.2c3.1-1.9,5-5.7,8.7-6.9c2.1-0.8,3.9-3.9,5.9-4
		c4.6-0.2,9.5-1.9,13.8,1.6C1229.3,231.5,1229.9,231.3,1230.3,231.3z M978.7,205.1c-3.2-0.6-3.2-0.6-5.3,1.8
		c-1.2,1.4-2.5,2.7-3.6,4.1c-2.2,2.7-4,6.2-6.6,7.9c-4,2.4-5.1,5.7-5,10.4c0,1-0.9,2.3-1.7,3c-1.6,1.2-3.1,2.9-5.4,2.4
		c-0.4-0.1-1.2,0.8-1.3,1.4c-0.6,2.4-2.3,2.7-4.1,2.9c-0.9,0.1-1.9,0.1-2.7,0.5c-3.8,2-5.7,6.8-9.7,8.7c-0.5,0.2-0.9,1.2-0.9,1.7
		c0,0.5,0.7,1.2,1.2,1.3c5.7,1.9,11.3,3.9,17.4,3.5c4-0.3,5.8-1.9,5.7-6.4c0-2.1,0.6-3.5,1.8-5c1.6-2,2.7-4.6,4.2-6.7
		c0.5-0.8,1.6-1.6,2.4-1.6c2.7-0.1,4.7-1.2,6.5-3.5c0.6-0.8,1.4-1.7,2.3-2c4.5-1.7,6.1-5.6,6-10.5
		C979.7,214.3,979.1,209.7,978.7,205.1z M995.9,207.9c0-0.1,0-0.2-0.1-0.2c-1.7-0.1-3.4-0.2-5.2-0.4c-0.7-3.5-4-5.7-6.9-4.5
		c-0.8,3.3-1.5,6.5-2.3,9.9c1.6,1.3,2,9.8,0,13.6c1.3-0.3,2.4-1,3.2-0.7c3.4,1.3,6.5-0.5,9.4-1.5c2.5-0.9,5.9-0.6,7.2-4.3
		c0.1-0.3,1-0.3,1.6-0.3c3.1,0.2,6.1,0.5,9.1,0.8c1-3.2,1.9-6.1,2.8-9c-0.2-0.2-0.4-0.4-0.6-0.6c-0.7,0.6-1.4,1.3-2.2,1.7
		c-0.4,0.2-1.1,0-1.6-0.4c-0.6-0.4-1-1.5-1.5-1.6c-3.2-0.5-6.5-0.7-9.7-1.2C998,209,996.9,208.3,995.9,207.9z M929.3,277
		c5.2-6.7,11.1-11.9,13.8-19.6c-3.7-1.3-7.9-2.9-12.1-4.3c-0.8-0.3-1.8,0.1-2.8,0.2C928.6,261.1,928.9,268.6,929.3,277z
		 M1090.9,188.1c-0.2,0-0.5-0.1-0.7-0.1c0.5,5.8,1,11.7,1.5,17.7c2.2-0.6,3.8-1.1,5.1-1.4c-0.2-3.4-0.4-6.5-0.6-9.6
		c-0.1-0.7-0.4-1.4-0.8-1.9C1094,191.2,1092.5,189.7,1090.9,188.1z M846.5,354.5c-1.3,4.7-1,6.1,1.5,7.7
		C849.2,356.9,848.9,355.1,846.5,354.5z M1116.9,197.2c0.2,0.2,0.4,0.3,0.6,0.5c0.6-0.8,1.9-1.7,1.8-2.4c-0.2-1.4-1.1-2.6-1.7-3.9
		c-0.2,0.1-0.4,0.2-0.7,0.3C1116.9,193.6,1116.9,195.4,1116.9,197.2z M797.1,359.6c0.3-0.1,0.6-0.2,0.8-0.3c0.5-1.3,1.6-2.8-0.4-3.8
		c-0.5-0.3-1.2-0.1-1.8-0.1C796.2,356.9,796.6,358.3,797.1,359.6z M787.5,378.5c2.1-3.7,2-4-1.6-4.9
		C786.5,375.3,786.9,376.6,787.5,378.5z"/>
	<path class="st1" d="M1230.3,231.3c-0.5,0-1,0.1-1.4-0.1c-4.3-3.5-9.2-1.8-13.8-1.6c-2,0.1-3.8,3.2-5.9,4c-3.6,1.3-5.5,5-8.7,6.9
		c-2.1,1.3-3.8,3.4-5.7,5.2c-0.3,0.3-0.6,0.9-0.6,1.3c0,5-4.1,6.5-6.3,9.6c-0.7,1-2.6-0.7-2.7-2.6c-0.1-2.2,0-4.4-0.5-6.2
		c-0.8-1.1-2.1-2.2-2.3-3.4c-0.7-5-0.8-5.3-4.8-6.7c1.5-3.1,1.1-4.9-1-7.8c-0.6-0.8-0.9-2.2-1-3.3c-0.3-1.9-0.3-3.8-0.4-5
		c0.5-2.5,1-4.4,1.3-6.4c0.4-3.4-0.5-6.9,0.8-10.4c0.7-1.9,0.5-4.1-2.3-5.5c-2.6-1.3-5-2.5-7.5-1.8c-7.8,2.1-15.7,0.5-23.6,0.9
		c-1.6,0.1-3.3-0.8-5-1c-1-0.1-2,0.6-3.1,0.8c-0.5,0.1-1.2,0.3-1.6,0c-1.8-1.5-3.6-3.2-5.5-4.9c-0.2,0.2-0.6,0.6-1.4,1.5
		c-0.9-1.9-1.8-3.7-2.8-5.7c-2.3,0-5.1-0.1-7.9,0.1c-0.4,0-0.8,0.9-1.1,1.5c-1.6,2.3-3.3,4.5-3.2,7.7c0,0.4-1,0.9-1.6,1.2
		c-1.5,0.7-3.1,1.3-4.5,2.1c-1.8,0.3-3.7,0.4-5.4,1.1c-1.6,0.6-2.6,1.1-2.6-1.5c0-1.8-0.5-3.6-0.8-5.8c1.9,1.7,3.2,2.9,4.9,4.4
		c0.1-1,0.3-1.3,0.2-1.5c-1.8-2.7-3.5-5.4-5.4-8c-0.7-0.9-1.8-1.4-2.5-2.3c-1.7-2.2-3.2-4.5-5.1-7.2c-1.1,0.2-2.8,0.4-4.7,0.7
		c-0.1-0.5-0.2-1.5-0.3-2.4c-0.1,0-0.1,0-0.2,0c0.1,1.3,0,2.6,0.3,3.9c0.3,1.9-0.3,1.9-1.5,1.2c-6.7-3.7-13.8-4.4-21.2-3.9
		c-1.3,0.1-2.6-0.4-3.8-0.7c-1.2-0.3-2.3-0.9-3.5-0.9c-5.9,0.1-11.8,0.2-17.8,0.5c-1.8,0.1-3.6,1.3-5.3,1c-3.9-0.8-3.7,3.4-5.5,5.1
		c-2.5,2.5-3.6,5.8-4.9,9c-1,2.4-0.7,4.3,0.4,6.3c0.3,0.5,0.4,1.1,0.7,1.9c-1.6,0.7-3.2,1.3-4.7,2c-0.3,0.1-0.7,0.2-0.8,0.4
		c-0.8,2.4-2.2,2.8-4.2,1.8c-1.4-0.7-3.4,1.2-4.5-1.3c-0.2-0.4-1.3-0.4-2-0.4c-2.4,0-4.8,0-7.3,0c-0.1-1.7-0.2-2.9-0.2-4.5
		c-0.7,0.2-1.4,0.3-1.9,0.6c-2.8,2.3-5.1,0.5-7.4-1.2c-0.6-0.4-1.2-1-1.6-1.6c-0.3-0.5-0.6-1.4-0.5-1.9c0.5-1.5,1.3-2.9,2.2-4.8
		c0.3-0.2,1.1-0.9,1.9-1.6c-0.1-0.3-0.3-0.5-0.4-0.8c-1.3,0-2.7,0-4.2,0c-0.1,0.9-0.3,1.8-0.4,3c-1.3,0-2.5,0-3.6,0
		c0.3-1.9,0.5-3.7,0.7-5.4c-3.8,0-7.3,0-10.8,0c-0.3,2.9,0.6,4.3,3.7,4.9c0,1.3,0.2,2.7-0.1,4c-0.2,1-0.9,2.2-1.6,2.6
		c-3.1,1.6-3.1,1.5-3.9,5c-0.6-0.2-1.2-0.3-1.8-0.5c-0.5-0.2-1-0.3-1.7-0.6c0,1.5,0.1,2.8,0,4.1c-0.5,4.7-3.4,7.5-6.6,10
		c-0.4,0.3-1,0.6-1.2,1c-1.2,2.8-1.5,2.9-3.8,0.9c-2.8,1.3-5.1,3-6.3,6.4c-0.2,0.6-1.1,1-1.7,1.2c-3.7,0.7-4,1.2-3.6,5.3
		c0.1,0.6,0.3,1.2,0.4,2c-0.8,0.2-1.5,0.4-2.2,0.6c0.1,0.2,0.3,0.4,0.4,0.5c-1,1.2-2,2.3-2.9,3.6c-2.4,3.5-5.8,5.4-9,7.7
		c-1.1,0.8-2.7,0.9-4,1c-3,2.3-1.4,5.4-1,8.3c0.2,1.4,0.4,2.9,0.4,4.3c0.2,6.2,0.4,12.4,0.4,18.6c0,1.1-0.4,2.6-1.1,3.3
		c-2.1,2.2-3.5,5-6.2,6.7c-2.5,1.6-4.1,5.2-6.2,7.8c-0.7,0.9-1.8,1.4-2.9,2.2c-1.7-1.1-3.4,0.2-3.7,3.6c-0.3,3.4-1,6.6-2.8,9.3
		c-0.4,0.6-0.5,1.5-0.6,2.3c-0.3,3-1.7,4.9-4,6.4c-0.8,0.5-1.2,1.8-2,3c-2.9-1-3,2.5-3.5,4.4c-0.4,1.4,0.6,4.6,1.4,4.9
		c4.8,1.4,1.8,5.5,2.8,8.1c-4.6,1.1-5.4,6.1-9.6,9.3c-3.7,0-9.1,0-14.5,0c-5.9,0-10.8,2.7-14.6,7.9c-0.5,0.6-2,0.2-3.1,0.3
		c0-1-0.4-2.4,0.1-3c1.1-1.5,2.3-2.7,1.2-4.5c-1.4-1.6-2.8-3.3-4.4-5.2c1.1-0.1,1.8-0.1,2.5-0.2c1.6-0.1,2.8-2,1.9-3.4
		c-1.4-2.1-3.1-4-4.7-5.9c-0.2,0.1-0.3,0.3-0.5,0.4c0-1.5,0-3.1,0-5c-2.6,0-5,0-7.5,0c-0.3,0-0.6,0.6-0.9,1c0.3,0.3,0.6,0.8,1,0.8
		c1,0.1,1.9,0,3.5,0c-1.6,5.6-1.8,11,0.2,16.7c-1.8,0.1-3.1,0.2-4.5,0.3c-0.1,0.9-0.3,1.9-0.4,2.8c-0.1,0-0.2,0-0.4,0
		c-0.1-0.9-0.2-1.7-0.4-2.6c-0.2,0.1-0.4,0.3-0.6,0.4c-0.6-1-1.5-2-1.9-3.1c-0.6-1.6-0.8-3.3-1.3-4.9c-0.8-2.7-2.8-1.2-4.2-1.5
		c-0.8,2.9-1.7,5.7-2.4,8.4c-0.6,2.4-1,4.8-1.8,7.1c-1.1,3-1.1,6-0.5,9.2c0.1,0.5-0.4,1-0.6,1.6c-0.4-0.4-0.9-0.8-1.1-1.3
		c-0.9-2.2-1.6-4.5-2.6-7.2c-0.5,0-1.6,0-2.7,0c-1,3.9-1.8,7.9-2.9,11.7c-0.3,1-1.5,1.6-2.3,2.6c-1.2-1.7-2.6-2.9-1.2-5.3
		c1.1-2,0-4.3-2-5.1c1.7-1.5,1.5-2.4-0.1-4.2c-0.8-0.8-1.1-2.2-1.5-3.3c-0.5-1.2-0.7-2.5-1.2-3.6c-0.5-1.1-1.1-2.1-1.8-3.4
		c0.7,0,1.2,0.1,2,0.1c-0.2-3.3-2.5-4.4-4.4-5c-2.1-0.7-2.2-1.5-1.6-3.5c0.8-2.6,1.1-5.3-1-8c-1.1,1.6-2.4,3.1-3.3,4.8
		c-1.2,2.5-2.5,4.6-5.3,4.9c-0.4,0-1.1,1.1-1,1.4c0.2,0.6,0.9,1.4,1.3,1.4c1.4-0.1,2.8-0.5,4.2-0.8c0.1,0.2,0.2,0.4,0.3,0.7
		c-2.1,1.6-4.3,3.3-6.6,5.1c-0.7-0.1-1.8-0.1-2.8-0.2c0.5,5.3,1.9,10.5-2,15.2c-0.8-1.3-1.4-2.9-2.3-3.4c-1.1-0.6-2.6-0.3-3.9-0.3
		c0-0.3-0.1-0.6-0.1-0.8c0.7-0.1,1.5-0.1,2.2-0.5c0.9-0.5,2.2-1.1,2.4-1.9c0.3-1.2,0.9-3.1-1.1-3.9c-1-0.4-1.8-1.4-2.6-2.2
		c-2-1.8-3.2-3.8-3-7c0.2-2.5-0.6-5-0.8-7.6c-0.1-0.8-0.1-1.7,0.2-2.4c1.6-4.1,0.7-5.7-3.2-5.4c-1.4,2.6-2.8,5.1-4,7.7
		c-0.4,0.8-0.5,1.9-0.5,2.8c0.3,3.5-0.7,6.4-3,8.8c-0.5,0.6-0.9,1.7-0.9,2.5c-0.2,4.8-3.6,7.2-7.6,5.5c-1.6-0.7-3.3-0.9-5-0.9
		c3.7,1.4,7.3,4.4,11.4,1.7c-0.3,1.8-0.5,3.1-0.7,4.5c-0.1,0.5-0.3,1.2-0.6,1.3c-2.4,0.8-1.2,2.6-1,4.1c0.1,0.6,0.7,1.2,0.5,1.6
		c-0.9,2.5-2,4.9-3,7.4c-0.4,0.9-0.7,1.9-0.7,2.9c-0.1,3.5-1.1,4.8-4,3.8c-2.5-0.9-5.3-1.4-7.3-4c-1.1-1.5-3-2.4-4.3-3.8
		c-1-1.1-1.8-2.7-2-4.2c-0.1-0.6,1.6-1.6,2.5-2.4c0.3-0.2,0.7-0.2,1.6-0.4c-1.6-3.5-3-6.8-4.8-10.9c3.2,0.6,5.6,1,8.3,1.5
		c-1-2.6-8.5-2.7-10-0.4c-0.7-1.3-1.3-2.5-2.1-4c1,0.1,1.8,0.3,2.9,0.4c-1.3-4.8-2.6-9.3-3.9-13.9c-1.6,0.1-2.7,0.7-3.3,3
		c-0.8,2.7-2.4,5.1-3.6,7.6c-0.4,0.8-0.5,1.8-0.8,3c1.1-0.2,1.7-0.4,2.5-0.5c0.1,0.2,0.2,0.5,0.2,0.7c-0.9,3.4-1.9,6.5-5.3,7.9
		c-1,0.4-1.7,1.9-2.2,3.3c1.1-0.4,2.2-0.9,3.3-1.3c0,1.4-0.4,2.7,0.1,3.6c1.1,2.2,0.4,3.3-1.2,4.4c-0.4,0.3-0.6,0.9-1.1,1.8
		c1.1,0,1.8,0,2.5,0c-0.9,2.5-2,2.7-3.5,0.9c-1-1.2-2.1-2.3-3.1-3.5c0.1-0.2,0.3-0.4,0.4-0.6c-1.1,0-2.2,0-3.4,0
		c0-0.4-0.1-1-0.1-0.9c1.2-1,2-1.7,2.8-2.4c-0.8-0.8-1.4-1.9-2.3-2.3c-2.9-1.4-5.3,0.9-7.9,1.6c-2.8,0.8-5.6,2.4-8.4,2.5
		c-1.6,0.1-3.4-1.9-4.9-3.3c-1.6-1.6-2.9-3.5-4.2-5.5c-0.4-0.7-0.9-1.8-0.7-2.5c1.2-3.7-0.9-6.3-2.4-8.8c-1.5-2.5-2-4.4-1.1-7.5
		c1.2-4.5,3.9-8.5,3-13.7c-0.4-2.3-1.2-3.9-2.8-4.5c-5.9-2-11.8-4.1-17.8-5.4c-2-0.4-4.5,1.1-6.6,2.2c-2.1,1-4,2.5-6,3.9
		c-3.6,2.6-7.7,4.7-10.6,8.2c-1.9,2.3-3.8,1.5-5.7,2.2c0.1,1,0.3,1.8,0.4,2.7c-0.2-0.2-0.4-0.4-0.6-0.5c-1.1,1.1-2,2.6-3.3,3.4
		c-1.3,0.7-2.9,0.7-4,1.4c-1,1-2,2-3,2.9c-0.1-0.4-0.2-0.7-0.3-1.1c-1.3-0.1-2.6-0.3-3.8-0.2c-1.3,0.1-2.7,0.5-3.9,1
		c-2.6,1.1-5.2,2.4-7.8,3.7c-1.2,0.6-2.3,1.4-3.3,2c-0.4-3-0.9-5.5-1.1-8c-0.1-1.5-2.1-2.6-0.8-4.4c-0.9-0.8-1.8-1.6-2.7-2.4
		c-0.5,0.7-1.1,1.4-1.4,2.2c-1,2.2-1.9,4.4-2.9,6.6c-0.1,0.2-0.2,0.6-0.1,0.8c0.3,0.9,1.2,1.9,1,2.6c-0.3,0.8-1.3,1.3-2.1,1.9
		c-0.1,0.1-0.2,0.2-0.3,0.3c-1.6-1.4-2.9-3.3-4.7-4c-1.9-0.8-4.1-0.7-6.1-0.6c-2.2,0-3.4-1.1-3.3-3.7c0.1-1.7,0.2-3.5,0.1-5.2
		c0-0.8-0.4-1.5-0.8-2.8c-1,1.6-1.7,2.5-2.3,3.5c-0.6,1-1.2,2.1-1.9,3.3c-3.7-6.7-9.4-6.3-14.7-5.9c-1-1.3-1.8-2.5-3.1-4.2
		c0.3-1.5,0.3-1.5-1.5-3c0.1-1.7,0.6-3.1,0.2-4.1c-1-2.9-1.7-5.6-0.8-8.8c0.3-1.1-0.8-2.8-1.2-4.2c-0.1-0.5,0.1-1.2,0.2-1.8
		c0.2,0,0.4-0.1,0.6-0.1c-1.1-2.5-2.1-4.9-3.2-7.4c-3.2,0.6-4.3,3.8-6.1,6.1c-1.5,1.9-1.2,3,1.3,3.8c-1.5,2.3-3,4.5-4.6,6.9
		c-3-2.1-6.6-2.7-10.3-1.5c-0.5,0.2-0.9,0.5-1.3,0.8c-0.5,0.3-1.1,0.7-1.5,0.6c-3.4-0.8-6.3,0.2-7.9,3.9c-0.8,1.7-2,3.2-3.1,4.7
		c-1.2,1.8-1.7,3.5,0.4,5.1c-1.4,0.7-2.5,1.9-3.3-0.6c-0.2-0.6-0.9-0.9-1.4-1.5c-0.5-0.6-1.4-1.3-1.3-1.8c1-4.5-2.8-7-3.4-11.1
		c1.7-1.4,1.7-2.8,0.2-4.9c-0.8-1.1-2.2-3.5,0.3-4.2c-1.1-2.4-2-4.6-3.2-6.7c-0.3-0.5-1.4-1-1.8-0.8c-1.3,0.6-2.4,1.7-3.5,2.5
		c0.4,0.5,0.8,0.9,1.2,1.4c-0.6,1.7-2.5,2.7-2.2,5.3c0.1,1.1-1.4,2.4-2.1,3.6c-0.2,0.3-0.4,0.8-0.3,1c1.7,3.1-0.9,4.3-2.1,6.5
		c-2.1-3.8-4-7.4-6-11c-0.2-0.5-0.6-0.8-0.9-1.3c-0.3,0.5-0.6,0.9-0.8,1.4c-1.4,4.1-2.7,8.1-4,12.2c-0.3,0.9,0.2,2.1,0.3,3.4
		c-0.5,1.2-1.2,2.9-1.9,4.9c1,0.2,1.7,0.4,2.1,0.5c-0.8,2.9-1.6,5.8-2.5,8.6c-0.1,0.4-0.6,0.9-0.9,0.9c-2.9-0.1-3.6,2.7-4.8,4.7
		c-0.2,0.3-0.5,0.4-0.4,0.4c-1.4-2-2.7-3.9-4-5.9c1.9-0.4,2.5-2.5,1.3-4.7c-2-3.9-3.5-7.9-1.2-12.4c0.2-0.3-0.2-1.1-0.4-1.6
		c-0.5,0.2-1.4,0.3-1.6,0.7c-1.7,4.2-5.3,7.2-5.9,12.1c0,0.3-0.2,0.7-0.4,1c-1.5,2.3-3.3,4.4-2.4,7.7c0.1,0.5-0.4,1.1-0.6,1.8
		c-5-1.2-2.6-6.5-4.6-10c-0.5,0.7-1.4,1.3-1.4,1.9c-0.3,5.3-2.1,10-4.4,14.9c-2.1-3.5-0.9-7.4-1.5-11c-1.9,0.4-2,2.2-2.6,3.5
		c-0.6,1.4-1.6,2.7-2.6,4.4c-1.6-1.1-3.1-2.2-4.6-3.2c-2.4-1.6-4.7-3.5-7.8-2.1c-1,0.4-2,0.1-1.7-1.9c0.1-1-0.7-2.3-1.3-3.2
		c-0.5-0.8-1.4-1.3-2.1-1.9c0.3-0.1,0.7-0.3,1-0.4c0-1.4,0.5-3.1,0-4c-1.5-2.7-2.2-5.6-2.9-8.6c-0.1-0.5-0.4-0.9-0.9-1.9
		c-0.5,1-0.8,1.6-1.1,2.3c-1.1,3.1-2,6.2-3.2,9.2c-1,2.4-0.9,3.1,1.4,4c-0.6,1.1-1.1,2.1-1.8,3.3c-1.8-4-3.3-4.3-5.4-1.4
		c-2.4-0.6-2.4-3-2.9-5c-0.2-0.7,0.1-1.5-0.1-2.2c-0.3-0.7-0.8-1.5-1.4-1.9c-0.3-0.2-1.1,0.6-1.5,1.2c-0.8,1.3-1.5,2.7-2.6,4.6
		c-0.8-3.6-1.6-6.6-2.1-9.6c-0.2-1.2,0.1-2.6,0-3.9c-0.2-1.9-1-1.7-1.8-0.4c-0.3,0.5-0.6,1-0.8,1.6c-0.8,1.9-1.6,3.9-2.3,5.7
		c-2.3-4.3-4.3-8.2-6.3-12c-0.1-0.3-0.5-0.4-0.8-0.5c-3.5-0.8-7-1.6-10.5-2.2c-3.8-0.7-7.7-1-11.6-1.7c-4.4-0.8-8.7-1.8-13-2.7
		c-0.5-0.1-1.1,0.2-1.6,0.3c-1.9,0.3-3.4,0.3-4.1-2.6c-0.5-2.1-2.1-3.8-3.3-6c2.2-0.4,2.8-1.5,1.2-3.1c-1.9-1.8-1.3-4.3-1.2-6.4
		c0.1-2.5-0.4-4.5-1.5-6.5c-0.3-0.6-0.4-1.4-1.2-2.3c-1.1,4.1-2.2,8.3-3.3,12.5c-2.2-2.9-2.2-2.9-3.4-13c-3.1,3-2.9,7.4-4.8,10.8
		c-1.5-0.4-3.7,0.1-4.1-2.9c1.3-0.4,2.4-0.7,3.5-1.1c0-0.2,0-0.5,0-0.7c-1.1-0.8-2.2-1.5-3.4-2.4c1-0.6,1.7-1.1,1.9-1.2
		c-1.2-2.9-2.3-5.4-3.4-8.1c1.1-0.3,1.7-0.5,2.3-0.7c-0.2-0.6-0.4-1.3-0.6-1.9c-0.9-2.8-1.8-5.5-2.7-8.3c-0.2-0.6-0.4-1.3-0.7-2.4
		c-2,4.1-3.9,7.8-5.8,11.5c-0.3,0.5-0.6,1-1,1.4c-1.2,1.3-1.4,2.5,0.8,3.5c-1.3,1.6-2.5,3-3.6,4.5c-0.3,0.5,0,1.4-0.2,2.1
		c-0.3,1.4-0.5,2.9-1.2,3.9c-0.4,0.5-1.8,0.2-2.7,0c-2.1-0.5-4.2-1.1-6.3-1.4c-1-0.5-1.9-1.1-2.9-1.5c-2.9-1.3-5.8-2.7-8.8-3.8
		c-0.7-0.3-1.6,0.1-2.4,0.3c-1.8,0.5-3.7,1.2-5.5,1.5c-3.2,0.5-6.4,0.7-9.6,1c-0.8-4-1.5-7.6-2.3-11.2c-0.1-0.4-0.6-0.9-1-1
		c-0.4,0-0.8,0.5-1.1,0.9c-1.5,3-3.1,5.9-4.5,9c-0.4,1,0,2.6-0.6,3.3c-1.7,2.4-2,5.4-3.2,8c-0.4,0.8-1.1,1.5-1.7,2.2
		c-4.2-1.7-7.1-5.2-8.6-9.6c-0.7-2.1-1.8-4.6-0.6-7.6c1-2.4,1-5.3-0.9-7.9c-1.2-1.7-1.7-4.3-2-6.6c-0.2-1.8-0.7-2.7-2.1-3.4
		c-3.4-1.7-6.7-3.5-10.1-5.4c-1.8-1-3.9-2-2.1-5.2c0.2-0.4-0.5-1.4-0.8-2.1c-0.8-3-1.6-6-2.6-9.6c-2.6,3-3.1,7.2-5.2,10.3
		c-1.3-1.1-2.9-2.2-4.1-3.7c-1.1-1.5-1.7-3.5-2.4-4.9c-1.3,3.2-2.5,6.2-3.8,9.1c-0.6,1.3-0.9,2.4,0.8,2.8c-1.7,2.6-2.3,2.7-4.3,0.5
		c-2.5-2.7-7.5-3.3-10.7-2.1c-1.4,0.5-3.7-0.2-4.8-1.3c-1.5-1.6-2.2-4.2-3.3-6.3c-0.3-0.6-0.9-1.5-1.3-1.5c-3.9,0-7.3-3-11.4-1.6
		c-2.2,0.7-3-2.2-4.4-3.4c-0.5-0.5-0.9-1.1-1.5-1.9c1.4-2.3,1.3-5-0.2-7.9c-0.5-1.1,0-2.8,0.1-4.2c0-1.1,0.3-2.3-0.1-3.2
		c-0.9-1.9-2.1-3.4-1.4-6.1c0.4-1.3-1.3-3.5-2.2-5.2c-0.5-1-1.3-1.9-1.9-2.9c-0.2,0.1-0.5,0.1-0.5,0.2c-1.4,2.8-2.7,5.6-4.1,8.3
		c-0.8,1.5-0.7,2.5,1.5,3.2c-1.4,2.2-2.7,4.3-4.1,6.2c-0.3,0.4-1.2,0.2-1.8,0c-5.9-2.3-11.5-0.1-16.9,2.1c-3.2,1.3-3.9,5.6-5.6,8.7
		c-0.7,1.2-0.6,2.9-0.9,4.4c0.2,0.1,0.4,0.2,0.6,0.3c-0.2,0.2-0.5,0.6-0.5,0.5c-1.6-1.4-4.6-2.9-4.6-4.3c0.1-3.7-1.5-6-3.1-8.6
		c-0.2-0.3-0.6-0.9-0.5-1.1c1.2-3.6-1.1-6.7-1.1-10.1c0-0.7-0.4-1.5-0.9-2c-1.4-1.5-2.8-2.8-1.6-5.3c0.2-0.4,0-1.2-0.1-2.4
		c-0.9,1.1-1.7,1.8-2.1,2.6c-1.2,2.2-2.4,4.4-3.4,6.7c-0.3,0.6,0.1,1.5,0.1,2.3c-0.9,1.5-1.9,3.2-3.1,5.1c0.8,0.4,1.4,0.7,2.1,1
		c-0.6,0.7-1.1,1.2-1.5,1.9c-0.4,0.6-1,1.6-0.8,1.9c1.7,2.7-0.3,4.1-1.4,5.8c-4.5-2.2-9.1-4.5-13.6-6.6c-3.8-1.7-7.5-1.5-11.2,1.2
		c-3.5,2.6-7.2,4.7-10.7,7.2c-1,0.7-1.7,2-2.2,3.2c-0.7,1.4-1.2,3-1.4,4.6c-0.2,1.6,0.1,3.3,0.2,5.8c-1.3,1.8-3.2,2.6-5.8,1.3
		c-4.7-2.3-9.2-4.7-13.9-7.1c-0.4-0.2-0.9-0.6-1.3-0.6c-5.6,0.5-11.4-1.5-16.8,1.6c-1.6,0.9-2.9,2.5-4.2,3.8
		c-1.7,1.7-3.3,3.5-5.3,5.6c0-4.4,0-8.4,0-12.6c-1.6,0-3.1,0-5.1,0c-0.3-3-0.6-5.7-0.7-8.5c-0.1-2.9,0-5.8,0-9
		c-1.9-0.1-3.7-0.2-5.4-0.3c-0.5-4-1-7.7-1.5-11.7c-1,0-2.1,0-3.5,0c0,4.1,0,8.2,0,12.3c0,3.3,0,6.6,0,9.9c0,1.3-0.1,2.2-1.2,3.4
		c-0.9,0.9-0.4,3.7-0.4,5.6c0,0.3,0.6,0.7,0.6,1.1c0.4,2.9,0.7,5.8,1,8.7c0.3,2.3,0.7,4.5,0.9,6.8c0.1,1.5,0,3.1,0,4.5
		c-10.6-1.2-21.1-2.4-31.5-3.6c0-92.8,0-185.5,0-278.3c412.2,0,824.4,0,1236.7,0C1230.3,63.8,1230.3,147.5,1230.3,231.3z M787.5,351
		c1.8-2.3,0.9-3.5-1.2-5C786.8,348.2,787.2,349.6,787.5,351z"/>
	<path class="st1" d="M978.7,205.1c0.3,4.6,0.9,9.2,1,13.8c0,4.8-1.5,8.8-6,10.5c-0.9,0.3-1.7,1.2-2.3,2c-1.7,2.3-3.8,3.4-6.5,3.5
		c-0.8,0-1.9,0.8-2.4,1.6c-1.5,2.2-2.6,4.7-4.2,6.7c-1.2,1.5-1.8,2.9-1.8,5c0.1,4.5-1.7,6.2-5.7,6.4c-6.1,0.4-11.7-1.6-17.4-3.5
		c-0.5-0.2-1.2-0.8-1.2-1.3c0-0.6,0.4-1.5,0.9-1.7c4-1.8,5.9-6.6,9.7-8.7c0.8-0.4,1.8-0.5,2.7-0.5c1.8-0.1,3.5-0.4,4.1-2.9
		c0.2-0.6,1-1.5,1.3-1.4c2.3,0.5,3.8-1.2,5.4-2.4c0.8-0.6,1.7-2,1.7-3c-0.1-4.6,1-7.9,5-10.4c2.7-1.6,4.4-5.2,6.6-7.9
		c1.2-1.4,2.4-2.7,3.6-4.1C975.5,204.5,975.5,204.5,978.7,205.1z"/>
	<path class="st1" d="M995.9,207.9c1,0.4,2,1,3.1,1.2c3.2,0.5,6.5,0.7,9.7,1.2c0.6,0.1,0.9,1.2,1.5,1.6c0.4,0.3,1.2,0.6,1.6,0.4
		c0.8-0.4,1.5-1.1,2.2-1.7c0.2,0.2,0.4,0.4,0.6,0.6c-0.9,2.9-1.8,5.9-2.8,9c-3-0.3-6-0.6-9.1-0.8c-0.5,0-1.5,0-1.6,0.3
		c-1.4,3.7-4.7,3.4-7.2,4.3c-3,1.1-6,2.8-9.4,1.5c-0.8-0.3-1.8,0.4-3.2,0.7c2-3.8,1.7-12.3,0-13.6c0.8-3.3,1.5-6.6,2.3-9.9
		c2.9-1.2,6.3,1,6.9,4.5c1.7,0.1,3.5,0.2,5.2,0.4C995.9,207.8,995.9,207.8,995.9,207.9z"/>
	<path class="st1" d="M929.3,277c-0.4-8.3-0.7-15.9-1.1-23.7c1-0.1,2-0.5,2.8-0.2c4.2,1.4,8.4,3,12.1,4.3
		C940.4,265.1,934.6,270.2,929.3,277z"/>
	<path class="st1" d="M1090.9,188.1c1.5,1.6,3.1,3.1,4.5,4.7c0.4,0.5,0.8,1.2,0.8,1.9c0.3,3.1,0.4,6.2,0.6,9.6
		c-1.3,0.4-2.9,0.8-5.1,1.4c-0.5-6-1-11.9-1.5-17.7C1090.5,188.1,1090.7,188.1,1090.9,188.1z"/>
	<path class="st1" d="M846.5,354.5c2.4,0.6,2.7,2.3,1.5,7.7C845.5,360.6,845.2,359.2,846.5,354.5z"/>
	<path class="st1" d="M1116.9,197.2c0-1.8,0-3.6,0-5.4c0.2-0.1,0.4-0.2,0.7-0.3c0.6,1.3,1.5,2.5,1.7,3.9c0.1,0.7-1.2,1.6-1.8,2.4
		C1117.2,197.5,1117.1,197.4,1116.9,197.2z"/>
	<path class="st1" d="M797.1,359.6c-0.5-1.4-0.9-2.7-1.4-4.1c0.6,0,1.3-0.2,1.8,0.1c2,1,0.9,2.4,0.4,3.8
		C797.7,359.4,797.4,359.5,797.1,359.6z"/>
	<path class="st1" d="M787.5,378.5c-0.6-1.9-1.1-3.2-1.6-4.9C789.5,374.5,789.6,374.8,787.5,378.5z"/>
	<path class="st1" d="M787.5,351c-0.3-1.4-0.7-2.8-1.2-5C788.4,347.5,789.3,348.7,787.5,351z"/>
</g>
<rect x="-6.3" y="728.8" class="st2" width="1230.3" height="86.3"/>
<g>
	<path class="st3" d="M1227.6,792.1c-0.1,0.2-0.2,0.5-0.2,0.5c-0.6,0-1.3,0-1.9,0c-411.5,0-823,0-1234.5,0c0-267.7,0-535.5,0-803.3
		c412.2,0,824.4,0,1236.7,0c0,162,0,324,0,486.1c-3.1,1.7-5.4,6.1-5.1,10c0.8-0.8,1.6-1.6,2.8-2.7c-0.1,0.9,0,1.5-0.2,1.8
		c-1.8,2.6-3.7,5.2-5.6,7.8c-0.4,0.6-1.1,1.2-1.2,1.9c-0.2,1.1-0.1,2.3-0.1,3.7c0.8,0.1,2.2,0.1,3.6,0.2c1.1,2.8,0.3,4.4-1.8,5.5
		c-0.2-1-0.4-1.9-0.7-3c-1.1,0.7-2.5,1-2.7,1.8c-0.9,2.7-2.9,1.6-4,1.2c-1-0.3-1.6-2.2-2.4-3.4c0.2-0.2,0.3-0.3,0.5-0.5
		c0.4,0.2,0.8,0.4,1.6,0.8c-0.9-2.2-1.7-3.9-2.3-5.8c-0.6-1.9,0.6-4.4-1.6-6.7c-0.7,1.8-1.4,3.1-1.6,4.5c-0.2,1.5-0.1,3.1-0.1,4.6
		c-0.2-0.2-0.4-0.4-0.6-0.5c-1.4,0.8-3.2,1.2-4,2.5c-0.6,1,0.3,3,0.5,4.6c-4.4,0.7-5.4,0.5-5.8-1.2c-0.1-0.3,0.1-0.6,0.2-1.1
		c0.7,0.5,1.2,0.8,1.4,0.9c-0.3-3-0.7-6.1-1-9.1c-1.6,1.4-3.3,3-5,4.7c-0.4,0.4-0.3,1.3-0.5,2c-0.3,1.3-0.4,3.1-1.2,3.7
		c-0.8,0.7-2.4,0.9-3.2-1c-0.6-1.4-1.4-2.6-1.8-3.3c-1.1-0.1-1.8-0.1-2.5-0.2c0.4-0.7,0.6-1.9,1.1-2.1c2.8-0.8,2.3-3.3,2.2-5.5
		c-0.2-4.3-0.4-8.5-0.7-12.9c-1.8-0.4-6.9,4.9-7,8.1c0.6,0,1.3-0.1,2.5-0.2c-3.2,3.4-6.7,5.9-5.5,10.6c-1.3,0.9-2.1,1.5-3,2.1
		c-1.8,1.2-3.6,2.4-5.4,3.5c-0.3,0.2-1.2-0.7-1.5-1.3c-0.4-0.6-0.4-1.5-0.5-2.2c-1.2,0.6-2.3,1.1-3.3,1.7c-0.5,0.3-1.3,0.8-1.3,1.3
		c-0.1,1.8-1.1,1.8-2.2,1.8c-3.9,0-7.7-0.2-11.6,0.1c-3,0.2-5.3-0.7-7.2-3.3c1-1,1.8-2.2,2.9-2.8c1.2-0.7,2.6-0.9,3.9-1.3
		c-0.3-0.2-0.5-0.3-0.8-0.5c-0.1-2.3-0.3-4.6-0.5-7.2c1.7,0.8,3,1.9,3.9,1.6c3-1,4.2-6.8,2.2-10c2.9-1.2,0.3-2.4,0-3.6
		c2.2-0.3,1.9-1.8,1.1-3.2c-0.6-1.1-1.4-2.1-2.3-2.8c-1.1-0.9-1.6-1.7-1-3.4c0.9-2.6-1.2-3.9-2.3-5.7c-0.2-0.4-1.1-0.2-1.4-0.3
		c-0.3-0.8-0.7-1.7-1-2.6c-0.2-0.7-0.4-1.9-0.2-2c1.9-1.2,1.6-2.8,1-4.7c-0.3-1.2-0.5-2.5-0.3-3.7c0.5-2.6,0.5-4.6-2.2-5
		c-0.3-2.9-0.3-2.9-1.9-2.9c-0.9,2.5-1.8,4.9-2.5,7.4c-0.4,1.4-0.4,3-0.6,4.5c0.2,0,0.3,0.1,0.5,0.1c-0.3,1.2-0.6,2.4-1,4.4
		c1-0.9,1.4-1.2,1.8-1.5c0.2,0.1,0.3,0.2,0.5,0.3c-0.5,1.7-1.1,3.4-1.6,5.1c-0.3,0.9-0.9,2.3-0.6,2.8c1.5,2.3,0.2,4.3-0.5,6
		c-1.5,3.4-2.3,7-2.7,10.8c-0.2,1.6-0.2,3.6-2.3,4.3c-1.2,0.4-2,1.9-3.1,2.9c0.1,0.2,0.2,0.4,0.4,0.6c-2.4,0-4.7,0-7.5,0
		c0.3-3.6,0.6-6.9,0.8-10.2c0.1-2,0.2-4.1,0.1-6.2c-0.1-1.5-0.7-3-0.7-4.5c0-3.2,0.2-6.4,0.3-9.7c0-0.6-0.4-1.2-0.7-2
		c-1.6,2.2-2.6,4.2-3.8,6c-2,3.1-1.6,6.9-3,10.1c-1.5,3.3-4.6,5-5.1,8.8c-0.7,6.1-2.6,11.6-6.3,16.3c-2.5-1.6,0.3-2.4,0.3-3.4
		c-1.2-2.3-2.4-4.5-3.5-6.8c-0.3-0.6-0.2-2.1,0-2.2c1.7-0.5,0.9-1.8,0.7-2.9c-0.1-0.8-0.4-1.6-0.4-2.4c-0.2-2.4-0.3-4.7-0.4-7
		c-1.6,2.6-3.2,4.9-4.6,7.4c-0.5,0.9-0.7,2.2-0.8,3.4c-0.1,1.7,0,3.4,0,4.7c-2.3,0.9-4.1,1.6-6,2.2c0.1,0.3,0.1,0.6,0.2,0.9
		c0.4,0.2,0.9,0.4,0.8,0.4c-0.7,3.4-1.3,6.5-2,10.2c-2.3,3.5-6.2,2.5-9.9,2.5c-6.1,0-12.2,0-18.3,0c-3.7,0-7.4,0-11.1,0
		c-1.4,0-2.5-1.3-1.9-2.2c1.3-2.2,0.3-3.4-1-4.1c-1.6-0.9-2.9-0.2-3.7,2.1c-0.6,1.7-2.1,3.6-3.5,4.1c-2,0.7-4.3,0.2-6.5,0.2
		c-0.2-1.9-0.3-3.4-0.5-5c-0.1-0.5-0.5-1.5-0.7-1.5c-0.5,0-1.2,0.4-1.6,0.8c-0.4,0.5-0.7,1.3-0.8,2c-0.6,3.1-2.3,3.7-4.8,3.7
		c-14.6-0.1-29.3,0-43.9-0.1c-0.8,0-1.7-0.1-2.8-0.2c0.2-1.3,0.4-2.2,0.5-2.5c1,0.4,1.9,0.8,2.8,1.1c0-1.1,0-2.2-0.1-3.2
		c-0.1-0.7-0.2-1.5-0.4-2.2c-0.4-2.2-0.9-4.4-1.3-6.5c-0.1-0.5-0.2-1-0.3-1.6c0.6,0,1.1,0,1.7,0c-0.5-1.4-1.6-2.9-1.2-3.6
		c1.1-2.3,1.4-4.2-0.8-6.6c1.3,0.6,2,0.9,2.7,1.2c0.1-0.2,0.3-0.4,0.4-0.6c-1.1-1.3-2.2-2.5-3.2-3.8c-0.7-0.9-1.3-1.9-1.9-2.9
		c-0.3-0.5-0.6-1-1-1.6c-0.4,0.5-0.9,0.9-1.2,1.5c-1.4,2.6-2.7,5.3-4.1,8c-0.7,1.5-1.4,3-2.1,4.5c0.2,0.1,0.4,0.3,0.7,0.4
		c0.8-0.8,1.6-1.6,2.9-2.9c-0.2,1.2-0.2,1.9-0.5,2.3c-1.9,2.6-3.8,5.2-5.7,7.7c-0.4,0.5-0.8,1.1-0.9,1.8c-0.2,1.1-0.2,2.2-0.2,3.5
		c0.9,0.1,2.4,0.2,3.7,0.3c1,3.3,1,3.3-1.8,5.6c-0.2-1-0.4-1.9-0.8-3.5c-1.4,1.5-2.3,2.9-3.6,3.6c-2.4,1.5-4.6-0.4-5.1-4
		c0.5,0.2,0.9,0.4,1.7,0.7c-0.9-2.2-1.8-3.9-2.3-5.9c-0.4-1.9-0.4-3.9-0.5-5.9c-0.4-0.1-0.8-0.1-1.2-0.2c-0.5,1.3-1.3,2.6-1.5,4
		c-0.3,1.5-0.1,3.1-0.1,3.9c-1.9,1-3.8,1.4-4.6,2.6c-0.6,0.9,0.2,3,0.4,4.6c-4.6,0.9-5.7,0.5-5.5-2.1c0.6,0.4,1.2,0.7,1.3,0.8
		c-0.3-3-0.7-6.2-0.9-9c-1.5,1.4-3.2,2.8-4.8,4.4c-0.5,0.5-0.4,1.6-0.6,2.4c-0.4,1.3-0.6,2.9-1.4,3.6c-0.5,0.4-2.2-0.3-2.9-1.1
		c-1-1-1.5-2.5-2.1-3.7c-0.7,0.2-1.3,0.5-1.9,0.6c-0.1,0-0.5-0.7-0.5-0.8c0.4-0.6,0.8-1.4,1.3-1.8c2-1.2,2.3-2.8,2-5.6
		c-0.5-4.1-0.5-8.3-0.7-12.7c-1.8-0.5-6.7,4.6-7,8.2c0.7-0.1,1.3-0.2,2.6-0.3c-3.1,3.5-6.9,5.9-5.5,10.8c-1.2,0.7-2,1.2-2.9,1.7
		c-1.9,1.2-3.7,2.6-5.6,3.7c-0.3,0.2-1.2-0.6-1.6-1.2c-0.4-0.6-0.4-1.6-0.6-2.3c-1.1,0.6-2.2,1.1-3.3,1.7c-0.5,0.3-1.4,0.8-1.4,1.2
		c-0.1,2-1.2,1.8-2.4,1.8c-3.5,0-7.1-0.1-10.6,0c-3.1,0.1-6,0.1-8.2-3.6c2.4-1.5,4.7-2.9,7.1-4.4c-1.6-2-1.8-3.7-0.7-6.9
		c1.1,0.5,2.2,1.5,3.2,1.4c1.9-0.3,3.7-5.5,3.1-7.9c-0.2-1-0.1-2.1-0.2-3.1c0.2-0.1,0.5-0.1,0.7-0.2c-0.4-0.8-0.9-1.5-1.3-2.3
		c2-0.5,1.7-1.9,0.9-3.3c-0.6-1.1-1.4-2-2.3-2.8c-0.9-0.9-1.5-1.4-0.9-3.2c0.9-2.4-1.8-6.4-3.4-6.3c-0.6-1-1.2-1.7-1.4-2.5
		c-0.2-0.6-0.3-1.8,0-2c1.7-1.2,1.7-2.6,0.9-4.5c-0.4-1.2-0.5-2.7-0.3-4c0.3-2.4,0.5-4.5-2.2-4.8c-0.4-3.1-0.4-3.1-1.8-2.9
		c-2.3,5.1-3.6,10.2-3.4,15.9c0.5-0.4,0.9-0.7,1.4-1c0.2,0.1,0.3,0.2,0.5,0.4c-0.6,1.7-1.1,3.4-1.7,5.1c-0.3,0.9-0.9,2.1-0.6,2.6
		c1.4,2.2,0.4,4.2-0.4,6c-1.5,3.5-2.4,7.1-2.7,11c-0.1,1.4-1.1,2.8-2,3.9c-1,1.2-2.3,2.2-3.4,3.2c0.1,0.2,0.3,0.4,0.4,0.6
		c-2.4,0-4.7,0-7.4,0c0.4-3.7,0.8-7.1,1-10.5c0.1-1.9,0.2-3.8,0-5.7c-0.1-1.7-0.8-3.3-0.8-5c-0.1-3.1,0.2-6.3,0.3-9.4
		c0-0.6-0.4-1.2-0.7-1.9c-1.9,2.1-3.2,3.9-3.9,6.6c-0.8,3.6-2.3,7-3.5,10.4c-0.3,0.9-0.9,1.7-1.4,2.4c-1.2,1.7-2.6,3.1-3.4,5
		c-0.6,1.4-0.1,3.3-0.5,4.8c-0.4,1.6-1.9,3.1-1.9,4.7c-0.1,3.4-2.4,4.9-4,7.1c-0.2-0.8-0.4-1.9-0.1-2.2c1.2-1,0.6-1.8,0.1-2.8
		c-1-1.7-2-3.4-2.8-5.2c-0.3-0.6-0.2-2.1,0-2.2c1.7-0.6,0.9-1.8,0.7-2.9c-0.1-0.8-0.4-1.6-0.4-2.4c-0.2-2.3-0.3-4.7-0.4-7.1
		c-0.2,0-0.4,0-0.6,0c-0.4,1.3-0.7,2.8-1.4,3.9c-0.7,1.3-1.9,2.2-2.6,3.5c-0.5,1-0.7,2.2-0.8,3.4c-0.1,1.7,0,3.4,0,4.7
		c-2.3,0.9-4.1,1.6-6,2.3c0.1,0.3,0.1,0.6,0.2,0.9c0.4,0.2,0.9,0.4,0.8,0.4c-0.7,3.4-1.3,6.6-2.1,10.7c-1.3,0.5-3.3,1.9-5.3,2
		c-9.4,0.2-18.8,0.1-28.2,0.1c-1.9,0-3.7,0-5.6,0c-1.8,0-2.4-0.6-1.7-2.9c0.3-0.8-0.8-2.9-1.8-3.5c-1.9-1.2-2.9,0.9-3.6,2.7
		c-0.2,0-0.4-0.1-0.6-0.1c-0.6-3.7-1.2-7.4-1.9-11.2c0.2,0,0.7,0,1.3,0.1c-0.5-1.5-1.5-3-1.1-3.8c0.9-2.2,1.5-4.1-0.3-6.2
		c0.7,0.3,1.3,0.7,2,1c0.2-0.2,0.3-0.4,0.5-0.6c-1.1-1.3-2.3-2.6-3.3-3.9c-0.7-0.8-1.2-1.8-1.8-2.7c-0.3-0.5-0.6-1.1-0.9-1.7
		c-0.5,0.5-1,1-1.4,1.6c-1.4,2.6-2.8,5.3-4.1,7.9c-0.7,1.4-1.3,2.9-1.9,4.4c0.2,0.1,0.4,0.2,0.6,0.4c0.8-0.8,1.6-1.6,2.4-2.4
		c-1,3.7-2.9,6.7-5.3,9.2c-0.6,0.6-1.2,1.3-1.4,2.1c-0.3,1.1-0.2,2.4-0.2,3.8c1,0.7,3.5-1.5,4,1.5c0.2,1.3-0.9,3-1.4,4.5
		c-0.2-0.1-0.4-0.2-0.6-0.3c-0.2-1-0.5-2-0.7-3c-1.1,0.7-2.4,0.9-2.7,1.7c-0.8,2.7-2.8,1.9-4,1.4c-1-0.4-1.5-2.3-2.2-3.5
		c0,0,0.1-0.2,0.2-0.4c0.4,0.2,0.8,0.4,1.5,0.7c-0.9-2.2-1.9-3.9-2.3-5.9c-0.4-1.9-0.4-4-0.6-6.4c-3.8,2.3-2.2,6-2.8,8.2
		c-1.8,0.9-3.8,1.1-4.5,2.4c-0.6,1,0.2,3.2,0.4,4.9c-5.4,0.6-5.7,0.5-5.6-2.3c0.6,0.4,1.2,0.8,1.4,0.9c-0.3-3-0.6-6.2-0.9-9.1
		c-1.5,1.4-3.3,2.9-4.9,4.5c-0.4,0.4-0.4,1.4-0.6,2.2c-0.4,1.3-0.5,3.1-1.3,3.7c-0.9,0.7-2.5,0.8-3.2-1.1c-0.5-1.3-1.3-2.5-1.8-3.4
		c-0.9,0-1.7,0-2.4,0c0.4-0.7,0.7-2,1.2-2.1c2.8-0.7,2.2-3.2,2.2-5.3c-0.1-4.3-0.5-8.7-0.7-13.2c-1.5-0.3-4.9,2.6-7,6.9
		c-0.2,0.3,0,0.8,0,1.3c0.8,0,1.4-0.1,2.5-0.2c-3,3.4-6.6,5.9-5.4,10.5c-1.3,0.9-2.1,1.6-3,2.1c-1.8,1.2-3.6,2.4-5.4,3.4
		c-0.3,0.1-1.2-0.7-1.5-1.4c-0.4-0.6-0.4-1.5-0.6-2.2c-1.6,0.9-4.1,1.4-4.4,2.6c-0.6,2.8-2.1,2.1-3.5,2.1c-2.8,0.1-5.6,0-8.4,0
		c-3.4,0.1-6.8,0.7-9.5-3.6c2.3-1.4,4.6-2.8,7.2-4.4c-2.6-2.1-0.9-4.5-1.1-7c1.4,0.7,2.5,1.2,3.4,1.7c3.2-2.7,4.7-5.8,2.5-10.2
		c2.7-1,0.5-2.2,0-3.4c1.8-0.9,1.9-2,0.5-3.9c-1.6-2.1-3.7-3.7-2.8-7.3c0.4-1.9-2.7-4.6-3.6-4.2c-0.5-1-1-1.9-1.3-2.8
		c-0.2-0.6-0.3-1.7-0.1-1.9c2.1-1.3,1.5-3,1-5c-0.3-1.1-0.4-2.3-0.3-3.4c0.1-1.6,0.9-3.3-0.9-4.6c-1.1-0.8-1.7-2.4-2.5-3.5
		c-0.1-0.2-0.6,0.1-0.6,0.1c-0.9,2.7-1.9,5.1-2.6,7.5c-0.4,1.4-0.4,3-0.6,4.5c0.2,0,0.3,0.1,0.5,0.1c-0.3,1.3-0.6,2.6-0.8,3.9
		c0.3,0.2,0.6,0.5,0.9,0.7c0.1-0.7,0.2-1.3,0.4-2c0.3,0.2,0.5,0.4,0.8,0.5c-0.5,1.7-1,3.3-1.5,5c-0.3,0.9-1,2.3-0.7,2.8
		c1.3,2.1,0.4,4-0.4,5.7c-1.6,3.6-2.5,7.3-2.8,11.3c-0.1,1.4-1.1,2.8-2,3.8c-1,1.2-2.3,2.2-4,3.8c-1.4,0-3.8,0-6.1,0
		c0-0.5,0-0.7,0.1-0.9c0.1-0.3,0.2-0.7,0.4-1c1.4-2.9,3.1-5.8,0.3-8.9c-0.3-0.3-0.5-1-0.5-1.5c-0.2-2.6-0.5-5.2-0.4-7.8
		c0.1-4.7,0.4-9.5,0.7-14.2c-0.5,0.4-1.1,0.9-1.9,1.7c0-1.2,0-2,0-2.8c0.7,0,1.4,0,2,0c0-3.3,0-6.4,0-9.6c-0.4-0.1-1.1-0.3-1.7-0.4
		c0.1,0.2,0.3,0.4,0.4,0.7c-1.1,1-2.1,2.1-3.3,3c-6.8,5.1-8.6,3.1-14.1-1.6c-0.5-0.4-1.3-0.9-1.6-0.7c-1.3,0.9-2.4,2-3.6,3.1
		c-2.3,2.2-4.7,4.4-7,6.5c-0.1-0.1-0.2-0.2-0.2-0.3c0.8-1.7,1.6-3.3,2.7-5.6c-1,0.5-1.5,0.8-2,0.9c-0.5,0.1-1.1,0-1.7,0
		c0.1-0.7,0.2-1.3,0.4-2c0.3-0.9,0.5-1.7,1-2.5c0.5-0.9,1.2-1.6,1.9-2.3c1.7-1.8,3.5-3.6,4.9-5.1c-1.9-2.1-3.3-3.7-4.7-5.2
		c1.1-0.9,2.5-1.5,2.5-2.1c0-1.1-0.7-2.4-1.3-3.4c-1.3-2.1-2.9-4.1-4.7-6.7c1.6,0.1,2.3,0.1,3,0.2c0.7-2.3,0.3-4.2-1.2-5.8
		c-0.6-0.7-0.8-1.9-1.1-2.8c0.2-0.1,0.4-0.2,0.6-0.3c0.7,0.5,1.5,0.9,2.3,1.4c1-1.7,1-3-0.1-4.6c-0.7-1-1.5-3.2-1.2-3.5
		c2.2-2.2,0.6-4.1,0-6.2c-0.5-1.8-0.9-3.6-1.3-5.5c0.3-0.1,0.6-0.2,0.8-0.3c0.4,0.7,0.8,1.5,1.2,2.2c0.2-1.1,0.1-2-0.1-2.8
		c-0.6-2.7-1.1-5.3-1.8-8c-0.2-0.8-0.6-1.5-0.9-2.3c-0.6,0.6-1.4,1-1.8,1.8c-1,1.5-1.8,3.1-2.7,4.7c-0.1,0.1-0.1,0.3-0.2,0.5
		c0.3,0.3,0.6,0.6,0.6,0.5c-0.8,2.3-1.5,4.5-2.4,6.9c1.4,0,2.2,0,2.9,0c0,2.6,0,5,0,7.5c-1,0.3-2,0.7-3.8,1.3c1.3,1,2,1.4,2.9,2
		c-0.7,0.9-1.4,1.7-1.9,2.4c-0.7-1-1.2-1.9-1.9-2.9c-2.2,4.1-4.2,7.6-6.1,11.2c-0.6,1.2-0.7,2.7-1.4,3.8c-0.9,1.5-2.1,2.7-3.2,4
		c-1.9,2.1-3.9,4.2-6.1,6.5c-1.7-0.1-4,0.1-6.1-0.4c-2.3-0.6-5-1.3-6.4-3.1c-1.7-2.3-2.3-5.7-3.3-8.7c-0.1-0.4,0.2-1.3,0.5-1.5
		c2.2-1.5,0.8-3.3,0.3-4.9c-0.6-1.8-1.4-3.5-2.2-5.7c2.7,1,3.3,0.4,3.1-2.1c-0.1-1.2,0-2.3,0-3.5c0-3.5,0-7,0-10.5
		c-2.4,2.1-4.4,3.9-6.5,5.7c0.3,0.5,0.6,1,1.2,2c-3.9-0.1-3.3,2.1-1.9,4.8c-3.1,0.1-5.5,1-6.2,4.4c-1.3,0-2.5,0-3.7,0
		c0.3-1.1,0.3-2.3,0.8-3c0.7-1.1,0.1-3.2,2.3-3.2c1.1,0,1.9-1.9,1-3.6c-0.5-0.8-1.4-1.7-1.4-2.5c0-3.7,0.3-7.4,0.5-10.6
		c0.9,0.5,1.7,1,2.5,1.4c0.2-0.8,0.9-1.8,0.6-2.3c-2-3.5,0.6-8.1-3.3-11.4c1.5,0,1.9,0,2.5,0c-0.4-1.4-1.4-3.1-1.1-3.8
		c1.1-2.3,1.2-4.1-1-6.4c1.4,0.6,2,0.9,2.7,1.3c0.1-0.2,0.3-0.4,0.4-0.6c-1.1-1.3-2.2-2.5-3.2-3.8c-0.7-0.9-1.3-1.9-1.9-2.9
		c-0.3-0.5-0.6-1.1-0.9-1.6c-0.4,0.5-1,0.9-1.2,1.4c-1.4,2.6-2.7,5.3-4.1,8c-0.7,1.5-1.4,3-2.2,4.6c0.2,0.1,0.4,0.3,0.6,0.4
		c0.9-0.8,1.7-1.6,2.6-2.4c0.2,0.2,0.5,0.5,0.7,0.7c-2,2.8-4.1,5.6-6.1,8.5c-0.5,0.7-1.1,1.3-1.3,2.1c-0.3,1-0.2,2.2-0.2,3.5
		c1,0.1,2.4,0.2,3.7,0.3c1.3,2.8,0.1,4.3-1.7,5.7c-0.3-1.1-0.5-2.1-0.7-3c-3.2,0.5-4,4.9-6.8,5.4c-0.8-2.4-1.5-4.4-2.3-6.7
		c0.8,0.4,1.2,0.6,2,1c-0.9-2.2-1.7-3.9-2.3-5.8c-0.6-1.9,0.6-4.4-1.1-6.2c-3.1,2.2-1.6,5.9-2.3,8.6c-2.9,0.3-2.9,0.3-4.1,4.1
		c-0.2,0.7,0.2,1.7,0.3,2.5c-1.2,2.7-2.5,5.5-4.1,8.8c-0.7-3.8-1.3-7.3-1.9-11.3c1,0.6,1.6,0.9,1.7,1c-0.3-3-0.7-6.1-1-9
		c-1.6,1.5-3.4,3.1-5.2,4.8c-0.3,0.3-0.6,0.9-0.6,1.4c-0.2,2.4-0.3,4.7-0.4,7.3c-1.4-0.3-2.4-0.6-3.3-0.8c0.2-0.1,0.3-0.3,0.5-0.4
		c-0.9-2.2-1.8-4.5-2.5-6.3c-1.1-0.1-1.8-0.1-2.6-0.1c0.4-0.7,0.7-1.9,1.2-2.1c2.7-0.6,2.2-3.1,2.2-5c-0.1-4.4-0.5-8.9-0.8-13.6
		c-3.5,0.3-4.5,4.9-7,7.2c-0.2,0.2,0,0.8,0,1.3c0.8-0.1,1.4-0.1,2-0.1c-0.2-0.1-0.4-0.3-0.6-0.4c-1,1.7-2.3,3.3-3.1,5.2
		c-0.8,1.9-1.1,4.1-1.6,6.4c-0.2,0-1-0.1-1.3,0.3c-1.7,2-3.7,3.2-6,4.2c-1.5,0.7-1.8,0.1-2.3-0.9c-0.3-0.7-0.4-1.5-0.4-1.7
		c-3.7,0-5,3.1-6,6.5c0.2,0.2,0.7,0.7,1.1,1.1c-0.6,0.5-1.2,1.1-2.2,1.9c3.3,2.4,6.6,4.7,10.2,7.3c-3.7,1.7-7.2,3.4-10.9,5.1
		c0.1,0.1-0.1-0.2-0.3-0.5c-0.6-0.5-1.2-1-1.8-1.5c-0.3,0.8-0.7,1.5-0.8,2.3c-0.1,0.5-0.1,1.2,0.1,1.6c0.7,1.6,0,2.4-0.9,3.5
		c-1.8,2.1-3.4,4.4-5,6.7c-1.8,2.8-3.4,5.8-5.2,8.7c-0.2,0.3-0.6,0.7-0.9,0.8c-2.2,0.2-4.4,0.3-7,0.5c0.6-1.6,0.8-3.1,1.5-3.4
		c2.2-1.1,3.5-3.2,5.1-5.2c2.9-3.7,3.1-7.9,3-12.3c0-0.4-0.6-1.3-0.9-1.3c-2.3,0.1-4.6,0.4-6.3,0.6c-0.2,1.7-0.3,2.9-0.4,4.1
		c-0.3,0-0.5,0-0.8,0c-0.4-1.7-0.8-3.4-1.2-5.2c-0.1-0.5-0.1-1.4,0.1-1.6c2.5-1.7-0.2-1.6-0.5-2.3c0.5-0.4,1.1-0.8,1.6-1.2
		c0.6-0.6,1.4-0.7,2.2-0.5c2.2,0.7,3.7-0.6,4.8-2.5c1-1.6,1.9-3.3,2.9-5c-1.2-0.5-2.5-1-3.7-1.6c-0.6-0.3-1.6-1.2-1.5-1.6
		c0.6-2.3-0.5-3.3-2.9-4.1c3-1.9,5.4-3.3,7.9-4.8c-2.7-2.1-0.9-4.5-1.2-7c2.9,1.4,2.9,1.4,4.6,0.2c2.4-1.7,3-5.9,1.2-8.7
		c3.1-1.1,0.3-2.5,0-3.8c2.4-0.1,1.8-1.7,1.2-2.9c-0.6-1.2-1.5-2.1-2.5-3c-0.9-0.9-1.4-1.5-0.9-3.2c0.8-2.6-2-6.6-3.6-6.1
		c-0.3-0.9-0.7-1.7-1-2.5c-0.2-0.7-0.4-2-0.2-2.2c1.8-1.2,1.7-2.6,1-4.5c-0.4-1.2-0.5-2.7-0.3-4c0.3-2.4,0.5-4.5-2.3-4.8
		c-0.3-1.4,0.3-3.9-1.8-3.1c-1,3-2.2,5.5-2.8,8.2c-0.5,2.5-0.4,5.1-0.6,8c0.5-0.5,0.9-0.8,1.3-1.2c0.2,0.1,0.4,0.2,0.6,0.3
		c-0.5,1.7-1,3.3-1.5,5c-0.3,0.9-1,2.3-0.7,2.8c1.3,2.1,0.4,4-0.4,5.7c-1.6,3.6-2.5,7.3-2.8,11.3c-0.1,1.3-1,2.7-1.8,3.7
		c-1.1,1.3-2.4,2.2-3.7,3.3c0.1,0.2,0.3,0.4,0.4,0.6c-2.4,0-4.7,0-7.3,0c0.3-5.6,0.9-10.9,0.8-16.2c0-5.3-0.6-10.6-0.9-16.1
		c-1.5,1.5-3,2.5-3.6,3.9c-1.5,3.8-2.4,8-3.6,11.9c-1.1,3.7-4.3,5.2-5.1,8.8c-0.6,6.2-2.7,11.7-6.7,16.9c-0.3-1.1-0.7-2.2-0.5-2.3
		c2.7-2.1,0-3.3-0.5-4.9c-0.6-2-3.8-3.7-0.7-6.3c0.1-0.1,0.1-0.5,0.1-0.8c-0.4-3.6-0.8-7.3-1.2-11.6c-0.9,2.2-1.3,4.2-2.3,5.3
		c-2.5,2.5-3.2,5.4-2.9,8.9c0.1,0.8-0.1,1.6-0.1,2.1c-2.1,0.7-4,1.4-5.8,2.1c0.1,0.3,0.1,0.6,0.2,0.9c0.5,0.2,0.9,0.4,0.9,0.4
		c-0.7,3.3-1.4,6.4-2.1,9.8c-1.6,1.9-3.5,4.3-5.5,6.6c0.2,0.2,0.3,0.4,0.5,0.6c0.5,0,0.9-0.1,1.1-0.1c-0.9,2-1.6,4.1-2.7,5.8
		c-0.7,1-2,2-3.1,2c-2.9,0.1-5.8-0.6-8.6-0.3c-1.8,0.2-4,1.2-5.1,2.7c-2.1,3-4.5,3.4-7.5,2.4c-0.2,0.8-0.4,1.5-0.7,2.4
		c-0.6-0.4-1-0.6-1.4-0.9c-1.2-0.9-3.4-2.2-3.3-2.8c0.7-2.7-1.2-2.8-2.3-3.7c-1.7-1.4-2.5-2.8-0.8-4.9c0.2-0.3,0.1-1.1,0-1.7
		c-0.2-1.1-0.4-2.3-0.6-3.4c-0.5-1.7-2.1-2.9-0.9-5.4c0.2-0.5-0.7-2.3-1.4-2.8c-0.8-0.4-2.5-0.4-2.9,0.2c-1.4,2.5-2.9,5.1-3.7,7.9
		c-1.2,4.2-2.9,5.3-6.5,3.4c-0.8-0.4-1.8-0.3-2.7-0.5c0,1.3-0.2,2.7,0.2,3.7c0.7,1.9,0.2,2.5-1.3,2.9c-0.7,0.2-1.4,0.5-2.1,0.8
		c0.3,0.8,0.4,1.8,0.9,2.4c1.4,1.6,2.6,3.6,1.6,5.6c-0.6,1.2-2.4,1.6-3.9,2.6c0,0.3-0.1,1-0.2,2c-6.3-1.3-11.4-7.2-17.6-5.3
		c-1-2-1.8-3.5-2.6-4.9c0.4,0.5,0.8,1.1,1.2,1.6c0.6-1.5,0.7-3.8,1.7-4.4c3.4-2.2,3.6-2.1,0.9-4.7c2.6-2.9,2.8-3.9,0.9-5.8
		c0.9,0.1,1.8,0.1,3.4,0.2c-1.2-0.9-2-1.5-2.8-2.2c1-1.7,2.1-3.5,3.1-5.3c-1-0.7-1.7-1.1-2.3-1.6c-2.9-2.5-5.8-5.1-8.6-7.7
		c-0.6-0.5-0.9-1.5-1.3-2.3c-0.7-1.2-1.2-2.9-2.2-3.6c-2.4-1.6-5.1-2.8-8.1-4.4c-0.2-0.3-1.2-2-1.4-1.9c-2.2,1.1-4,0.6-5.6-1.4
		c-0.3-0.3-0.9-0.4-1.4-0.4c-4.2-0.3-8.5-0.6-12.7-0.9c-0.6,0-1.4,0-1.8-0.4c-1.9-2-4.1-2.5-6.7-2.6c-1.7,0-2.8-2.4-2.3-3.9
		c-0.8-0.7-1.6-1.4-2.4-2.1c0.9-0.5,1.4-0.8,2-1.2c-0.5-0.3-1.1-0.9-1.7-1c-1.4-0.2-2.9-0.3-4.3-0.3c-1.7,0-3.3,0.2-5,0.3
		c-0.1,0.3-0.1,0.6-0.2,0.9c1.4,2.1,3,4.1,4.3,6.3c0.4,0.7,0.4,1.7,0.6,2.6c-0.8,0-1.7,0.1-2.5-0.2c-1-0.4-2-1-3-1.6
		c-0.3,0.4-0.5,0.7-0.8,1.1c1,1.4,1.9,2.9,3,4.1c0.2,0.3,1.3-0.5,2-0.8c0.6,1.2,1.2,2.7,1.7,3.7c-0.8,2.3-1.5,4.4-2.2,6.7
		c1.3,0,2.2,0,3.2,0c-0.8,2.4-1.5,4.6-2.4,7.4c-0.2-1.6-0.3-2.5-0.4-3.3c-0.1,0-0.3,0-0.4,0c-0.3,1.1-0.6,2.2-0.9,3.3
		c-0.6-0.7-1.1-1.4-2.1-2.6c0,1.5-0.2,2.2,0,2.7c0.8,2.4,0.5,4.3-0.9,6.4c-1.5,2.3-2.7,5-4,7.5c-0.7,1.3-0.9,2.9-1.7,4.2
		c-0.9,1.4-2,2.5-3.1,3.7c-1.7,1.8-3.7,3.3-5,5.4c-1.3,2-2.8,2-4.3,1.5c-2.9-1-5.8-2.2-8.5-3.8c-1.2-0.7-1.8-2.6-2.7-4
		c1.1-0.8,2.5-2.6,3.2-2.3c2.2,1,3.5-0.6,5-1.6c2.4-1.5,4.3-3.4,3.5-7.1c-0.2-0.8,0.1-1.6,0.1-2.6c0.8,0,1.5,0,2,0
		c0.3,1.3,0.6,2.3,0.9,3.4c4.8-1.3,5.1-1.9,4.7-9.3c-0.5-0.2-1.5-0.3-1.6-0.8c-0.8-2.5-1.8-0.8-2.6-0.1c-0.4,0.3-0.7,0.9-1.1,1.5
		c-2,3.1-3.3,3.5-6.5,2.4c0.1-1,0.2-2,0.3-3.3c-3.3,2.7-5.5-0.1-8.2-1c2.5-5.6,7.9-7.3,11.2-12c-0.5-0.1-1-0.2-1.4-0.4
		c-0.7-0.3-1.4-0.7-2.1-1.1c0.5-0.6,1-1.5,1.7-1.9c2.5-1.4,5.2-2.4,7.5-4c1.6-1.1,3.2-2.6,3.9-4.5c0.7-1.6,0.3-3.8,0.3-5.8
		c0-1.7-0.9-1.9-1.9-1c-0.5,0.4-0.8,1.2-1.2,1.7c-0.8,1-1.9,3-2.5,2.8c-1.3-0.4-2.4-1.9-4.1-3.5c-0.4,0.3-1.4,1.2-2.3,2.1
		c-1.5,1.6-2.5-0.3-3.6-0.9c-0.4-0.3-0.9-1.9-0.6-2.3c1-1.4,2.2-2.9,3.6-3.6c2.4-1.2,4.1-2.6,3.4-5.7c0.9-0.2,2.1-0.2,2.2-0.5
		c0.2-1.4,0.1-2.9,0.1-4.4c-0.2-0.1-0.5-0.1-0.7-0.2c-0.3,0.7-0.6,1.4-0.9,2.1c-0.3-0.1-0.6-0.3-1-0.4c1.9-8.6-2-16.5-2-24.9
		c0.2-0.2,0.5-0.4,0.7-0.6c0.3,0.9,0.5,1.8,0.8,2.6c0.3-0.3,0.7-0.5,1-0.8c-0.5-1.6-0.9-3.3-1.4-4.9c0.2,0,0.4,0,0.6,0
		c0-0.9,0.2-1.8,0-2.6c-1-3.2-2-6.3-3.1-9.4c-0.2-0.5-0.6-0.8-0.7-1c-1,1.8-2,3.3-2.7,4.9c-0.8,1.7-1.5,3.5-2.3,5.4
		c0.2,0.1,0.7,0.3,1.7,0.8c-1.6,2.2-2.9,4.2-4.3,6.2c1.3,0.6,2.4,1.1,3.5,1.7c0,0.3-0.1,0.5-0.1,0.8c-1,0.2-2,0.4-3,0.6
		c0.2,0.1,0.4,0.2,0.5,0.4c-1.3,2.4-2.7,4.8-4.1,7.3c1,0.2,2.3,0.3,3.7,0.6c-2.1,3-4.8,5.1-4.5,9.3c0,0.6-0.9,1.6-1.6,2.1
		c-1.1,0.7-2.4,1-3.5,1.7c-2.2,1.3-5.2-0.2-5.9-2.9c-0.2-0.7-0.7-1.4-1.1-2.1c-0.4,0.7-0.9,1.4-1.3,2c-1.2,1.9-2.3,3.8-3.6,5.6
		c-0.2,0.3-1.3,0.1-1.4-0.1c-1.2-3.6-4.5-6-4.1-10.5c0.3-3.4,0.2-6.9,0-10.3c-0.1-1.8-0.6-3.9-1.6-5.3c-0.4-0.6-2.7-0.3-3.5,0.5
		c-1.4,1.6-3.9,2.6-3.1,6c0.2,0.9-0.1,2.2-0.6,3c-1,1.6-2.2,2.9-3.8,4.8c1.5,0.1,2.4,0.2,4,0.3c-2.4,2.5-4.2,4.5-6.2,6.5
		c-0.7-2.6-2.3-4.8-1-7.9c0.4-1-0.9-3.2-1.8-4.4c-0.4-0.4-2.2,0.1-2.9,0.8c-1.2,1.2-2,2.8-2.9,4.3c0.5,0.3,1.1,0.6,1.8,0.9
		c-1.2,1.7-2.2,3.3-3.4,5c-1.4-2.8-3.3-5.1-1.2-8.4c0.3-0.5,0.1-1.6,0-2.4c-0.2-1.2-0.7-2.3-0.8-3.5c-0.1-1.8,0-3.7,0-6.3
		c-1.4,0.7-2.6,0.9-3.4,1.7c-1.4,1.5-2.6,3.3-4,5.2c0.3,0.3,0.7,0.6,1.7,1.6c-2.2,0.8-3.9,1.4-5.3,1.9c0.1,0.6,0.5,1.8,0.8,3
		c-1.4,0-2.7,0-4.4,0c0.5,1.5,0.7,3.6,1.6,4.6c1.6,1.7,1.5,3.6,1.1,5.4c-0.6,2.7-0.3,4.9,2,6.3c-1.3,1.9-2.4,3.5-3.8,5.7
		c1.5-0.2,2.1-0.2,3.3-0.4c-3.1,3.4-6.7,5.8-5.3,11.1c-0.8,0.2-1.6,0-2,0.4c-1.7,2-3.7,3.2-6,4.2c-1.5,0.7-1.8,0.1-2.3-0.9
		c-0.3-0.7-0.4-1.5-0.5-2.1c-1.6,0.8-3.3,1.1-4.4,2.3c-0.8,0.9-0.9,2.9-1.3,4.6c0.1,0.2,0.5,0.8,0.9,1.4c-0.6,0.4-1.2,0.9-2.2,1.6
		c3.4,2.4,6.7,4.8,10.3,7.4c-3.7,1.7-7.3,3.3-10.9,4.9c-1.8-2.7-2.2-2.6-3.6,1.2c-1.7-2.4-0.3-7.3,2.5-8.2c0.1-3.1,0.2-6.2,0.4-9.3
		c0-0.4,0.1-1,0.2-1c2.6,0,1.8-3.2,3.1-4.5c0.4-0.3,0.1-1.7,0.1-2.5c-0.5,0.2-0.9,0.5-1.4,0.6c-0.3,0.1-0.7,0-0.8-0.2
		c-1-2.1-2.3-1.7-3.9-0.8c-0.5,0.3-1.3,0.1-2.2,0.1c0.5-2,0.8-3.6,1.1-4.7c-0.8-0.9-1.4-1.5-1.9-2.1c0.6-0.5,1.2-1.6,1.7-1.5
		c2.6,0.5,4.1-0.8,4.9-2.8c-0.4-1.5-0.7-2.5-0.9-3.5c0.2-0.1,0.4-0.1,0.6-0.2c0.3,0.5,0.6,0.9,1.1,1.6c0-4.5,0-8.7,0-12.9
		c-0.3,0-0.6,0-0.9,0c0,2.6,0,5.2,0,7.7c-0.3,0-0.5,0.1-0.8,0.1c1-3.7-0.5-6.2-2.7-8.2c-1.5-1.4-0.6-2.6,0.4-2.7
		c2-0.3,2.2-2,2.7-3.7c-0.7-0.4-1.4-0.7-2.3-1.2c1-0.6,1.6-1,2.5-1.6c-1.9-2.9-3.7-5.7-5.6-8.2c-0.3-0.4-1.8,0.1-2.5,0.6
		c-0.6,0.4-0.9,1.5-1.2,2.3c-0.8,2.1-1.5,4.3-2.2,6.3c-0.6-1.2-1.2-2.1-1.5-3.1c-0.2-0.6-0.2-1.7,0.1-2c1.1-1.4,1.3-2.5,0.9-4.2
		c-0.3-1.4-0.6-3.2-0.1-4.5c1.3-3.6-3.1-4-2.7-6.9c0-0.2-0.5-0.6-0.9-0.7c-0.3-0.1-0.6,0-0.6,0c-0.9,2.7-1.8,5-2.5,7.5
		c-0.4,1.4-0.4,3-0.6,4.5c0.2,0,0.3,0.1,0.5,0.1c-0.3,1.2-0.6,2.5-0.9,3.7c0.1,0.1,0.3,0.2,0.4,0.2c0.4-0.4,0.8-0.7,1.2-1.1
		c0.2,0.1,0.4,0.2,0.6,0.3c-0.5,1.7-1.1,3.3-1.6,5c-0.3,0.9-0.9,2.3-0.6,2.8c1.4,2.3,0,4.1-0.4,6c-0.7,2.6-1.6,5.2-2.3,7.8
		c-0.5,1.9-0.8,3.9-1.2,5.9c-3.2-1.4-6-2.6-8.8-3.8c-1.6-0.6-2.2-1.9-2.2-3.7c0-1.7,0-3.4,0-6.1c0.8,0.9,1.4,1.4,1.6,2.1
		c0.2,0.8,0,1.7,0.1,2.5c0.5,4,2,5.4,4.7,4.4c-0.1-3.1-0.2-6.1-4.1-6.7c1.2-2.3,1.6-4.6-0.6-6.4c0.7-0.5,1.1-0.8,1-0.7
		c-1.1-2-2.7-3.7-2.7-5.4c-0.1-3.3-1-5.7-2.9-7.9c-0.6-0.7-1-1.7-1.5-2.6c0.3,0.1,0.6,0.1,0.8,0.2c0.4-1.1,1.1-2.3,1-3.4
		c-0.2-2.9-0.8-5.8-1.2-8.7c0-0.3,0.1-0.7,0.1-1c0.7,0.1,1.2,0.2,1.8,0.2c0.1-0.2,0.2-0.5,0.3-0.7c-0.8-0.6-1.6-1.3-2.5-2
		c0-1.9,0.1-4,0-6c-0.1-0.7-0.7-2.1-1-2c-0.8,0.1-1.7,0.5-2.2,1.2c-1.2,1.5-2.3,3.3-3.4,5c-0.5,0.9-0.9,1.9-1.3,2.8
		c0.7,0.2,0.8,0,1-0.2c0.2-0.1,0.4-0.2,0.7-0.3c0.2,0.3,0.4,0.5,0.6,0.8c-2.4,2.8-4.9,5.5-7.3,8.3c1.1,0.4,2,0.7,3.3,1.1
		c-4,4-4,4-2.1,7.8c-1.4,2.3-5.6,2.1-4.5,6.7c0.7,0.3,1.3,0.5,2.2,0.8c-2.4,2.6-4.7,4.6-8.3,4.1c0.7-4.3,1-8.4,2-12.3
		c1.5-5.4,1.5-10.3-2.2-14.6c-0.3-0.3-0.5-0.7-0.6-1.1c-1.3-4.1-2.9-8.2-3.7-12.4c-0.8-4.3-4-6-6.1-8.9c-0.3-0.4-1.1-0.4-1.6-0.4
		c-2,0-4,0.2-6,0.2c-0.6,0-1.7,0-1.8-0.3c-0.6-2.4-2.6-1.6-3.3-1.2c-1.9,1.3-3.8,0.2-5.7,0.5c-0.7,0.1-1.5-0.1-2.2,0.1
		c-4.6,1.3-9.1,3.5-13.9,3.7c-0.7,0-1.6,0.6-2.1,1.3c-1.5,2-2.8,4.1-4.3,6.2c-0.3,0.4-0.6,1-1,1.1c-2.3,0.3-2.8,2.1-2.9,3.9
		c-1.1,0.8-1.9,1.5-2.8,2c-0.6,0.3-1.3,0.3-2,0.2c-1.4-0.1-2.8-0.6-4.1-0.4c-4.4,0.7-8.4,3.7-13,3.6c-0.3,0-0.6,0.2-0.9,0.3
		c-0.7,5.5-1.3,10.9-2,16.3c0,0.2-0.2,0.3-0.8,1.2c0-3.4,0-6,0-8.7c-0.4,0-0.7,0-1.1,0c0,6.8,0,13.5,0,20.4c-5.6,0-10.6,0-16,0
		c0-6.8,0-13.5,0-20.1c-0.3,0-0.6,0-0.9,0c0,2.6,0,5.2,0,7.9c-0.9-6.8-1.7-13.6-2.3-20.4c-0.3-2.9-0.1-5.8-0.1-8.6
		c0-3.8-1.2-5.2-4.6-5.5c-3-0.2-6.1-0.3-9.1-0.5c-3-0.1-5.9-0.2-8.9-0.5c-2.7-0.3-5.3-0.9-8-1.4c0,173.5,0,346.2,0,519.1
		c1.4,0,2.7,0,4,0c409.3,0,818.7,0,1228,0C1225,792,1226.3,792,1227.6,792.1z M206.8,310.3c0.3-1.4,1-2.9,0.8-4.2
		c-0.1-1.2-1.3-2.2-2.1-3.5c0-1.9,0-4.4,0-7.5c0.8,2.1,1.3,3.5,1.8,4.9c0.1-7.2,1.3-14.3-0.9-21.1c-3.1,2.5-6.1,4.9-9.1,7.3
		c-0.2,0.2-0.6,0.8-0.6,0.8c1.3,1.7-1,3.6,0.5,5.3c2.2,0,2.7,1.8,2.7,4.2c0,1.5,0.4,3,0.6,4.5c1.2,0.3,2.2,0.5,3.4,0.7
		c-0.2,1.2-0.3,2.2-0.6,3.1C201.9,310.2,201.9,310.2,206.8,310.3z M313.7,335.3c-0.5-3.4-1.1-6.9-1.5-10.4c-0.2-2.2,0.4-4.5-0.1-6.5
		c-0.3-1.4-1.7-3.2-2.8-3.5c-1.8-0.5-1,1.7-1.1,2.7c-0.1,2.1,0,4.2,0,6.2c-0.2-0.2-0.5-0.4-0.7-0.6c-0.9,0.7-1.8,1.5-3.1,2.6
		c-0.9,0.4-2.3,1.1-3,1.4c0.3,1.8,0.5,3,0.8,4.1c0.2,0.7,0.6,1.9,0.9,2c3.2,0.4,6,4.5,9.7,1.7C312.9,334.8,313.6,335.2,313.7,335.3z
		"/>
	<path class="st4" d="M1227.6,792.1c-1.3,0-2.6-0.1-3.9-0.1c-409.3,0-818.7,0-1228,0c-1.3,0-2.6,0-4,0c0-172.8,0-345.6,0-519.1
		c2.7,0.5,5.3,1.1,8,1.4c3,0.3,5.9,0.4,8.9,0.5c3,0.2,6.1,0.2,9.1,0.5c3.4,0.3,4.6,1.7,4.6,5.5c0,2.9-0.1,5.8,0.1,8.6
		c0.6,6.8,1.4,13.5,2.3,20.4c0-2.6,0-5.2,0-7.9c0.3,0,0.6,0,0.9,0c0,6.7,0,13.3,0,20.1c5.4,0,10.4,0,16,0c0-6.9,0-13.7,0-20.4
		c0.4,0,0.7,0,1.1,0c0,2.7,0,5.3,0,8.7c0.6-0.8,0.8-1,0.8-1.2c0.7-5.4,1.3-10.8,2-16.3c0.4-0.1,0.7-0.3,0.9-0.3
		c4.6,0.1,8.6-2.9,13-3.6c1.3-0.2,2.7,0.3,4.1,0.4c0.7,0,1.4,0.1,2-0.2c0.9-0.4,1.7-1.2,2.8-2c0.2-1.8,0.7-3.6,2.9-3.9
		c0.3,0,0.7-0.7,1-1.1c1.4-2.1,2.8-4.2,4.3-6.2c0.5-0.6,1.3-1.2,2.1-1.3c4.9-0.2,9.3-2.4,13.9-3.7c0.7-0.2,1.5,0,2.2-0.1
		c1.9-0.3,3.7,0.8,5.7-0.5c0.7-0.5,2.7-1.3,3.3,1.2c0.1,0.3,1.2,0.3,1.8,0.3c2,0,4-0.2,6-0.2c0.5,0,1.3,0,1.6,0.4
		c2.2,2.8,5.3,4.5,6.1,8.9c0.8,4.3,2.4,8.3,3.7,12.4c0.1,0.4,0.3,0.8,0.6,1.1c3.7,4.3,3.7,9.1,2.2,14.6c-1.1,3.9-1.4,8.1-2,12.3
		c3.6,0.5,5.9-1.5,8.3-4.1c-0.8-0.3-1.5-0.5-2.2-0.8c-1.1-4.6,3.1-4.4,4.5-6.7c-1.9-3.8-1.9-3.8,2.1-7.8c-1.2-0.4-2.2-0.8-3.3-1.1
		c2.4-2.7,4.8-5.5,7.3-8.3c-0.2-0.3-0.4-0.5-0.6-0.8c-0.2,0.1-0.5,0.2-0.7,0.3c-0.2,0.1-0.4,0.3-1,0.2c0.4-0.9,0.8-2,1.3-2.8
		c1.1-1.7,2.1-3.4,3.4-5c0.5-0.7,1.5-1.1,2.2-1.2c0.3,0,0.9,1.3,1,2c0.1,2,0,4.1,0,6c0.9,0.7,1.7,1.4,2.5,2
		c-0.1,0.2-0.2,0.5-0.3,0.7c-0.6-0.1-1.1-0.1-1.8-0.2c0,0.3-0.1,0.7-0.1,1c0.4,2.9,1,5.8,1.2,8.7c0.1,1.1-0.6,2.3-1,3.4
		c-0.3-0.1-0.6-0.1-0.8-0.2c0.5,0.9,0.9,1.8,1.5,2.6c1.9,2.2,2.8,4.6,2.9,7.9c0,1.7,1.7,3.4,2.7,5.4c0.1-0.1-0.4,0.2-1,0.7
		c2.2,1.8,1.8,4.1,0.6,6.4c3.9,0.6,4,3.6,4.1,6.7c-2.7,1-4.2-0.5-4.7-4.4c-0.1-0.8,0.1-1.7-0.1-2.5c-0.2-0.6-0.8-1.1-1.6-2.1
		c0,2.7,0,4.4,0,6.1c0,1.8,0.6,3.1,2.2,3.7c2.8,1.1,5.5,2.4,8.8,3.8c0.4-1.9,0.7-3.9,1.2-5.9c0.7-2.6,1.6-5.2,2.3-7.8
		c0.5-1.9,1.9-3.7,0.4-6c-0.3-0.5,0.4-1.9,0.6-2.8c0.5-1.7,1-3.4,1.6-5c-0.2-0.1-0.4-0.2-0.6-0.3c-0.4,0.4-0.8,0.7-1.2,1.1
		c-0.1-0.1-0.3-0.2-0.4-0.2c0.3-1.2,0.6-2.5,0.9-3.7c-0.2,0-0.3-0.1-0.5-0.1c0.2-1.5,0.2-3.1,0.6-4.5c0.7-2.5,1.6-4.9,2.5-7.5
		c0,0,0.4-0.2,0.6,0c0.3,0.1,0.9,0.5,0.9,0.7c-0.3,2.9,4,3.3,2.7,6.9c-0.5,1.3-0.2,3,0.1,4.5c0.4,1.7,0.2,2.8-0.9,4.2
		c-0.3,0.4-0.3,1.4-0.1,2c0.3,1,0.8,1.8,1.5,3.1c0.7-2,1.5-4.2,2.2-6.3c0.3-0.8,0.6-1.9,1.2-2.3c0.7-0.5,2.2-1,2.5-0.6
		c2,2.6,3.7,5.4,5.6,8.2c-0.9,0.6-1.5,1-2.5,1.6c1,0.5,1.6,0.9,2.3,1.2c-0.5,1.7-0.6,3.4-2.7,3.7c-1,0.2-1.9,1.3-0.4,2.7
		c2.2,2,3.7,4.5,2.7,8.2c0.3,0,0.5-0.1,0.8-0.1c0-2.6,0-5.2,0-7.7c0.3,0,0.6,0,0.9,0c0,4.2,0,8.4,0,12.9c-0.4-0.6-0.7-1.1-1.1-1.6
		c-0.2,0.1-0.4,0.1-0.6,0.2c0.3,1,0.5,2,0.9,3.5c-0.8,2-2.3,3.3-4.9,2.8c-0.5-0.1-1.1,1-1.7,1.5c0.5,0.6,1.1,1.2,1.9,2.1
		c-0.3,1.1-0.6,2.7-1.1,4.7c0.9,0,1.7,0.3,2.2-0.1c1.5-0.9,2.8-1.3,3.9,0.8c0.1,0.2,0.6,0.2,0.8,0.2c0.5-0.1,1-0.4,1.4-0.6
		c0,0.9,0.3,2.2-0.1,2.5c-1.3,1.2-0.5,4.4-3.1,4.5c-0.1,0-0.2,0.7-0.2,1c-0.1,3.1-0.3,6.3-0.4,9.3c-2.8,0.9-4.2,5.8-2.5,8.2
		c1.5-3.8,1.8-3.9,3.6-1.2c3.6-1.6,7.1-3.2,10.9-4.9c-3.6-2.6-6.9-5-10.3-7.4c1-0.7,1.6-1.1,2.2-1.6c-0.4-0.6-0.8-1.1-0.9-1.4
		c0.5-1.8,0.5-3.7,1.3-4.6c1.1-1.2,2.8-1.5,4.4-2.3c0.1,0.6,0.2,1.4,0.5,2.1c0.5,1,0.7,1.6,2.3,0.9c2.3-1,4.3-2.2,6-4.2
		c0.3-0.4,1.1-0.3,2-0.4c-1.4-5.3,2.2-7.6,5.3-11.1c-1.2,0.1-1.8,0.2-3.3,0.4c1.5-2.2,2.6-3.8,3.8-5.7c-2.3-1.4-2.5-3.5-2-6.3
		c0.4-1.8,0.5-3.7-1.1-5.4c-1-1-1.1-3-1.6-4.6c1.7,0,3.1,0,4.4,0c-0.3-1.2-0.6-2.4-0.8-3c1.4-0.5,3.1-1.1,5.3-1.9
		c-1-1-1.4-1.3-1.7-1.6c1.4-1.8,2.5-3.6,4-5.2c0.7-0.8,1.9-1,3.4-1.7c0,2.7-0.1,4.5,0,6.3c0.1,1.2,0.6,2.3,0.8,3.5
		c0.1,0.8,0.4,1.9,0,2.4c-2.1,3.3-0.1,5.6,1.2,8.4c1.2-1.7,2.2-3.3,3.4-5c-0.6-0.3-1.2-0.6-1.8-0.9c1-1.5,1.7-3.1,2.9-4.3
		c0.7-0.7,2.6-1.2,2.9-0.8c0.9,1.2,2.2,3.4,1.8,4.4c-1.3,3.1,0.2,5.3,1,7.9c1.9-2,3.8-4,6.2-6.5c-1.6-0.1-2.4-0.2-4-0.3
		c1.5-1.9,2.8-3.2,3.8-4.8c0.5-0.8,0.8-2.1,0.6-3c-0.8-3.3,1.7-4.4,3.1-6c0.7-0.8,3.1-1,3.5-0.5c0.9,1.4,1.4,3.5,1.6,5.3
		c0.2,3.4,0.3,6.9,0,10.3c-0.4,4.5,2.9,7,4.1,10.5c0.1,0.2,1.2,0.4,1.4,0.1c1.3-1.8,2.4-3.7,3.6-5.6c0.4-0.7,0.9-1.4,1.3-2
		c0.4,0.7,0.9,1.3,1.1,2.1c0.8,2.8,3.7,4.2,5.9,2.9c1.1-0.7,2.4-0.9,3.5-1.7c0.7-0.4,1.6-1.4,1.6-2.1c-0.3-4.1,2.4-6.3,4.5-9.3
		c-1.5-0.2-2.7-0.4-3.7-0.6c1.4-2.6,2.8-5,4.1-7.3c-0.2-0.1-0.4-0.2-0.5-0.4c1-0.2,2-0.4,3-0.6c0-0.3,0.1-0.5,0.1-0.8
		c-1.1-0.5-2.3-1.1-3.5-1.7c1.4-2,2.7-4,4.3-6.2c-1-0.5-1.5-0.7-1.7-0.8c0.8-2,1.5-3.7,2.3-5.4c0.8-1.6,1.7-3.1,2.7-4.9
		c0.2,0.2,0.6,0.6,0.7,1c1.1,3.1,2.2,6.2,3.1,9.4c0.2,0.8,0,1.7,0,2.6c-0.2,0-0.4,0-0.6,0c0.5,1.6,0.9,3.3,1.4,4.9
		c-0.3,0.3-0.7,0.5-1,0.8c-0.3-0.9-0.5-1.8-0.8-2.6c-0.2,0.2-0.5,0.4-0.7,0.6c0,8.4,3.9,16.3,2,24.9c0.3,0.1,0.6,0.3,1,0.4
		c0.3-0.7,0.6-1.4,0.9-2.1c0.2,0.1,0.5,0.1,0.7,0.2c0,1.5,0.1,3-0.1,4.4c0,0.3-1.3,0.3-2.2,0.5c0.8,3.1-1,4.4-3.4,5.7
		c-1.4,0.7-2.5,2.2-3.6,3.6c-0.3,0.3,0.2,2,0.6,2.3c1.1,0.6,2,2.5,3.6,0.9c0.9-0.9,1.9-1.7,2.3-2.1c1.7,1.6,2.8,3,4.1,3.5
		c0.6,0.2,1.7-1.8,2.5-2.8c0.4-0.5,0.7-1.3,1.2-1.7c1-0.9,1.9-0.7,1.9,1c0,1.9,0.4,4.2-0.3,5.8c-0.8,1.8-2.4,3.4-3.9,4.5
		c-2.4,1.6-5.1,2.6-7.5,4c-0.7,0.4-1.1,1.2-1.7,1.9c0.7,0.4,1.4,0.8,2.1,1.1c0.4,0.2,0.9,0.3,1.4,0.4c-3.3,4.7-8.7,6.4-11.2,12
		c2.7,0.9,4.9,3.7,8.2,1c-0.1,1.3-0.2,2.3-0.3,3.3c3.3,1.1,4.6,0.6,6.5-2.4c0.3-0.5,0.6-1.1,1.1-1.5c0.8-0.6,1.8-2.4,2.6,0.1
		c0.1,0.4,1.1,0.5,1.6,0.8c0.4,7.4,0.1,8-4.7,9.3c-0.3-1-0.6-2.1-0.9-3.4c-0.5,0-1.2,0-2,0c-0.1,0.9-0.3,1.8-0.1,2.6
		c0.7,3.7-1.2,5.6-3.5,7.1c-1.5,1-2.8,2.5-5,1.6c-0.7-0.3-2.1,1.5-3.2,2.3c0.9,1.4,1.5,3.3,2.7,4c2.7,1.6,5.6,2.8,8.5,3.8
		c1.5,0.5,3,0.5,4.3-1.5c1.3-2.1,3.3-3.6,5-5.4c1.1-1.2,2.3-2.3,3.1-3.7c0.8-1.2,1-2.8,1.7-4.2c1.3-2.6,2.5-5.2,4-7.5
		c1.4-2.1,1.6-4.1,0.9-6.4c-0.2-0.5,0-1.2,0-2.7c1,1.2,1.5,1.9,2.1,2.6c0.3-1.1,0.6-2.2,0.9-3.3c0.1,0,0.3,0,0.4,0
		c0.1,0.9,0.2,1.8,0.4,3.3c0.9-2.8,1.6-5,2.4-7.4c-1,0-1.9,0-3.2,0c0.8-2.3,1.5-4.4,2.2-6.7c-0.5-1-1.2-2.5-1.7-3.7
		c-0.7,0.3-1.8,1.1-2,0.8c-1.1-1.2-2-2.7-3-4.1c0.3-0.4,0.5-0.7,0.8-1.1c1,0.5,2,1.2,3,1.6c0.8,0.3,1.7,0.1,2.5,0.2
		c-0.2-0.9-0.2-1.9-0.6-2.6c-1.3-2.2-2.9-4.2-4.3-6.3c0.1-0.3,0.1-0.6,0.2-0.9c1.7-0.1,3.3-0.3,5-0.3c1.4,0,2.9,0.1,4.3,0.3
		c0.6,0.1,1.1,0.6,1.7,1c-0.5,0.3-1.1,0.6-2,1.2c0.8,0.7,1.6,1.4,2.4,2.1c-0.5,1.6,0.6,3.9,2.3,3.9c2.5,0,4.7,0.6,6.7,2.6
		c0.4,0.4,1.2,0.3,1.8,0.4c4.2,0.3,8.5,0.6,12.7,0.9c0.5,0,1.1,0.1,1.4,0.4c1.6,2,3.4,2.5,5.6,1.4c0.2-0.1,1.2,1.6,1.4,1.9
		c3,1.6,5.7,2.7,8.1,4.4c1,0.7,1.5,2.4,2.2,3.6c0.4,0.8,0.7,1.7,1.3,2.3c2.8,2.6,5.7,5.2,8.6,7.7c0.6,0.5,1.3,0.9,2.3,1.6
		c-1,1.7-2.1,3.6-3.1,5.3c0.8,0.6,1.6,1.3,2.8,2.2c-1.6-0.1-2.5-0.2-3.4-0.2c1.9,1.9,1.7,2.9-0.9,5.8c2.7,2.6,2.5,2.5-0.9,4.7
		c-1,0.6-1.2,2.9-1.7,4.4c-0.4-0.5-0.8-1.1-1.2-1.6c0.8,1.5,1.6,3,2.6,4.9c6.1-1.9,11.3,4,17.6,5.3c0.1-1,0.2-1.8,0.2-2
		c1.5-0.9,3.3-1.4,3.9-2.6c1-2.1-0.2-4-1.6-5.6c-0.5-0.6-0.6-1.6-0.9-2.4c0.7-0.3,1.4-0.6,2.1-0.8c1.5-0.4,2-1,1.3-2.9
		c-0.4-1.1-0.2-2.5-0.2-3.7c0.9,0.1,1.9,0,2.7,0.5c3.5,1.9,5.3,0.8,6.5-3.4c0.8-2.8,2.2-5.4,3.7-7.9c0.4-0.6,2.1-0.7,2.9-0.2
		c0.7,0.4,1.6,2.2,1.4,2.8c-1.2,2.5,0.4,3.7,0.9,5.4c0.2,1.1,0.4,2.3,0.6,3.4c0.1,0.6,0.3,1.4,0,1.7c-1.8,2.1-0.9,3.6,0.8,4.9
		c1.1,0.9,3,1,2.3,3.7c-0.1,0.5,2.1,1.8,3.3,2.8c0.4,0.3,0.8,0.5,1.4,0.9c0.3-0.9,0.5-1.6,0.7-2.4c3,1,5.3,0.5,7.5-2.4
		c1.1-1.5,3.3-2.5,5.1-2.7c2.8-0.3,5.7,0.4,8.6,0.3c1.1-0.1,2.4-1,3.1-2c1.1-1.7,1.8-3.8,2.7-5.8c-0.2,0-0.6,0.1-1.1,0.1
		c-0.2-0.2-0.3-0.4-0.5-0.6c1.9-2.4,3.9-4.7,5.5-6.6c0.7-3.4,1.4-6.5,2.1-9.8c0,0-0.5-0.2-0.9-0.4c-0.1-0.3-0.1-0.6-0.2-0.9
		c1.9-0.7,3.7-1.3,5.8-2.1c0-0.5,0.2-1.3,0.1-2.1c-0.3-3.5,0.4-6.5,2.9-8.9c1.1-1.1,1.4-3,2.3-5.3c0.5,4.4,0.9,8,1.2,11.6
		c0,0.3,0.1,0.7-0.1,0.8c-3,2.6,0.1,4.3,0.7,6.3c0.5,1.6,3.2,2.8,0.5,4.9c-0.2,0.1,0.3,1.2,0.5,2.3c4-5.2,6.1-10.7,6.7-16.9
		c0.7-3.6,3.9-5.1,5.1-8.8c1.2-4,2-8.1,3.6-11.9c0.6-1.4,2.1-2.4,3.6-3.9c0.3,5.5,0.9,10.8,0.9,16.1c0,5.3-0.5,10.6-0.8,16.2
		c2.6,0,4.9,0,7.3,0c-0.1-0.2-0.3-0.4-0.4-0.6c1.2-1.1,2.6-2,3.7-3.3c0.8-1,1.7-2.4,1.8-3.7c0.3-4,1.2-7.7,2.8-11.3
		c0.7-1.7,1.7-3.6,0.4-5.7c-0.3-0.5,0.4-1.9,0.7-2.8c0.5-1.7,1-3.3,1.5-5c-0.2-0.1-0.4-0.2-0.6-0.3c-0.4,0.4-0.8,0.7-1.3,1.2
		c0.2-2.8,0.1-5.5,0.6-8c0.6-2.7,1.7-5.2,2.8-8.2c2.1-0.8,1.5,1.6,1.8,3.1c2.8,0.3,2.6,2.4,2.3,4.8c-0.2,1.3-0.1,2.8,0.3,4
		c0.7,1.9,0.8,3.3-1,4.5c-0.2,0.1,0,1.5,0.2,2.2c0.2,0.8,0.6,1.6,1,2.5c1.6-0.5,4.5,3.4,3.6,6.1c-0.5,1.7,0,2.3,0.9,3.2
		c0.9,0.9,1.9,1.8,2.5,3c0.6,1.2,1.1,2.9-1.2,2.9c0.3,1.3,3.1,2.6,0,3.8c1.9,2.8,1.3,7-1.2,8.7c-1.8,1.2-1.8,1.2-4.6-0.2
		c0.3,2.4-1.5,4.9,1.2,7c-2.5,1.5-4.9,3-7.9,4.8c2.5,0.8,3.5,1.8,2.9,4.1c-0.1,0.3,0.9,1.2,1.5,1.6c1.2,0.7,2.4,1.1,3.7,1.6
		c-0.9,1.7-1.9,3.4-2.9,5c-1.2,1.9-2.6,3.2-4.8,2.5c-0.8-0.2-1.6-0.1-2.2,0.5c-0.5,0.4-1.1,0.8-1.6,1.2c0.3,0.7,3,0.7,0.5,2.3
		c-0.2,0.2-0.2,1.1-0.1,1.6c0.3,1.7,0.8,3.4,1.2,5.2c0.3,0,0.5,0,0.8,0c0.1-1.2,0.2-2.4,0.4-4.1c1.7-0.2,4-0.4,6.3-0.6
		c0.3,0,0.9,0.8,0.9,1.3c0.1,4.5-0.1,8.7-3,12.3c-1.6,2-2.9,4.1-5.1,5.2c-0.6,0.3-0.8,1.9-1.5,3.4c2.6-0.2,4.8-0.3,7-0.5
		c0.3,0,0.7-0.4,0.9-0.8c1.7-2.9,3.3-5.9,5.2-8.7c1.5-2.4,3.2-4.6,5-6.7c1-1.1,1.7-1.9,0.9-3.5c-0.2-0.5-0.2-1.1-0.1-1.6
		c0.2-0.8,0.6-1.5,0.8-2.3c0.6,0.5,1.2,0.9,1.8,1.5c0.2,0.2,0.4,0.6,0.3,0.5c3.7-1.8,7.3-3.4,10.9-5.1c-3.7-2.6-6.9-4.9-10.2-7.3
		c1-0.8,1.6-1.4,2.2-1.9c-0.4-0.4-0.9-0.9-1.1-1.1c1.1-3.5,2.3-6.6,6-6.5c0,0.2,0.1,1,0.4,1.7c0.5,1,0.7,1.6,2.3,0.9
		c2.3-1,4.3-2.2,6-4.2c0.3-0.4,1.1-0.3,1.3-0.3c0.6-2.3,0.9-4.5,1.6-6.4c0.8-1.9,2-3.5,3.1-5.2c0.2,0.1,0.4,0.3,0.6,0.4
		c-0.6,0-1.2,0.1-2,0.1c0-0.4-0.2-1.1,0-1.3c2.5-2.2,3.5-6.9,7-7.2c0.3,4.8,0.7,9.2,0.8,13.6c0,1.9,0.5,4.4-2.2,5
		c-0.5,0.1-0.8,1.3-1.2,2.1c0.8,0,1.5,0.1,2.6,0.1c0.7,1.8,1.6,4,2.5,6.3c-0.2,0.1-0.3,0.3-0.5,0.4c1,0.2,2,0.5,3.3,0.8
		c0.1-2.5,0.2-4.9,0.4-7.3c0-0.5,0.3-1,0.6-1.4c1.8-1.7,3.6-3.4,5.2-4.8c0.3,2.9,0.6,6,1,9c-0.2-0.1-0.7-0.4-1.7-1
		c0.7,3.9,1.3,7.5,1.9,11.3c1.5-3.3,2.8-6.1,4.1-8.8c-0.1-0.8-0.6-1.8-0.3-2.5c1.2-3.8,1.2-3.8,4.1-4.1c0.8-2.7-0.8-6.4,2.3-8.6
		c1.8,1.8,0.5,4.3,1.1,6.2c0.6,1.9,1.5,3.6,2.3,5.8c-0.8-0.4-1.2-0.6-2-1c0.8,2.3,1.5,4.3,2.3,6.7c2.8-0.5,3.6-4.9,6.8-5.4
		c0.2,1,0.5,2,0.7,3c1.8-1.4,3-2.9,1.7-5.7c-1.3-0.1-2.8-0.2-3.7-0.3c0.1-1.3,0-2.5,0.2-3.5c0.2-0.8,0.9-1.4,1.3-2.1
		c2-2.8,4.1-5.6,6.1-8.5c-0.2-0.2-0.5-0.5-0.7-0.7c-0.9,0.8-1.7,1.6-2.6,2.4c-0.2-0.1-0.4-0.3-0.6-0.4c0.7-1.5,1.4-3.1,2.2-4.6
		c1.3-2.7,2.7-5.3,4.1-8c0.3-0.6,0.8-0.9,1.2-1.4c0.3,0.5,0.6,1.1,0.9,1.6c0.6,1,1.2,2,1.9,2.9c1,1.3,2.1,2.5,3.2,3.8
		c-0.1,0.2-0.3,0.4-0.4,0.6c-0.7-0.3-1.3-0.6-2.7-1.3c2.2,2.3,2.1,4.2,1,6.4c-0.4,0.7,0.6,2.4,1.1,3.8c-0.5,0-1,0-2.5,0
		c3.8,3.3,1.3,7.9,3.3,11.4c0.2,0.4-0.4,1.5-0.6,2.3c-0.8-0.4-1.6-0.9-2.5-1.4c-0.2,3.2-0.4,6.9-0.5,10.6c0,0.8,0.9,1.7,1.4,2.5
		c0.9,1.7,0.1,3.6-1,3.6c-2.3,0-1.6,2.1-2.3,3.2c-0.5,0.7-0.5,1.9-0.8,3c1.2,0,2.4,0,3.7,0c0.7-3.4,3.1-4.3,6.2-4.4
		c-1.4-2.7-2-4.9,1.9-4.8c-0.6-1-0.9-1.5-1.2-2c2.1-1.8,4.1-3.6,6.5-5.7c0,3.5,0,7,0,10.5c0,1.2-0.1,2.3,0,3.5
		c0.2,2.5-0.4,3.1-3.1,2.1c0.9,2.2,1.6,3.9,2.2,5.7c0.6,1.6,2,3.4-0.3,4.9c-0.3,0.2-0.6,1.1-0.5,1.5c1,3,1.6,6.4,3.3,8.7
		c1.4,1.8,4.2,2.5,6.4,3.1c2.1,0.6,4.3,0.3,6.1,0.4c2.2-2.3,4.2-4.4,6.1-6.5c1.1-1.3,2.3-2.5,3.2-4c0.7-1.1,0.8-2.6,1.4-3.8
		c1.9-3.6,3.9-7.1,6.1-11.2c0.6,1,1.2,1.9,1.9,2.9c0.6-0.7,1.2-1.6,1.9-2.4c-0.8-0.6-1.5-1.1-2.9-2c1.8-0.6,2.9-1,3.8-1.3
		c0-2.4,0-4.9,0-7.5c-0.7,0-1.5,0-2.9,0c0.8-2.4,1.6-4.5,2.4-6.9c0,0-0.3-0.3-0.6-0.5c0.1-0.2,0.1-0.3,0.2-0.5
		c0.9-1.6,1.7-3.2,2.7-4.7c0.5-0.7,1.2-1.2,1.8-1.8c0.3,0.8,0.7,1.5,0.9,2.3c0.6,2.6,1.2,5.3,1.8,8c0.2,0.9,0.3,1.7,0.1,2.8
		c-0.4-0.7-0.8-1.5-1.2-2.2c-0.3,0.1-0.6,0.2-0.8,0.3c0.4,1.8,0.8,3.7,1.3,5.5c0.5,2.1,2.1,4,0,6.2c-0.3,0.3,0.5,2.5,1.2,3.5
		c1.1,1.6,1.1,2.9,0.1,4.6c-0.8-0.5-1.6-1-2.3-1.4c-0.2,0.1-0.4,0.2-0.6,0.3c0.4,1,0.5,2.2,1.1,2.8c1.5,1.7,1.9,3.5,1.2,5.8
		c-0.7,0-1.5-0.1-3-0.2c1.8,2.6,3.4,4.6,4.7,6.7c0.6,1,1.3,2.3,1.3,3.4c0,0.7-1.4,1.3-2.5,2.1c1.4,1.5,2.8,3.1,4.7,5.2
		c-1.5,1.5-3.2,3.3-4.9,5.1c-0.7,0.7-1.4,1.4-1.9,2.3c-0.4,0.7-0.7,1.6-1,2.5c-0.2,0.6-0.3,1.3-0.4,2c0.6,0,1.1,0.1,1.7,0
		c0.5-0.1,1-0.4,2-0.9c-1.1,2.3-1.9,3.9-2.7,5.6c-4.3,3.4-5,5.1-4.1,9.2c3.7-1.5,2.8-6,4.3-8.9c2.3-2.2,4.6-4.4,7-6.5
		c1.2-1.1,2.3-2.2,3.6-3.1c0.3-0.2,1.2,0.3,1.6,0.7c5.5,4.8,7.3,6.7,14.1,1.6c1.2-0.9,2.2-2,3.3-3c-0.1-0.2-0.3-0.4-0.4-0.7
		c0.6,0.2,1.3,0.3,1.7,0.4c0,3.2,0,6.3,0,9.6c-0.6,0-1.3,0-2,0c0,0.8,0,1.6,0,2.8c0.8-0.7,1.4-1.2,1.9-1.7
		c-0.2,4.8-0.6,9.5-0.7,14.2c-0.1,2.6,0.2,5.2,0.4,7.8c0,0.5,0.2,1.1,0.5,1.5c2.7,3.1,1.1,6-0.3,8.9c-0.2,0.3-0.3,0.6-0.4,1
		c-0.1,0.2,0,0.4-0.1,0.9c2.4,0,4.7,0,6.1,0c1.7-1.6,3-2.5,4-3.8c0.9-1.1,1.9-2.5,2-3.8c0.3-4,1.2-7.7,2.8-11.3
		c0.7-1.7,1.7-3.6,0.4-5.7c-0.3-0.5,0.4-1.8,0.7-2.8c0.5-1.7,1-3.3,1.5-5c-0.3-0.2-0.5-0.4-0.8-0.5c-0.1,0.7-0.2,1.3-0.4,2
		c-0.3-0.2-0.6-0.5-0.9-0.7c0.3-1.3,0.6-2.6,0.8-3.9c-0.2,0-0.3-0.1-0.5-0.1c0.2-1.5,0.2-3.1,0.6-4.5c0.7-2.5,1.6-4.9,2.6-7.5
		c0,0,0.5-0.2,0.6-0.1c0.9,1.2,1.5,2.7,2.5,3.5c1.8,1.3,1,3,0.9,4.6c0,1.1,0,2.4,0.3,3.4c0.5,1.9,1,3.7-1,5
		c-0.2,0.1-0.1,1.3,0.1,1.9c0.3,1,0.8,1.8,1.3,2.8c0.9-0.4,4,2.3,3.6,4.2c-0.9,3.6,1.3,5.2,2.8,7.3c1.4,1.9,1.3,3-0.5,3.9
		c0.4,1.1,2.7,2.4,0,3.4c2.2,4.4,0.8,7.5-2.5,10.2c-1-0.5-2-1-3.4-1.7c0.2,2.5-1.4,5,1.1,7c-2.5,1.5-4.9,3-7.2,4.4
		c2.6,4.3,6.1,3.6,9.5,3.6c2.8,0,5.6,0,8.4,0c1.4,0,2.9,0.6,3.5-2.1c0.3-1.2,2.8-1.7,4.4-2.6c0.2,0.7,0.2,1.6,0.6,2.2
		c0.3,0.6,1.2,1.5,1.5,1.4c1.9-1,3.6-2.2,5.4-3.4c0.9-0.6,1.8-1.2,3-2.1c-1.2-4.7,2.4-7.1,5.4-10.5c-1.2,0.1-1.8,0.1-2.5,0.2
		c0-0.4-0.1-1,0-1.3c2.2-4.2,5.5-7.2,7-6.9c0.3,4.5,0.6,8.8,0.7,13.2c0.1,2,0.6,4.6-2.2,5.3c-0.5,0.1-0.8,1.4-1.2,2.1
		c0.8,0,1.5,0,2.4,0c0.5,0.9,1.3,2.1,1.8,3.4c0.7,2,2.3,1.8,3.2,1.1c0.8-0.6,0.9-2.4,1.3-3.7c0.2-0.7,0.2-1.7,0.6-2.2
		c1.6-1.7,3.3-3.1,4.9-4.5c0.3,2.9,0.6,6.1,0.9,9.1c-0.2-0.1-0.8-0.5-1.4-0.9c-0.1,2.8,0.2,2.9,5.6,2.3c-0.2-1.7-1-3.8-0.4-4.9
		c0.8-1.2,2.7-1.5,4.5-2.4c0.6-2.2-1-5.9,2.8-8.2c0.2,2.4,0.1,4.5,0.6,6.4c0.4,1.9,1.4,3.7,2.3,5.9c-0.7-0.3-1.1-0.5-1.5-0.7
		c-0.1,0.1-0.2,0.3-0.2,0.4c0.7,1.2,1.3,3.1,2.2,3.5c1.2,0.4,3.1,1.3,4-1.4c0.2-0.7,1.5-1,2.7-1.7c0.3,1.1,0.5,2.1,0.7,3
		c0.2,0.1,0.4,0.2,0.6,0.3c0.5-1.5,1.7-3.1,1.4-4.5c-0.5-2.9-3-0.8-4-1.5c0.1-1.5-0.1-2.7,0.2-3.8c0.2-0.8,0.8-1.5,1.4-2.1
		c2.4-2.5,4.3-5.5,5.3-9.2c-0.8,0.8-1.6,1.6-2.4,2.4c-0.2-0.1-0.4-0.2-0.6-0.4c0.6-1.5,1.2-3,1.9-4.4c1.3-2.7,2.7-5.3,4.1-7.9
		c0.3-0.6,0.9-1.1,1.4-1.6c0.3,0.6,0.5,1.2,0.9,1.7c0.6,0.9,1.1,1.9,1.8,2.7c1.1,1.3,2.2,2.6,3.3,3.9c-0.2,0.2-0.3,0.4-0.5,0.6
		c-0.7-0.3-1.3-0.7-2-1c1.7,2.1,1.2,4,0.3,6.2c-0.3,0.8,0.7,2.4,1.1,3.8c-0.6,0-1.1-0.1-1.3-0.1c0.6,3.8,1.3,7.5,1.9,11.2
		c0.2,0,0.4,0.1,0.6,0.1c0.8-1.8,1.7-3.9,3.6-2.7c0.9,0.6,2,2.6,1.8,3.5c-0.7,2.3-0.2,2.9,1.7,2.9c1.9,0,3.7,0,5.6,0
		c9.4,0,18.8,0.1,28.2-0.1c2-0.1,4.1-1.5,5.3-2c0.8-4.1,1.4-7.2,2.1-10.7c0.1,0-0.4-0.2-0.8-0.4c-0.1-0.3-0.1-0.6-0.2-0.9
		c1.8-0.7,3.7-1.4,6-2.3c0-1.2-0.1-3,0-4.7c0.1-1.2,0.2-2.4,0.8-3.4c0.7-1.3,1.9-2.2,2.6-3.5c0.6-1.2,0.9-2.6,1.4-3.9
		c0.2,0,0.4,0,0.6,0c0.1,2.4,0.2,4.7,0.4,7.1c0.1,0.8,0.3,1.6,0.4,2.4c0.2,1.1,1,2.3-0.7,2.9c-0.2,0.1-0.3,1.6,0,2.2
		c0.8,1.8,1.8,3.5,2.8,5.2c0.5,1,1.1,1.8-0.1,2.8c-0.4,0.3-0.2,1.4,0.1,2.2c1.7-2.3,4-3.7,4-7.1c0-1.6,1.5-3,1.9-4.7
		c0.4-1.5-0.1-3.5,0.5-4.8c0.8-1.9,2.3-3.3,3.4-5c0.5-0.8,1.1-1.5,1.4-2.4c1.3-3.4,2.7-6.8,3.5-10.4c0.6-2.7,1.9-4.5,3.9-6.6
		c0.3,0.7,0.7,1.3,0.7,1.9c0,3.1-0.3,6.3-0.3,9.4c0,1.7,0.7,3.3,0.8,5c0.2,1.9,0.1,3.8,0,5.7c-0.3,3.4-0.7,6.8-1,10.5
		c2.7,0,5.1,0,7.4,0c-0.1-0.2-0.3-0.4-0.4-0.6c1.2-1.1,2.5-2,3.4-3.2c0.9-1.1,1.9-2.5,2-3.9c0.3-3.9,1.2-7.5,2.7-11
		c0.8-1.8,1.8-3.7,0.4-6c-0.3-0.4,0.3-1.7,0.6-2.6c0.5-1.7,1.1-3.4,1.7-5.1c-0.2-0.1-0.3-0.2-0.5-0.4c-0.4,0.3-0.9,0.7-1.4,1
		c-0.1-5.7,1.2-10.8,3.4-15.9c1.4-0.2,1.4-0.2,1.8,2.9c2.7,0.3,2.5,2.4,2.2,4.8c-0.2,1.3-0.2,2.8,0.3,4c0.7,1.9,0.8,3.3-0.9,4.5
		c-0.3,0.2-0.2,1.4,0,2c0.3,0.8,0.8,1.5,1.4,2.5c1.5-0.1,4.2,3.9,3.4,6.3c-0.6,1.7,0,2.3,0.9,3.2c0.9,0.8,1.7,1.8,2.3,2.8
		c0.8,1.4,1.1,2.8-0.9,3.3c0.4,0.8,0.9,1.5,1.3,2.3c-0.2,0.1-0.5,0.1-0.7,0.2c0.1,1.1,0,2.2,0.2,3.1c0.6,2.4-1.2,7.6-3.1,7.9
		c-1,0.2-2.2-0.9-3.2-1.4c-1.1,3.2-1,4.8,0.7,6.9c-2.4,1.5-4.8,2.9-7.1,4.4c2.2,3.7,5.2,3.7,8.2,3.6c3.5-0.1,7.1,0,10.6,0
		c1.1,0,2.3,0.2,2.4-1.8c0-0.4,0.9-0.9,1.4-1.2c1-0.6,2.1-1.1,3.3-1.7c0.2,0.7,0.2,1.6,0.6,2.3c0.3,0.6,1.3,1.4,1.6,1.2
		c1.9-1.1,3.7-2.5,5.6-3.7c0.8-0.6,1.7-1,2.9-1.7c-1.4-4.9,2.4-7.3,5.5-10.8c-1.3,0.2-2,0.2-2.6,0.3c0.3-3.6,5.3-8.7,7-8.2
		c0.2,4.4,0.2,8.6,0.7,12.7c0.3,2.8-0.1,4.4-2,5.6c-0.6,0.3-0.9,1.1-1.3,1.8c-0.1,0.1,0.3,0.8,0.5,0.8c0.6-0.1,1.2-0.4,1.9-0.6
		c0.6,1.1,1.1,2.6,2.1,3.7c0.7,0.8,2.4,1.5,2.9,1.1c0.8-0.7,1-2.3,1.4-3.6c0.3-0.8,0.2-1.9,0.6-2.4c1.5-1.6,3.2-3,4.8-4.4
		c0.3,2.8,0.6,6,0.9,9c-0.2-0.1-0.7-0.5-1.3-0.8c-0.3,2.6,0.9,3.1,5.5,2.1c-0.2-1.6-1-3.7-0.4-4.6c0.8-1.3,2.7-1.6,4.6-2.6
		c0-0.8-0.2-2.4,0.1-3.9c0.2-1.4,1-2.7,1.5-4c0.4,0.1,0.8,0.1,1.2,0.2c0.2,2,0.1,4,0.5,5.9c0.5,1.9,1.4,3.7,2.3,5.9
		c-0.7-0.3-1.2-0.5-1.7-0.7c0.5,3.6,2.7,5.5,5.1,4c1.2-0.7,2.2-2.2,3.6-3.6c0.4,1.6,0.6,2.6,0.8,3.5c2.7-2.3,2.7-2.3,1.8-5.6
		c-1.4-0.1-2.8-0.2-3.7-0.3c0.1-1.3,0-2.4,0.2-3.5c0.1-0.6,0.5-1.3,0.9-1.8c1.9-2.6,3.8-5.1,5.7-7.7c0.3-0.4,0.2-1.1,0.5-2.3
		c-1.3,1.3-2.1,2.1-2.9,2.9c-0.2-0.1-0.4-0.3-0.7-0.4c0.7-1.5,1.4-3,2.1-4.5c1.3-2.7,2.7-5.3,4.1-8c0.3-0.6,0.8-1,1.2-1.5
		c0.3,0.5,0.6,1,1,1.6c0.6,1,1.2,2,1.9,2.9c1,1.3,2.2,2.5,3.2,3.8c-0.1,0.2-0.3,0.4-0.4,0.6c-0.7-0.3-1.3-0.6-2.7-1.2
		c2.2,2.4,1.9,4.3,0.8,6.6c-0.3,0.7,0.7,2.2,1.2,3.6c-0.6,0-1.1,0-1.7,0c0.1,0.6,0.2,1.1,0.3,1.6c0.4,2.2,0.9,4.4,1.3,6.5
		c0.1,0.7,0.3,1.4,0.4,2.2c0.1,1.1,0.1,2.2,0.1,3.2c-0.9-0.3-1.7-0.7-2.8-1.1c0,0.3-0.2,1.2-0.5,2.5c1.1,0.1,1.9,0.2,2.8,0.2
		c14.6,0,29.3,0,43.9,0.1c2.5,0,4.2-0.6,4.8-3.7c0.1-0.7,0.4-1.5,0.8-2c0.4-0.5,1-0.8,1.6-0.8c0.3,0,0.7,0.9,0.7,1.5
		c0.2,1.5,0.3,3.1,0.5,5c2.2,0,4.5,0.5,6.5-0.2c1.4-0.5,2.8-2.4,3.5-4.1c0.8-2.3,2.1-2.9,3.7-2.1c1.3,0.7,2.3,1.9,1,4.1
		c-0.6,1,0.5,2.3,1.9,2.2c3.7,0,7.4,0,11.1,0c6.1,0,12.2,0,18.3,0c3.7,0,7.6,1,9.9-2.5c0.7-3.6,1.3-6.8,2-10.2
		c0.1,0-0.4-0.2-0.8-0.4c-0.1-0.3-0.1-0.6-0.2-0.9c1.8-0.7,3.7-1.4,6-2.2c0-1.3-0.1-3,0-4.7c0.1-1.2,0.2-2.5,0.8-3.4
		c1.4-2.5,2.9-4.8,4.6-7.4c0.1,2.3,0.2,4.7,0.4,7c0.1,0.8,0.3,1.6,0.4,2.4c0.2,1.1,1,2.3-0.7,2.9c-0.2,0.1-0.3,1.6,0,2.2
		c1,2.3,2.3,4.4,3.5,6.8c0,1.1-2.8,1.8-0.3,3.4c3.6-4.7,5.6-10.2,6.3-16.3c0.5-3.8,3.6-5.4,5.1-8.8c1.5-3.3,1-7,3-10.1
		c1.1-1.8,2.2-3.8,3.8-6c0.3,0.8,0.8,1.4,0.7,2c0,3.2-0.3,6.4-0.3,9.7c0,1.5,0.6,3,0.7,4.5c0.1,2,0,4.1-0.1,6.2
		c-0.2,3.3-0.5,6.7-0.8,10.2c2.7,0,5.1,0,7.5,0c-0.1-0.2-0.2-0.4-0.4-0.6c1-1,1.9-2.5,3.1-2.9c2.1-0.8,2.1-2.7,2.3-4.3
		c0.4-3.8,1.1-7.3,2.7-10.8c0.8-1.7,2-3.7,0.5-6c-0.3-0.5,0.3-1.9,0.6-2.8c0.5-1.7,1.1-3.4,1.6-5.1c-0.2-0.1-0.3-0.2-0.5-0.3
		c-0.4,0.3-0.8,0.7-1.8,1.5c0.5-1.9,0.8-3.2,1-4.4c-0.2,0-0.3-0.1-0.5-0.1c0.2-1.5,0.2-3.1,0.6-4.5c0.7-2.5,1.6-4.9,2.5-7.4
		c1.6-0.1,1.6-0.1,1.9,2.9c2.8,0.4,2.7,2.5,2.2,5c-0.2,1.2,0,2.6,0.3,3.7c0.6,1.9,0.8,3.5-1,4.7c-0.2,0.1,0,1.4,0.2,2
		c0.3,0.9,0.7,1.8,1,2.6c0.4,0.1,1.2-0.1,1.4,0.3c1.1,1.7,3.2,3.1,2.3,5.7c-0.6,1.7-0.1,2.5,1,3.4c0.9,0.8,1.7,1.7,2.3,2.8
		c0.7,1.4,1,2.9-1.1,3.2c0.3,1.2,3,2.4,0,3.6c2,3.1,0.8,8.9-2.2,10c-0.9,0.3-2.1-0.8-3.9-1.6c0.2,2.6,0.3,4.9,0.5,7.2
		c0.3,0.2,0.5,0.3,0.8,0.5c-1.3,0.4-2.7,0.6-3.9,1.3c-1.1,0.7-2,1.9-2.9,2.8c1.9,2.6,4.2,3.6,7.2,3.3c3.8-0.3,7.7-0.1,11.6-0.1
		c1.1,0,2.1,0.1,2.2-1.8c0-0.5,0.8-1,1.3-1.3c1.1-0.6,2.2-1.1,3.3-1.7c0.1,0.6,0.2,1.5,0.5,2.2c0.3,0.6,1.2,1.5,1.5,1.3
		c1.9-1,3.6-2.3,5.4-3.5c0.9-0.6,1.8-1.2,3-2.1c-1.2-4.7,2.3-7.2,5.5-10.6c-1.3,0.1-1.9,0.1-2.5,0.2c0.1-3.2,5.1-8.5,7-8.1
		c0.2,4.4,0.5,8.7,0.7,12.9c0.1,2.2,0.6,4.7-2.2,5.5c-0.5,0.1-0.8,1.4-1.1,2.1c0.7,0.1,1.4,0.1,2.5,0.2c0.4,0.7,1.2,1.9,1.8,3.3
		c0.8,1.9,2.4,1.7,3.2,1c0.8-0.6,0.8-2.4,1.2-3.7c0.2-0.7,0.1-1.6,0.5-2c1.7-1.7,3.5-3.2,5-4.7c0.3,2.9,0.6,6.1,1,9.1
		c-0.2-0.1-0.7-0.5-1.4-0.9c-0.1,0.4-0.2,0.8-0.2,1.1c0.4,1.7,1.4,1.9,5.8,1.2c-0.2-1.6-1-3.6-0.5-4.6c0.7-1.3,2.6-1.7,4-2.5
		c0.2,0.2,0.4,0.4,0.6,0.5c0-1.5-0.2-3.1,0.1-4.6c0.2-1.4,0.9-2.7,1.6-4.5c2.2,2.3,0.9,4.7,1.6,6.7c0.6,1.9,1.5,3.6,2.3,5.8
		c-0.8-0.4-1.2-0.6-1.6-0.8c-0.2,0.2-0.3,0.3-0.5,0.5c0.8,1.2,1.4,3.1,2.4,3.4c1.2,0.4,3.1,1.5,4-1.2c0.3-0.8,1.6-1.1,2.7-1.8
		c0.3,1.1,0.5,2.1,0.7,3c2.1-1.1,2.9-2.8,1.8-5.5c-1.4-0.1-2.8-0.2-3.6-0.2c0-1.4-0.2-2.6,0.1-3.7c0.1-0.7,0.8-1.3,1.2-1.9
		c1.9-2.6,3.8-5.2,5.6-7.8c0.2-0.3,0.1-0.8,0.2-1.8c-1.1,1.1-2,1.9-2.8,2.7c-0.3-3.9,2-8.3,5.1-10
		C1227.6,581,1227.6,686.5,1227.6,792.1z M664.4,475c1.3-4.5,2.5-8.7,3.8-12.9c-4.5,0-9.2,0-14,0c0.4,0.8,0.7,1.2,1.1,2.1
		c-2-0.8-2.9-0.2-2.9,1.9c0.1,2.1,1.3,2.8,2.9,2.8c1.3-0.1,2.5-0.2,3.8-0.3c-0.2,1-0.4,1.5-0.7,1.5c-2.7,0.2-5.3,0.3-8,0.4
		c-0.7,0-1.8,0-2,0.5c-0.4,0.6-0.1,1.7-0.1,3.1c1-0.9,1.6-1.4,2-1.8c0.6,0.8,1,1.6,1.6,1.9C656,476.3,660.2,475.2,664.4,475z
		 M323.5,391.1c-1.3-0.2-2.6-0.4-3.8-0.5c0.8-6.5-4-2.9-5.8-4.9c0.5,2.8,3.8,4.5,1.9,8.1c-0.6,0-1.4,0-2.5,0c0.8,1.2,1.3,2.1,1.9,3
		c0.4-0.2,0.9-0.7,1.3-0.7c1.2-0.1,2.4-0.1,3.6-0.1C323.8,396,323.9,395.9,323.5,391.1z M314.8,371.7c3.5-2,7.4,0,10.3-2.7
		c-2.6-3.5-6-2.8-9.2-3.3c0,0.9,0,1.7,0,2.9c-0.5-1.1-0.9-1.8-1.2-2.5c-0.3,0.1-0.5,0.2-0.8,0.3
		C314.2,368.1,314.5,369.8,314.8,371.7z M559.2,415.3c0.7-5.5-1.4-15.2-3.9-17.6C554.2,400.6,556.8,413,559.2,415.3z M540.8,387.5
		c-0.7,4.2,2.8,11.9,5.2,12C544.2,395.4,542.5,391.4,540.8,387.5z M657.4,492.1c-0.2-0.3-0.4-0.7-0.7-1c-0.7,0.3-1.7,0.5-2,1.1
		c-0.7,1.3-1,2.9-1.4,4.4c0.2,0.1,0.5,0.1,0.7,0.2C655.1,495.2,656.2,493.7,657.4,492.1z M22.6,309.4c0.1,0,0.2,0,0.3,0
		c0-2.3,0-4.6,0-6.9c-0.1,0-0.2,0-0.3,0C22.6,304.8,22.6,307.1,22.6,309.4z M587.7,417.1c-1.8-5.1,2.7-3.8,3.6-6.4
		c-3.1,0-5.1,1.5-6.1,4.9C585.7,415.9,586.3,416.3,587.7,417.1z"/>
	<path class="st3" d="M206.8,310.3c-4.9-0.2-4.9-0.1-3.3-5.3c0.3-0.9,0.4-1.9,0.6-3.1c-1.2-0.3-2.2-0.5-3.4-0.7
		c-0.2-1.5-0.6-3-0.6-4.5c0-2.4-0.5-4.2-2.7-4.2c-1.5-1.7,0.7-3.7-0.5-5.3c0-0.1,0.3-0.6,0.6-0.8c3-2.4,6-4.8,9.1-7.3
		c2.3,6.7,1.1,13.9,0.9,21.1c-0.5-1.4-1-2.8-1.8-4.9c0,3.2,0,5.6,0,7.5c0.8,1.3,2,2.3,2.1,3.5C207.9,307.5,207.2,309,206.8,310.3z"
		/>
	<path class="st4" d="M313.7,335.3c-0.1,0-0.7-0.5-1-0.3c-3.7,2.8-6.4-1.3-9.7-1.7c-0.4-0.1-0.7-1.2-0.9-2c-0.3-1.1-0.4-2.3-0.8-4.1
		c0.7-0.3,2.2-1,3-1.4c1.3-1.1,2.2-1.8,3.1-2.6c0.2,0.2,0.5,0.4,0.7,0.6c0-2.1-0.1-4.2,0-6.2c0.1-1-0.7-3.2,1.1-2.7
		c1.2,0.3,2.5,2.1,2.8,3.5c0.5,2-0.1,4.4,0.1,6.5C312.5,328.4,313.2,331.9,313.7,335.3z"/>
	<path class="st3" d="M664.4,475c-4.1,0.2-8.4,1.3-12.5-0.7c-0.6-0.3-1-1.2-1.6-1.9c-0.4,0.3-1,0.9-2,1.8c0-1.3-0.3-2.4,0.1-3.1
		c0.3-0.5,1.3-0.5,2-0.5c2.7-0.2,5.3-0.2,8-0.4c0.3,0,0.5-0.5,0.7-1.5c-1.3,0.1-2.5,0.2-3.8,0.3c-1.7,0.1-2.8-0.6-2.9-2.8
		c-0.1-2,0.8-2.7,2.9-1.9c-0.5-0.9-0.7-1.3-1.1-2.1c4.8,0,9.5,0,14,0C666.9,466.3,665.7,470.5,664.4,475z"/>
	<path class="st3" d="M323.5,391.1c0.5,4.8,0.4,4.9-3.4,4.9c-1.2,0-2.4,0-3.6,0.1c-0.4,0-0.9,0.4-1.3,0.7c-0.6-0.9-1.1-1.8-1.9-3
		c1.1,0,1.9,0,2.5,0c1.9-3.6-1.3-5.3-1.9-8.1c1.8,2,6.6-1.6,5.8,4.9C320.9,390.8,322.1,391,323.5,391.1z"/>
	<path class="st3" d="M314.8,371.7c-0.3-1.9-0.6-3.6-0.9-5.3c0.3-0.1,0.5-0.2,0.8-0.3c0.3,0.7,0.7,1.4,1.2,2.5c0-1.2,0-2,0-2.9
		c3.2,0.5,6.6-0.2,9.2,3.3C322.2,371.8,318.3,369.7,314.8,371.7z"/>
	<path class="st3" d="M559.2,415.3c-2.4-2.3-5-14.6-3.9-17.6C557.7,400.1,559.9,409.7,559.2,415.3z"/>
	<path class="st3" d="M540.8,387.5c1.7,3.9,3.4,7.9,5.2,12C543.6,399.4,540,391.7,540.8,387.5z"/>
	<path class="st3" d="M642.4,453.8c-1.6,2.9-0.6,7.4-4.3,8.9c-0.9-4.1-0.2-5.7,4.1-9.2C642.3,453.6,642.3,453.7,642.4,453.8z"/>
	<path class="st3" d="M657.4,492.1c-1.1,1.5-2.3,3.1-3.4,4.6c-0.2-0.1-0.5-0.1-0.7-0.2c0.4-1.5,0.7-3.1,1.4-4.4
		c0.3-0.6,1.3-0.7,2-1.1C656.9,491.5,657.1,491.8,657.4,492.1z"/>
	<path class="st3" d="M22.6,309.4c0-2.3,0-4.6,0-6.9c0.1,0,0.2,0,0.3,0c0,2.3,0,4.6,0,6.9C22.8,309.4,22.7,309.4,22.6,309.4z"/>
	<path class="st3" d="M587.7,417.1c-1.4-0.8-2-1.2-2.5-1.5c1-3.4,2.9-4.9,6.1-4.9C590.4,413.3,585.8,412,587.7,417.1z"/>
</g>
</svg>
