<?xml version="1.0" encoding="utf-8"?>
<!-- Generator: Adobe Illustrator 19.0.0, SVG Export Plug-In . SVG Version: 6.00 Build 0)  -->
<svg version="1.1" id="Layer_1" xmlns="http://www.w3.org/2000/svg" xmlns:xlink="http://www.w3.org/1999/xlink" x="0px" y="0px"
	 viewBox="0 0 1224 792" style="enable-background:new 0 0 1224 792;" xml:space="preserve">
<defs>
	<path id="XMLID_3_" d="M194.3,348.8c0.5,2.8,1.2,5.4,1.5,8.1c0.6,4.6,3.3,8.1,6,11.6c0.3,0.4,0.4,0.9,0.6,1.3
		c-0.5-0.2-1.1-0.2-1.4-0.5c-1.2-1.1-2.3-2.3-3.5-3.4c-0.2-0.2-0.6-0.3-1-0.5c-0.1,0.4-0.3,0.8-0.1,1.1c1.6,3.3,3.3,6.5,4.9,9.8
		c0.4,0.9,0.7,1.9,1.1,2.8c-0.9-0.5-1.8-0.9-2.6-1.5c-0.7-0.5-1.3-1.1-2-1.7c0.3,0.9,0.4,1.8,0.9,2.5c2.3,3.4,4.8,6.8,7.2,10.2
		c0.3,0.5,0.8,0.8,1,1.3c0.3,0.7,0.3,1.5,0.5,2.3c-0.9-0.1-1.9-0.1-2.6-0.5c-0.8-0.6-1.3-1.6-2-2.3c-0.5-0.5-1.2-0.7-1.8-1
		c0.1,0.6,0.1,1.1,0.2,1.7c0.6,2.1,1.1,4.3,2,6.3c2.2,4.5,4.8,8.8,7.2,13.2c0.3,0.5,0.4,1.1,0.6,1.7c-0.6-0.2-1.2-0.2-1.7-0.5
		c-1.1-0.9-2.1-1.9-3.2-2.8c-0.3-0.2-0.6-0.4-0.9-0.6c0,0.3-0.1,0.8,0,1c3.1,4.5,5.2,9.9,10.3,13c0.2,0.2,0.4,0.4,0.6,0.7
		c-0.4,0.3-0.8,0.9-1.1,0.8c-1.5-0.5-3-1.1-4.4-1.7c-0.5-0.2-0.9-0.5-1.3-0.7c0.1,0.6,0,1.4,0.3,1.7c3.2,3.2,6.6,6.3,9.9,9.4
		c2.4,2.3,5,4.5,7.3,7c0.6,0.6,0.1,2,0.1,3.1c-0.9,0-2,0.3-2.6-0.1c-3.4-2.2-6.6-4.6-9.8-6.9c-0.5-0.3-0.9-0.7-1.4-1
		c-0.2-0.1-0.4-0.1-0.7-0.1c0,0.2,0,0.5,0.1,0.6c3,5.4,6.2,10.6,11.7,14c1.7,1.1,3.8,5.2,3.4,6.7c-0.3,1-0.7,1.8-2.1,1
		c-1.8-1-3.7-2-5.5-2.9c-0.5-0.3-1.2-0.4-1.8-0.6c0.1,0.6-0.1,1.3,0.2,1.8c1.9,4.1,3.6,8.4,5.8,12.3c1.7,3,4.2,5.6,6.4,8.3
		c0.3,0.4,0.9,0.6,1,1c0.8,3.4,4,4.6,6.4,6.5c0.8,0.7,1.2,1.8,1.7,2.8c0.6,1.3,1.1,2.7,1.7,4c0.2,0.3,1,0.4,1.5,0.5
		c0.6,0.2,1.6,0.1,1.8,0.4c1.2,2.1,3,4.3,3.2,6.5c0.2,2.5-2.5,3.8-5,4.5c-1.4,0.4-2.8,0.6-4.2,1.1c-0.4,0.1-0.8,0.7-1,1.1
		c-0.2,0.6,0.1,1.4-0.2,1.9c-1.6,2.2-1.9,4,1.1,5.4c2,1,3.4,3.2,6.2,2.5c0.7-0.2,1.3-0.4,2-0.7c0.6-0.2,1.3-0.5,1.9-0.7
		c0.1,0.8,0.5,2,0.1,2.4c-2.3,2.1-0.2,2.7,1.2,3.5c0.5,0.3,1,0.5,1.5,0.8c2.1,1.7,2.2,2.7,0,4.3c-0.9,0.7-1.9,1.2-3,1.6
		c-1.4,0.5-1.9,0.6-0.4,1.8c1.6,1.3,2.8,3,4,4.7c0.8,1.1,4.5,2.5,5.9,2c1.2-0.5,2.5-0.9,3.7-1.1c1.6-0.3,2.7,0.2,2.9,2
		c0.1,0.5,1,1.3,1.5,1.3c4,0.1,8.1,0.7,11.9-0.2c2.5-0.6,4.9-1.2,7.4-1.2c0.8,0,1.7,0.8,2.6,0.9c1.9,0.3,3.8,0.3,5.7,0.5
		c0-0.3,0.1-0.7,0-1c-0.3-0.7-0.5-1.8-1-1.9c-1.4-0.3-2.8,0-4.2-0.1c-0.5,0-0.9-0.5-1.3-0.7c0.4-0.3,0.9-1,1.2-0.9
		c2.9,0.6,4.3-1.4,5.9-3.1c0.9-0.9,2-1.6,3.2-2.2c2.2-1.1,2.7-2.3,2-4.7c-0.4-1.2-0.9-2.5,0.9-3.5c0.9-0.5,1.6-1.6,2.2-2.5
		c0.2-0.2,0-0.8-0.3-1c-0.4-0.4-1.5-0.8-1.4-0.9c0.3-0.8,0.7-2,1.2-2.1c3.8-0.4,3.9-4.2,6.3-5.9c0.2-0.1-0.2-1.5-0.5-1.7
		c-1.2-0.4-2.4-0.6-2.3-2.3c0.1-1.4,1.1-1.6,2-2.3c0.9-0.7,3.3-1.8,1.1-3.8c-0.2-0.2-0.1-1.2,0.3-1.6c0.8-0.9,1.8-1.6,2.7-2.4
		c2.2-1.9,4.1-3.8,5.3-6.7c1.1-2.7,3.4-4.9,5.6-7.8c-0.3,1.9-0.5,3.2-0.7,4.6c-0.3,3.5,0,6.9,1.2,10.2c0.2,0.5,1.2,2.4-1.1,1.3
		c-0.1,0-0.7,0.7-0.7,0.8c0.5,1.1,1.2,2.1,1.8,3.1c0.2,0.3,0.2,0.6,0.3,0.9c-0.2-0.2-0.4-0.4-0.6-0.6c-0.2,0.3-0.7,0.8-0.6,1
		c0.7,1.4,1.5,2.7,2.4,4.1c0.3,0.5,1.1,0.9,1.3,1.4c0.3,0.6,0.1,1.4,0.2,2.1c-0.4-0.3-0.9-0.6-1.3-0.8c-0.6-0.3-1.2-0.5-1.7-0.8
		c-0.2,0.8-0.7,1.8-0.5,2.5c1.7,4.1,3.5,8.1,5.3,12.2c0.4,0.9,0.3,1.9,0.4,2.9c-0.9-0.1-1.8-0.3-2.7-0.4c-0.3,0-1,0.2-1,0.3
		c-0.2,3.2-0.1,6.3,2.7,8.6c0.6,0.5,0.8,1.3,1.1,2c-0.6,0.2-1.4,0.2-1.9,0.5c-0.4,0.2-0.9,1-0.8,1.1c1.4,2.3,3,4.6,4.5,6.9
		c0.5,0.8,0.9,1.7,1.4,2.5c-1.2,0.2-2.5,0.7-3.5,0.4c-0.9-0.3-1.4-1.6-2.3-2.2c-0.6-0.4-1.4-0.5-2.1-0.7c0,0.6-0.3,1.3,0,1.8
		c1.4,2.5,2.7,5,4.4,7.4c0.8,1.2,2.4,1.9,3.5,3c0.5,0.5,0.8,1.1,1.2,1.7c-0.7,0.2-1.3,0.4-2,0.6c-0.3,0.1-0.7-0.1-1,0
		c-0.3,0.1-0.4,0.3-0.7,0.5c0.2,0.1,0.3,0.3,0.5,0.4c3.7,1.5,5.9,0.7,8.5-2.5c1-1.2,2.3-2.1,3.7-2.9c0.4-0.2,1.9,0.4,2,0.7
		c0.5,3.2,1,6.5,1.1,9.8c0.1,1.3-0.8,2.6-1.1,3.9c-0.1,0.4,0.1,1.3,0.3,1.3c4.4,1.2,8.9,2.3,13.4,3.4c2.6,0.6,5.6-0.6,7-2.7
		c1.2-2,2.8-3.1,5.3-2.4c0.4,0.1,0.9,0.2,1.2,0.1c5.7-2.2,10.8-0.1,15.8,2.1c0.7,0.3,1.6,0.6,2.3,0.5c4.4-0.9,8.7-1.9,13.1-2.7
		c1.3-0.3,1.8-0.8,1.8-2.1c-0.2-6.9-0.3-13.9-0.7-20.8c0-0.7-1.7-1.7-2.7-1.9c-3.7-0.7-7.4-5.6-5.9-8.7c0.9-1.8,2.1-3.6,1.5-5.5
		c-1.1-3.8,2.7-5,3.9-7.5c0.2-0.5,1.8-0.5,2.8-0.5c1.7,0.1,2.2-0.4,2.4-2.1c0.3-3.3,1.3-4.3,3.5-4.3c1.9,0,3,0.8,3.1,2.6
		c0,0.6,0.1,1.3,0,1.9c0,1.7,0.7,2.5,2.6,2.3c1.6-0.2,2.4-0.8,2.2-2.5c-0.1-0.4,0.1-1.2,0.4-1.4c0.5-0.2,1.3-0.2,1.8,0.1
		c1,0.5,2.2,1.1,2.7,2c0.5,0.7,0.7,2.2,0.2,2.8c-1.2,1.6-3,2.9-4.2,4.5c-0.7,1-1.2,2.4-1.1,3.7c0.3,6.6,0.9,13.3,1.1,19.9
		c0.1,1.8-1,3.6-1.2,5.5c-0.4,3.4-0.7,6.8-0.6,10.1c0,0.7,1.8,1.6,3,1.9c4.7,1.2,9.6,2.2,14.3,3.4c0.6,0.1,1.1,1.5,1.1,2.3
		c0.1,4.7,0.9,9.3,4.1,12.9c2.7,3.1,2.5,6.2,2,9.7c-0.4,2.9,0.1,5.3,3.3,6.9c2.2,1.1,2.4,3.7,1.5,5.3c-1.8,3,0.7,4,2.2,5
		c1.8,1.2,4.3,1.1,6.3,0.1c0.7-0.3,1.3-1.6,1.2-2.2c-0.2-0.9,0.2-2.8-2.1-2.2c-1.1,0.3-2.3,0.1-3.5,0c-0.5-0.1-0.9-0.7-1.3-1.1
		c0.4-0.4,0.8-1.1,1.1-1c3.2,0.6,4.8-1.4,6.5-3.4c0.6-0.7,1.7-1,2.6-1.4c2.6-1.2,3.1-2.2,2.3-4.9c-0.4-1.3-0.6-2.5,1.1-3.4
		c1-0.6,1.6-2,2.3-3.1c0.1-0.2-0.1-0.7-0.4-0.9c-0.5-0.4-1.5-0.7-1.4-0.9c0.3-0.8,0.7-2,1.2-2.1c3.6-0.5,3.8-4.3,6.5-5.6
		c-0.4-0.6-0.8-1.2-1.3-1.7c-0.7-0.6-2.1-1.2-2.1-1.7c0.1-1,1-1.9,1.6-2.8c0.7-0.9,1.6-1.7,2.4-2.6c0.2-0.2,0.2-1,0.1-1
		c-3.1-1.4-0.6-1.9,0.4-2.7c3.1-2.4,6.2-4.8,7.4-8.8c0.6-2,2.5-3.6,3.8-5.4c0.1-0.2,0.4-0.2,0.6-0.3c0.1,0.4,0.2,0.7,0.2,1.1
		c0.1,3.3,0.2,6.6,0.3,10c0,0.7,0.3,1.4,0.4,2c0.1,0.6,1.3,1.9-0.8,1.5c0,0-0.3,0.6-0.2,0.9c0.5,1.5,1.2,2.7,0.6,4.6
		c-0.3,1,1.4,2.7,2.3,4.1c0.3,0.4,1.1,0.6,1.3,1.1c0.2,0.8,0.1,1.7,0.2,2.6c-0.5-0.3-1-0.6-1.6-1c-0.6-0.4-1.2-0.7-1.7-1.1
		c-0.2,0.9-0.8,1.9-0.5,2.7c0.5,1.7,1.5,3.3,2.3,5c1.3,2.6,2.6,5.2,3.7,7.9c0.3,0.6,0,1.5,0,2.2c-0.8-0.1-1.8,0.1-2.4-0.3
		c-2-1.3-1.9-0.2-1.7,1.2c0.2,1.5,0.4,3.1,0.8,4.5c0.4,1.3,1.2,1.2,2,0.1c0.1-0.2,0.4-0.3,0.5-0.4c0.2,0.3,0.5,0.6,0.6,0.9
		c0.2,2.8,0.3,5.7,0.4,8.5c0.1,4.1,2.8,6.1,6.8,6.9c3,0.6,5.6,2.7,8.4,4.1c0.2,0.1,0.4,0.8,0.5,0.7c3.8-0.9,4.1,4.4,7.6,4
		c0.4,0,0.8,0.9,1.2,1.4c2.6,3.2,5.9,5.1,10.3,4.6c2.9-0.4,4.5,1.7,6.4,3c2.1,1.4,4.4,2.8,6.4,4.4c3.3,2.8,6.4,5.9,9.7,8.8
		c1.5,1.3,3,2.9,4.8,3.4c3,0.9,5.1,2.6,7,4.6c2.1,2.2,4.2,4,7.7,3c1.1-0.3,2.3,0,3.5,0c5.1,0.1,9.8-1.3,13.5-4.6c3.1-2.8,7-3,10.7-4
		c2.1-0.6,4.3-1.3,6-2.5c2.1-1.5,3.7-3.9,5.8-5.5c1.9-1.4,4.2-2.4,6.5-3.4c4.3-1.9,9-3.1,12.9-5.4c3.7-2.2,7.2-3.8,11.5-4.4
		c2-0.3,3.8-2.4,5.3-4c3.3-3.4,6-7.2,9.5-10.3c6.6-6,10.8-13.2,13.3-21.5c0.4-1.4,1.3-2.7,2.3-3.9c3.3-4.2,3.7-8.2,1-12.9
		c-0.4-0.8-0.5-1.7-0.7-2.6c0,0,0.6-0.2,0.6-0.2c0.5,0.8,1,1.5,1.5,2.3c0.3,0.4,0.5,0.8,0.8,1.3c0.3-0.3,0.8-0.6,0.9-1
		c0.9-1.9,1.7-3.8,2.5-5.7c0.2-0.5,0.2-1.4-0.2-1.7c-0.3-0.3-1.2-0.3-1.8-0.1c-1.6,0.6-3.1,1.5-4.6,2.1c-1.4,0.6-2.9,2-3.8-0.8
		c-0.2-0.7-1.9-1.2-3.1-1.4c-1.9-0.3-3.9-0.2-5.9-0.5c-0.8-0.1-1.5-0.8-2.2-1.3c0.7-0.4,1.3-0.8,2.1-1.1c0.7-0.3,1.5-0.2,2.1-0.5
		c0.4-0.2,1.1-0.8,1-1.1c-0.1-0.5-0.7-1.1-1.2-1.2c-1.9-0.3-3.8-0.4-5.6-0.8c-0.5-0.1-0.9-0.7-1.3-1.1c0.4-0.4,0.7-1,1.1-1.1
		c4.7-1,9.4-2,14.2-3c3.3-0.7,6-2.2,8.2-4.7c1.3-1.5-0.1-2.5-0.4-3.6c0-0.1-1.5,0-2.3,0.2c-1.5,0.4-2.9,1.2-4.4,1.5
		c-0.8,0.2-1.7-0.4-2.5-0.6c0.2-0.6,0.3-1.3,0.6-1.8c0.5-0.7,1.1-1.4,1.8-2.3c-2.4,0.9-4.4,1.6-6.5,2.3c-0.2,0.1-0.5,0.1-0.7,0.1
		c-1.3-0.2-2.6-0.5-3.9-0.8c1-0.6,1.9-1.2,2.9-1.8c3.7-2.3,7.5-4.5,11-6.9c0.8-0.6,0.9-2.2,1.3-3.3c0.6-1.3,1.2-2.6,1.5-4.1
		c-1.4,1.4-2.7,2.9-4.2,4.2c-1.1,0.9-2.3,1.7-3.5,2.4c-0.2,0.1-0.8-0.1-0.9-0.2c-0.8-2.7-2-0.6-2.9-0.2c-2.4,1-4.7,2.1-7.1,3.2
		c-1.3,0.6-1.8,0.1-1.3-1.1c0.7-1.7-0.5-1.5-1.5-1.6c-1.4-0.2-2.7-0.6-4.1-0.9c1.2-0.6,2.4-1.4,3.7-1.8c2.3-0.8,4.8-1,6.9-2.1
		c1.1-0.5,1.5-2.3,2.3-3.4c0.4-0.5,0.9-1,1.5-1.4c2.8-1.8,5.8-3.4,8.3-5.5c1.5-1.3,2.2-3.4,3.1-5.2c0.2-0.4,0-1-0.1-1.5
		c-0.5,0.2-1.1,0.3-1.5,0.5c-4,2.2-7.8,4.7-11.9,6.7c-2.2,1-4.9,1.2-7.3,1.6c-0.4,0.1-1.2-0.6-1.3-1.1c-0.1-0.4,0.3-1.2,0.6-1.4
		c1.1-0.4,2.4-0.6,3.5-1c0.6-0.2,1.1-0.4,1.7-0.6c-0.6-0.2-1.2-0.6-1.9-0.6c-1.3,0.1-2.6,0.4-3.9,0.5c-0.3,0-0.6-0.2-0.9-0.3
		c0.2-0.2,0.3-0.5,0.6-0.6c2-0.8,3.2-3.6,6.1-2.2c0.1,0.1,0.6-0.1,0.6-0.2c0-0.3-0.1-0.8-0.2-0.8c-1.2-0.4-2.4-0.7-3.7-1.4
		c2.1,0,4.2-0.3,6.3,0.1c3.3,0.5,5.5-1.3,7.9-2.8c1.3-0.8,2.4-1.8,3.6-2.7c3.6-2.7,2.6-6.5,2.3-9.9c-0.2-2.2-1.4-4.4-2.2-6.5
		c-0.1-0.1-1.2-0.1-1.6,0.2c-2.1,1.5-4.2,3.1-6.3,4.6c-0.6,0.4-1.4,0.7-2.1,0.7c-4.4-0.3-8.7-0.7-13-1.1c-0.4,0-0.7-0.6-1.1-1
		c0.5-0.2,1-0.5,1.5-0.5c3-0.2,6-0.1,9-0.5c1-0.1,1.9-1.3,2.8-2c0.1-0.1,0.2-0.6,0.1-0.6c-0.4-0.1-0.7-0.3-1.1-0.3
		c-1.8-0.1-3.6-0.1-5.4-0.3c-0.4,0-0.7-0.5-1-0.8c0.4-0.3,0.8-0.8,1.2-0.8c1.5-0.2,3,0.1,4.4-0.2c3-0.7,5.9-1.5,8.8-2.4
		c2.6-0.8,5.5-6.1,5.3-8.7c-0.2-2.3,0-4.7,0-7c0-0.6,0.1-1.1,0-1.7c-0.1-0.6-0.3-1.1-0.5-1.7c-0.5,0.3-1,0.5-1.4,0.8
		c-1.8,1.4-3.5,2.9-5.3,4.2c-0.6,0.5-1.4,0.8-2.2,1.1c-0.7,0.2-1.4,0.2-2.1,0.3c0.4-0.5,0.8-0.9,1.1-1.4c0.1-0.2,0.2-0.4,0.3-0.6
		c-0.4-0.1-0.7-0.2-1.1-0.2c-2.2,0.3-4.4,0.6-6.6,0.9c-0.3,0-0.7-0.2-1.1-0.3c0.3-0.2,0.6-0.6,0.9-0.7c2.1-0.8,4.3-1.3,6.2-2.3
		c3.3-1.7,6.5-3.6,9.6-5.5c0.7-0.4,1.2-1.6,1.2-2.5c0-3.7-0.1-7.4-0.3-11.1c0-0.3-0.8-1-1-0.9c-0.7,0.2-1.6,0.5-1.9,1
		c-3,5-8.1,7.6-13,10.4c-0.4,0.3-1.1,0.2-1.6,0.2c0.3-0.5,0.6-1.1,1-1.5c1.2-1,2.6-2,3.8-3c0.3-0.3,2-1,0-1.5
		c0.4-0.6,0.6-1.3,1.2-1.6c2.1-1.5,4.4-2.8,6.5-4.3c0.4-0.3,0.5-0.9,0.8-1.3c-0.5,0.2-1,0.3-1.5,0.5c-1.7,0.9-3.4,1.9-5.2,2.8
		c-0.2,0.1-0.6,0-0.9,0c0.2-0.3,0.3-0.7,0.5-0.8c4.9-3.2,7.7-7.9,10.3-12.7c0.7-1.2,0.2-3,0.2-4.6c-0.5,0-1.1-0.1-1.4,0.1
		c-1,0.6-1.8,1.3-2.8,2c-0.2,0.1-0.6,0-0.9-0.1c0.1-0.2,0.2-0.5,0.3-0.7c0.6-0.7,1.2-1.3,1.7-2c0.3-0.4,0.3-0.9,0.5-1.4
		c-0.5,0.2-1.2,0.3-1.6,0.7c-0.7,0.6-1.1,1.4-1.8,2c-0.4,0.3-1,0.4-1.5,0.6c0.1-0.6,0.2-1.1,0.4-1.7c0.1-0.3,0.5-0.6,0.8-0.9
		c3.5-2.9,5.3-6.8,6.7-10.8c0.1-0.4,0.1-0.9,0.2-1.3c-0.5,0.2-1.1,0.2-1.5,0.5c-1.6,1.1-3.1,2.2-4.7,3.2c-0.4,0.3-1.2,0-1.8-0.1
		c0.2-0.4,0.4-1,0.7-1.3c1.5-1.2,3.2-2.2,4.5-3.6c1.3-1.4,2.3-3.1,3.5-4.6c0.4-0.6,1.2-0.9,1.8-1.3c0.3,0.5,0.7,1.1,1,1.6
		c1.2,2,2.3,3.9,3.5,5.9c0.3,0.4,0.4,0.9,0.6,1.4c-0.6,0-1.2,0-1.8,0c-0.1,0-0.2,0-0.2-0.1c-0.7-0.4-1.5-0.8-2.2-1.2
		c-0.1,1.1-0.6,2.3-0.2,3.2c0.6,1.3,1.7,2.6,2.9,3.5c1.5,1.1,3.4,1.9,5.2,2.8c0.4,0.2,0.7,0.6,1,0.9c-0.6,0.3-1.2,0.8-1.7,0.7
		c-1.3-0.3-2.6-1-2.7,1.1c-0.9-0.2-1.9-0.2-2.5-0.7c-1.7-1.3-2-0.5-1.9,1c0.3,3.2-0.4,7,3.3,8.9c2.6,1.3,5.6,2.1,8.4,2.9
		c1.4,0.4,3.1,0.1,4.6,0.1c0,0.3,0.1,0.6,0.1,1c-2.4,0.4-4.7,0.7-7.1,1.1c-0.5,0.1-1,0.4-1.4,0.5c0.5,0.2,0.9,0.7,1.4,0.7
		c4.7,0.6,9.5,1.2,14.2,2.1c-6.2,1.3-12.2,1.4-18.2-0.6c-0.8-0.3-1.5-0.7-2.2-1.2c-1.8-1.2-2.1-0.5-2.3,1.3
		c-0.8,6.3,6.4,13.5,10.9,14.7c3.3,0.9,7,0.3,10.5,0.4c0.5,0,0.9,0.1,1.4,0.2c-0.4,0.3-0.7,0.7-1.1,0.8c-2.2,0.1-4.4,0.2-6.6,0.2
		c-0.7,0-1.3-0.2-2-0.3c-2.1-0.4-4.3-0.8-6.4-1.1c-0.6-0.1-1.2,0.1-1.8,0.1c0.3,0.4,0.6,1,1,1.3c2.2,1.8,4.8,2.6,7.6,3
		c0.8,0.1,1.6,0.7,2.4,1c-0.9,0.3-1.7,1-2.5,0.9c-2.3-0.2-4.5-0.7-6.7-1.2c-0.8-0.2-1.5-0.7-2.3-0.8c-1.6-0.1-3.1,0-2.8,2.4
		c0.4,2.7,0.2,5.4,0.7,8c0.4,2.5,3.1,2.8,4.9,3.2c5.1,1.2,10.4,1.5,15.4-1c0.4-0.2,1,0.1,1.5,0.2c-0.3,0.4-0.5,0.9-0.9,1.2
		c-1.1,0.9-2.3,1.7-3.4,2.6c-0.3,0.2-0.4,0.6-0.6,1c0.3,0.1,0.7,0.4,1,0.4c1.2,0.1,2.5,0.2,3.8,0.2c-1.2,0.4-2.4,1-3.6,1.2
		c-2.1,0.4-4.3,0.5-6.4,0.7c-0.3,0-0.6,0.2-0.9,0.3c0.1,0.3,0.2,0.7,0.5,0.8c4.5,1.9,9,3.6,14,2.1c1-0.3,2.1-0.5,3.2-0.6
		c0.6-0.1,1.2,0.2,1.8,0.3c-0.4,0.4-0.8,1.2-1.3,1.3c-3.7,0.7-7.4,1.6-11.2,1.7c-5.4,0.1-10-2.4-14.5-5c-0.3-0.2-0.5-0.4-0.8-0.5
		c-0.7-0.5-1.3-0.9-2-1.4c0.2,0.9,0,2,0.5,2.7c2.7,3.6,6.1,6.4,10.9,7.1c2.4,0.4,4.9,0.7,7.3,1c0.5,0.1,1.2,0.2,1.3,0.4
		c0.7,1.9,2.2,1.5,3.7,1.4c0.4,0,0.8,0.3,1.2,0.4c-0.3,0.3-0.6,0.9-0.9,1c-2.3,0.6-4.5,1.3-6.8,1.7c-3.5,0.5-7.1,0.7-10.7,1.1
		c-0.2,0-0.4,0.2-0.7,0.3c0.3,0.2,0.5,0.6,0.9,0.7c2.7,0.7,5.4,1.8,8.1,2c3.7,0.3,7.4,1.8,11.2,0.1c0.6-0.3,1.5-0.1,2.2-0.1
		c0.3,0,0.6,0.2,0.9,0.3c-1.4,1.9,0.6,2.4,1.4,3.4c0.1,0.1-0.8,1.1-1.3,1.2c-1.2,0.3-2.4,0.3-3.7,0.3c-4.6,0-9.3,0.3-13.8-0.2
		c-2.3-0.3-5.3,0-6.7-2.9c-0.2-0.4-2-0.2-3-0.2c-0.3,0-0.8,0.6-0.8,0.7c0.4,0.6,0.8,1.4,1.4,1.8c5.3,3.4,10.8,6.2,17.2,7
		c1.9,0.3,3.9,0.1,5.9,0.2c0.9,0.1,1.7,0.5,2.6,0.7c-0.7,0.6-1.4,1.5-2.2,1.7c-2.7,0.5-5.5,0.8-8.3,1.1c-0.7,0.1-1.4,0.2-2.1,0.2
		c0.6,0.4,1.2,0.9,1.9,1.2c0.8,0.4,1.8,0.5,2.5,0.9c0.4,0.2,0.6,0.8,1,1.2c-0.4,0.2-0.8,0.7-1.1,0.7c-2-0.2-4-0.2-5.8-0.8
		c-3-0.9-5.9-2.3-8.9-3.4c-0.3-0.1-0.8,0-1.1,0c0.2,0.3,0.4,0.8,0.7,1c3,2.2,6,4.4,9.1,6.4c0.7,0.5,1.7,0.6,2.5,0.8
		c1.1,0.3,2.3,0.4,3.3,0.9c0.8,0.3,1.4,1.1,2,1.6c-1,0.3-1.9,1-2.9,1c-2.4,0-4.8-0.4-7.1-0.6c-0.4,0-1,0.4-1.1,0.7
		c-0.2,0.5,0,1.1,0,1.7c-0.7-0.2-1.4-0.4-2.1-0.7c-0.7-0.3-1.3-0.7-2-1.1c0.4,0.8,0.6,1.7,1.2,2.2c1.1,0.9,2.3,1.7,3.6,2.4
		c2.7,1.4,5.4,2.8,8.1,4.2c0.3,0.1,0.5,0.4,0.8,0.6c-0.3,0.2-0.6,0.5-0.9,0.5c-1.6,0.1-3.3,0.5-4.8,0.2c-3.4-0.8-7.1-0.9-9.6-3.8
		c-0.2-0.3-1.2-0.3-1.3-0.1c-0.4,0.5-0.8,1.3-0.6,1.7c1.1,1.7,2.1,3.8,3.8,4.7c2.6,1.3,5.7,1.8,8.9,1.3c3-0.5,6.1-0.4,9.2-0.5
		c0.4,0,0.8,0.3,1.2,0.5c-0.3,0.3-0.6,0.9-0.9,1c-2.9,0.8-5.7,1.5-8.6,2.1c-2.6,0.5-5.2,0.7-7.8,1.1c0,0.2,0,0.4,0,0.6
		c1.9,0.1,3.7,0.2,5.6,0.3c2,0.2,4.1,0.6,6.1,0.6c2,0,4-0.5,6.1-0.7c1.4-0.2,2.8-0.3,4.2-0.3c0.4,0,0.7,0.3,1.1,0.4
		c-0.2,0.3-0.4,0.8-0.7,1c-1.4,1-3,2-4.4,3c-0.4,0.3-0.6,0.7-0.9,1c0.4,0.2,0.8,0.5,1.3,0.6c1.4,0.4,2.8,0.8,4.2,1.2
		c0.4,0.1,0.8,0.2,1.1,0.1c3.6-1.5,7.3-2.9,10.8-4.6c1.4-0.7,2.3-2.1,3.4-3.1c0,0-0.4-0.6-0.7-0.7c-1.6-0.4-3.2-0.7-4.7-1.2
		c-0.5-0.2-0.8-0.8-1.2-1.3c0.5-0.4,0.9-0.9,1.4-1.1c1.7-0.6,3.7-0.6,3.4-3.3c-0.1-0.6,1.6-1.6,2.6-2.1c1.6-0.8,2.6-2.7,1.4-3.8
		c-2.4-2.2,0-2.6,1.1-3.4c0.9-0.7,2-1.3,2.9-2c0.2-0.2,0.3-0.5,0.5-0.7c-0.3,0-0.6-0.1-0.9,0c-0.7,0.2-1.9,0.9-2,0.8
		c-1-1.6-2.8-1.7-4.3-2.5c0.2-0.4,0.4-1.1,0.7-1.2c0.8-0.3,1.6-0.4,2.4-0.4c3.9,0.3,6.7-1.7,9.2-4.2c0.3-0.3,0.6-0.7,0.9-1.1
		c-0.5-0.2-1-0.6-1.5-0.6c-2.3,0-4.6,0.2-6.9,0.1c-0.7,0-1.3-0.6-2-1c0.6-0.5,1.1-1,1.7-1.3c0.9-0.4,1.9-0.6,2.8-0.8
		c2.5-0.6,3.5-2.2,2.3-4.3c-0.1-0.3-0.8-0.3-1.3-0.3c-1.4-0.1-2.8,0-4.2-0.1c-0.4,0-0.7-0.5-1-0.8c0.3-0.3,0.7-0.9,1-0.9
		c3.3,0.6,4.8-1.6,6.7-3.5c0.8-0.8,2-1.5,3.1-1.9c2.1-0.9,2.4-2.3,1.7-4.2c-0.5-1.4-1.1-2.8,0.9-3.8c0.8-0.4,1.3-1.6,1.8-2.5
		c0.1-0.2-0.1-0.8-0.4-1c-1.5-1.1-1.5-2.6,0.3-3c2.2-0.4,3.3-1.5,3.8-3.5c0.1-0.3,0.5-0.7,0.8-0.9c1.6-1.4,3.5-2.7-0.4-3.6
		c-1.2-0.3-1-2.9,0.2-3.9c0.8-0.6,1.7-1.2,2.5-2c0.3-0.3,0.6-1.2,0.5-1.2c-3.7-2,0.1-3.2,0.8-3.7c3.4-2.4,5.6-5.3,7.3-9
		c0.9-2.1,2.8-3.8,4.2-5.6c0.1-0.2,0.4-0.2,0.6-0.3c0,0.3,0,0.6,0,0.9c-0.2,2.6-0.5,5.2-0.4,7.8c0,1.7,0.7,3.3,0.9,5
		c0.1,0.6,1,2.2-1.1,1.6c-0.1,0.4-0.4,0.9-0.2,1.3c0.5,1.2,1.1,2.1,0.9,3.7c-0.2,1.7,0.4,3.8,2.5,5.1c0.7,0.4,0.8,1.9,1.1,2.9
		c-0.4-0.1-0.8-0.1-1.2-0.2c-0.7-0.3-1.3-0.6-1.9-1c-0.1,0.8-0.5,1.8-0.2,2.4c1.7,4,3.5,7.9,5.2,11.9c0.4,0.8,0.3,1.8,0.5,2.7
		c-1-0.1-2.1,0-3-0.3c-1.1-0.5-1.3-0.6-1.4,0.7c-0.2,3.1,0.2,5.9,3,8c0.7,0.5,0.9,1.5,1.4,2.3c-0.8,0-1.6,0-2.4,0.1
		c-0.3,0-0.8,0.6-0.7,0.7c1.5,2.5,3,5,4.6,7.5c0.6,0.9,1.8,2.4,1.5,2.7c-1,1.1-2.6,1.4-3.9,0.3c-0.6-0.5-0.9-1.3-1.5-1.8
		c-0.7-0.5-1.6-0.6-2.4-0.9c0,0.7-0.4,1.5-0.1,2c2.4,3.6,3.9,7.7,8.1,10c0.6,0.3,0.8,1.1,1.2,1.7c-0.7,0.2-1.3,0.4-2,0.6
		c-0.5,0.1-1.1,0.2-1.6,0.3c0.5,0.2,1,0.5,1.5,0.7c3.5,1,5.2,0.5,7.3-2.4c1.3-1.7,2.7-2.9,5-3.5c1.5-0.4,2.6-2,3.8-3.2
		c0.6-0.5,0.9-1.6,1.5-1.8c2.6-1,3.6-3.4,5.2-5.2c0.5-0.6,0.3-1.7,0.4-2.6c0.2-1.5,0.3-3.1,0.5-4.6c0.3-1.6,0.9-3.1,1-4.6
		c0.3-3.4,0.3-6.7,0.6-10.1c0.6-9,1.4-18,1.9-27c0.3-5.3,0.2-10.6,0.1-15.9c0-0.8-1.2-1.7-2-2.2c-0.5-0.4-1.5-0.2-2.1-0.5
		c-0.7-0.3-1.2-0.9-1.9-1.3c0.6-0.4,1.2-0.8,1.8-1.2c0.7-0.4,1.3-0.9,2-1.3c-0.7-0.5-1.4-1-2-1.6c-0.4-0.3-0.9-0.8-0.9-1.2
		c-0.1-0.9-0.1-1.9,0.1-2.8c0.1-0.6,0.5-1.5,1-1.7c0.5-0.2,1.4,0.2,2,0.5c0.3,0.1,0.5,0.6,0.8,0.9c0.7,0.6,1.5,1.1,2.2,1.6
		c0.5-0.7,0.8-1.6,1.5-2.2c0.6-0.6,1.4-1,2.2-1.4c0.3-0.1,0.8,0.4,1.1,0.3c1.7-0.3,1.6-0.3,1.8,1.5c0.1,0.7,0.5,1.7,0.9,1.8
		c1.1,0.2,2.6,0.3,3.4-0.2c0.9-0.6,1.8-2,2.7-0.7c0.5,0.9,0.2,3.3-0.6,3.7c-3,1.8-0.5,2.1,0.6,2.6c1.3,0.6,2.8,1.7,4,1.4
		c1.5-0.3,2.9-1.7,4.1-2.8c0.3-0.3,0-1.9-0.3-2c-1.2-0.2-1-0.7-0.4-1.2c3.5-3.2,5.1-7.2,6.2-11.6c0.2-0.6,0.6-1.2,1-1.7
		c0.4,0.6,0.9,1.2,1.2,1.8c0.2,0.4,0.3,1,0.2,1.4c-1.7,4.7,0.6,8.4,2.8,12.3c0.3,0.5,0.4,1,0.5,1.6c-0.5-0.1-1-0.3-1.5-0.4
		c-0.4-0.1-0.7-0.2-1.1-0.4c-0.1,0.4-0.4,0.9-0.3,1.3c0.3,1.6,0.5,3.3,1,4.9c0.2,0.6,0.8,1.4,1.4,1.5c2.3,0.6,4.8,1,7.1,1.5
		c3.7,0.8,7.5,1.8,11.2,2.5c7.3,1.5,14.7,2.8,22,4.2c5.1,0.9,10.2,1.8,15.3,2.6c3.2,0.5,6.4,0.8,9.6,1.1c3.2,0.3,6.3,0.7,9.5,1
		c2.1,0.1,3.6-0.5,5.1-2.2c2.1-2.3,3.8-5.1,7.1-6.4c2-0.8,3.7-2.5,5.3-4c1.7-1.6,3.5-2.3,5.9-2.4c1,0,2-1.4,3-2.2
		c3.1-2.3,4.8-5.1,4.7-9.1c0-1.6,1.1-3.3,1.2-4.9c0.2-3.3,0.2-6.6,0-10c-0.1-1.5-0.7-3-1.2-4.4c-1.6-4.7-0.5-9.4,0.5-14
		c0.9-4.1,2.1-8.2-0.5-12.2c-0.6-1-1.5-1.9-2.3-2.7c-2.3-2.6-4.6-5.1-6.9-7.7c-0.9-1-1.9-2-2.7-3.2c-0.6-0.9-1-1.9-1.6-2.8
		c-3.9-5.4-2.4-10.7,0-16.1c0.8-1.7,1.1-3.7,1.6-5.5c0.6-2.4,2.7-4.2,5.3-4.1c13.8,0.2,27.5,0.3,41.3,0.6c1.6,0,3.2,1.1,4.9,1.3
		c4,0.5,8,0.7,12.1,0.9c0.5,0,1.5-1.1,1.6-1.7c0.2-2.6,0.1-5.2,0.2-7.8c0.2,1.9,0.3,3.8,0.5,5.6c0.1,0.5,0.3,1,0.4,1.5
		c0.3-0.5,0.8-1,0.9-1.5c0.3-3.7,0.4-7.4,0.6-11.1c0.1-2.8,0.2-5.5,0.5-8.3c0.1-1.1-0.2-2.8,1.9-3.1c0.4-0.1,0.8-1.6,0.9-2.5
		c0.3-3,0.4-6,0.7-9c0.6-5,1.2-10,2-15c0.2-1.5,1.1-2.8,1.7-4.3c0.1-0.2,0.3-0.3,0.4-0.4c0.1,0.2,0.3,0.4,0.3,0.6
		c0,0.9-0.1,1.7-0.1,2.6c0,0.4,0.2,0.8,0.4,1.1c0.2-0.4,0.6-0.7,0.7-1.1c0.3-1.5,0.4-3,0.6-4.4c0.2,0,0.4,0,0.6,0
		c-0.2,3-0.3,6.1-0.7,9.1c-0.6,5.3-1.2,10.7-1.8,16c-0.2,1.6-0.4,3.3-0.5,4.9c0,0.3,0.3,0.6,0.4,0.9c0.1-0.2,0.4-0.5,0.4-0.7
		c0.7-2.3,1.4-4.7,2.6-6.9c-0.2,1.3-0.2,2.6-0.5,3.9c-0.9,5.1-1.9,10.2-2.7,15.4c-0.2,1,0.8,2.1,0.8,3.1c-0.1,2.8-0.7,5.6-0.8,8.4
		c-0.1,1.5,0.1,4.2,0.4,4.2c2.2,0.3,4.6,0.4,6.5-0.3c3.3-1.2,6.3-3,9.6-4.5c1-0.5,2.2-0.6,3.4-0.7c3.9-0.3,4.7-0.9,4.1-4.4
		c-0.4-2.2,0.8-1.5,1.6-1.1c1,0.5,1.7,1.4,2.6,2.1c0.8,0.6,1.6,1,2.4,1.5c0.1-0.7,0.3-1.4,0.3-2.1c-0.1-2.5,1.5-3.4,3.8-3.9
		c2.6-0.6,4.9-1.8,7.8-1.3c1,0.2,2.3-0.9,1.3-2.7c-1.5-2.6-0.7-3.1,1.6-5.1c2.2-1.9,4.3-1.9,6.8-1.9c3.2,0,5.4,1.8,5.5,4.8
		c0.1,1.4,0.7,1.8,1.8,1.8c1.5,0,1.9,0.8,2.5,2c1,1.8,2.8,3.1,4.2,4.6c0,0,0.2,0,0.2,0.1c3.3,3.7,9.4,4.3,11.1,9.7
		c0.2,0.5,1.1,0.8,1.7,1.3c0.3-0.4,0.6-0.8,0.9-1.3c2.4-4.3,3.9-8.7,1.9-13.6c-0.3-0.7-0.1-1.6-0.1-2.4c-0.3-4.6-0.7-9.3-1-13.9
		c0-0.7,0.2-1.5,0.2-2.3c0-0.5,0.9-1.9-0.9-1.1c-0.1-0.4-0.3-0.9-0.4-1.3c-0.3-1.2-0.5-2.5-0.8-3.7c-0.6-2.1-1.3-4.2-1.7-6.3
		c-0.3-1.3-0.1-2.5-2.1-1.6c-0.3,0.1-0.7-0.1-1-0.2c0.1-0.4,0.1-0.9,0.3-1.1c4.5-3.2,2.3-8.1,3.3-12.2c0.1-0.5-1.5-1.9-2.4-2
		c-2.8-0.4-3.1-2-2.3-3.9c1.7-4.4,3.6-8.8,5.4-13.2c0.4-1,0.9-2.1,0.8-3.2c-0.2-4.6-0.6-9.3-0.9-13.9c-0.2-3.2-0.5-6.5-0.5-9.7
		c-0.1-5.8,0-11.7,0-17.5c0-2.6-0.1-5.2-0.1-7.7c0-0.4,0.3-0.7,0.5-1.1c0.1,0.4,0.3,0.7,0.3,1.1c0.5,2.6,0.1,5.4,2.2,7.6
		c0.3,0.3,0.2,0.9,0.1,1.3c-0.3,3.5-0.6,6.9-0.6,10.4c0.4-2.8,0.7-5.7,1.1-8.5c0,0,0.1,0,0.1,0.1c0,5.2-0.1,10.4,0,15.5
		c0.1,2.7,0.4,5.4,1.1,7.9c0.3,1.2,1.8,2.1,2.7,3.1c0.3,0.3,0.6,1,0.4,1.2c-2.8,3.8-1.5,8.1-1.1,11.9c0.5,4.3,2.1,8.6,4,12.6
		c1.3,2.7,4,4.8,5.9,7.2c1.1,1.4,2.1,2.9,2.6,4.6c0.4,1.1,0.4,2,1.5,2.9c1,0.8,1.2,2.5,1.7,3.8c0.1,0.2-0.3,0.6-0.5,1
		c-0.3-0.1-0.6-0.2-0.8-0.4c-0.8-1-1.6-2.1-2.4-3.2c-0.4-0.5-0.7-1-1-1.6c-0.5,0.7-1.2,1.4-1.4,2.2c-0.9,3.9,0.2,5.8,3.9,7.9
		c0.9,0.5,1.7,1.6,2.2,2.5c0.3,0.4,0,1.2,0,1.8c-0.6-0.4-1.3-0.6-1.6-1.2c-1-1.7-2-3.2-4.3-3.5c-0.3,0-0.6-0.4-0.9-0.4
		c-2,0.2-2.4-0.1-1.9-2.1c0.5-2.5,1.4-4.9,1.7-7.4c0.2-1.8-0.3-3.5-2.1-4.8c-1.9-1.3-3.3-3.1-5-4.8c-0.9-1-1.4-0.7-1.4,0.5
		c0,3.5-1.1,7.7,0.4,10.5c2.3,4.2-0.5,7.9,0.5,11.8c0.2,0.7-0.5,1.8,1,0.9c0.2,0.3,0.7,0.7,0.6,1c-1.9,6.8-0.3,13.6,0,20.3
		c0.2,6.2,1.1,12.4,1.7,18.7c0.1,0.9,0.2,1.8,0.6,2.5c0.4,0.6,1.3,1.2,2.1,1.4c0.4,0.1,1-0.7,1.5-1.2c2-2,3.8-4.2,6.8-4.9
		c0.2,0,0.4,0,0.5-0.1c2.1-2.6,6.1-4,5.4-8.3c-0.2-1.1-0.7-2.9,1.7-3c0.1,0,0.4-1.5,0.3-2.3c-0.3-3.2-0.2-2.9,3.1-3.4
		c2.5-0.3,4.8-1.7,7.2-2.6c-0.2-0.2-0.3-0.7-0.5-0.7c-2.5-0.5-5.1-0.9-7.6-1.5c-0.6-0.1-1-0.6-1.5-0.9c0.5-0.4,0.9-0.9,1.4-1.1
		c0.7-0.3,1.5-0.4,2.2-0.3c3.5,0.3,6.7-0.7,9.9-1.8c0.6-0.2,1.1-0.8,1.6-1.2c-0.7-0.3-1.4-1-2-0.9c-3.3,0.4-5.8-0.9-7.9-3.1
		c-0.6-0.6-0.8-1.4-1.3-2.1c0.8,0,1.7-0.2,2.5-0.1c0.8,0.1,1.6,0.6,2.2,0.8c-0.5-1.3-1-2.6-1.5-3.8c1.4-0.3,2.8-1.1,4-0.8
		c3.2,0.8,5.5-1.3,8.3-1.8c0.1,0,0.4-0.7,0.2-0.9c-1.9-2.4-1.7-3.2,1-4.2c0.6-0.2,1.2-0.7,1.8-1c-0.7-0.2-1.3-0.4-2-0.4
		c-1.2-0.1-2.5,0-3.7-0.3c-0.6-0.1-1.1-0.9-1.7-1.3c0.5-0.5,1-1.3,1.6-1.5c3-0.6,4.4-2.8,5.7-5c0.7-1.2,0.3-2.1-1.6-1.7
		c-1.6,0.3-3.3,0.3-4.9,0.2c-0.5,0-0.9-0.8-1.4-1.2c0.5-0.4,1-1,1.5-1c1.5-0.2,3-0.2,4.5-0.1c1.6,0.1,2.2-0.9,2.2-1.9
		c0-0.4-1.2-1.1-2-1.3c-1.4-0.2-2.8,0-4.2-0.1c-0.6-0.1-1-0.8-1.5-1.2c0.5-0.4,0.9-1.1,1.5-1.3c2.8-0.9,5.6-1.8,8.4-2.6
		c1.1-0.3,2.3-0.6,3.4-0.6c1.7,0,2.5-0.5,2.1-2.3c-0.1-0.7,0.2-1.4,0.4-2.2c-0.8,0.3-1.7,0.8-2.6,0.9c-2.2,0.2-4.4,0.1-6.6,0.1
		c-0.3,0-0.8-1-0.7-1.1c1.3-1.4,2.8-2.8,4.2-4.1c0.2-0.2,0.4-0.5,0.7-0.7c0.7-0.5,1.3-1.1,2-1.6c-1,0.2-2.1,0.2-3.1,0.5
		c-1.4,0.4-2.8,1-4.2,1.2c-0.6,0.1-1.3-0.6-2-1c0.5-0.5,0.8-1.1,1.4-1.4c2.8-1.3,5.8-2.1,8.3-3.7c2.4-1.6,4.2-4.1,6.2-6.2
		c0.1-0.1,0-0.4,0-0.6c-0.3,0.1-0.6,0.1-0.9,0.3c-1.4,0.6-2.8,1.5-4.3,1.9c-0.6,0.2-1.5-0.4-2.2-0.6c0.3-0.8,0.3-1.7,0.9-2.3
		c2.3-2.5,2.2-3.3-0.5-4.9c-0.4-0.2-0.5-0.7-0.8-1.1c0.5-0.2,1.1-0.8,1.4-0.7c2.4,0.7,3.2-1.6,4.8-2.2c0.2-0.1,0.3-0.5,0.5-0.7
		c-0.3-0.1-0.6-0.2-0.9-0.2c-0.6,0-1.1,0.2-1.7,0.2c-0.5,0-0.9-0.2-1.3-0.3c0.2-0.4,0.5-0.7,0.7-1.1c0.8-1.1,1.5-2.2,2.2-3.4
		c0.1-0.1-0.5-0.7-0.8-0.8c-0.6-0.1-1.3,0-2-0.1c-0.3-0.1-0.7-0.5-0.8-0.7c0-0.2,0.4-0.6,0.7-0.7c3.1-1.9,6.1-3.8,9.2-5.7
		c0.5-0.3,0.6-1,0.9-1.5c-0.5,0-1.1-0.1-1.6-0.1c-0.6-0.1-1.3-0.2-1.9-0.3c0.5-0.3,1-0.6,1.4-1c1.1-1.1,2.1-2.3,3.1-3.5
		c0.9-1.1,0.8-1.1-0.5-1.4c-0.2-0.1-0.5-0.9-0.4-1.1c2-3,4.2-5.9,6.2-9c0.6-0.9,0.7-2,1.2-3c1.2-2.2,2.4-4.4,3.7-6.5
		c0.2-0.3,0.6-0.4,0.9-0.6c0.1,0.3,0.3,0.6,0.2,0.9c-1,4.7,1.4,8.8,2.7,13.1c0.7,2.3,1.6,4.2-1,6.3c-1.5,1.2,0.2,3.1,1.1,4.5
		c0.6,0.9,1.7,1.6,2.3,2.5c0.3,0.4,0.2,1.3-0.1,1.8c-0.2,0.3-1,0.3-1.5,0.4c-0.4,0.1-0.8,0-1.3,0.1c0.2,0.3,0.4,0.8,0.8,0.9
		c1,0.4,2,0.7,3,1.1c0.8,0.3,1.7,0.5,2.5,1c0.5,0.3,1.1,1.1,1,1.3c-0.2,0.5-1,1.2-1.5,1.2c-1.9-0.1-3.9-0.5-5.8-0.8
		c-0.4-0.1-0.8-0.1-1.1-0.1c0,0.4-0.1,0.8,0.1,1.1c0.9,1.7,1.7,3.5,2.8,5.2c1.2,1.9,1.7,3.7,0.3,5.7c-0.3,0.5-0.6,1.4-0.4,2
		c0.8,2,1.7,3.9,2.7,5.8c0.5,1,2,2.2,0.6,3c-1.1,0.7-2.9,0.6-4.3,0.4c-1.3-0.2-2.4-1.2-3.5-1.8c0.8,1.1,1.4,2.4,2.5,3.2
		c1.9,1.4,4,2.4,6,3.6c0.8,0.5,1.9,1.2,1.9,1.9c0,1.3,0.4,3-1.8,3.4c-0.4,0.1-0.7,0.3-1,0.5c0.4,0.2,0.7,0.5,1.1,0.6
		c1.9,0.5,2,1.5,0.7,2.7c-0.9,0.9-1.9,1.4-0.1,2.6c1.2,0.8,1.4,2.3-0.6,2.9c-1,0.3-1.5,0.7-0.6,1.6c0.2,0.2,0.4,0.7,0.2,0.9
		c-2.5,2.9,1,2.4,1.8,2.5c2.2,0.3,4.4,0,6.6,0.1c0.5,0,1,0.2,1.5,0.3c-0.2,0.5-0.3,1.3-0.6,1.4c-1.9,0.7-3.9,1.4-6,2
		c-1,0.3-2,0.5-3,0.7c0.6,0.8,1.1,1.7,1.7,2.5c0.4,0.6,0.9,1.2,1.3,1.8c-0.9,0.3-1.8,0.8-2.7,0.8c-1.6-0.1-3.2-0.5-4.8-0.7
		c-0.5,0-1.1,0.4-1.7,0.7c0.6,0.6,1,1.6,1.7,1.8c1.5,0.6,3.2,0.8,4.8,1.1c1.7,0.4,4.2-0.6,4.8,2.2c0.1,0.5,1.2,0.7,1.8,1
		c-1.3,0.9-2.5,2.1-3.9,2.7c-1.5,0.5-3.3,0.3-4.9,0.5c-0.6,0.1-1,0.7-1.6,1c0.5,0.3,1,0.8,1.4,0.8c2.4-0.1,4.8-0.5,7.2-0.6
		c1.4-0.1,3.9,0.1,4,0.4c0.2,1.6,2,3.7-0.8,5c-0.1,0.1-0.2,0.6-0.1,0.7c1.1,0.8,2.3,2.1,3.5,2.2c1.9,0.1,3.8,0,5.4-2.1
		c1.5-2.1,2.6-4.4,3.9-6.5c1.2-2,3.7-3.3,5.7-4.8c1.4-1,2.9-1.9,4.4-2.9c2.8-1.8,5.7-3.4,8.4-5.4c3.1-2.2,11.7-1.8,14.8,0.7
		c0.4,0.4,0.7,1,0.8,1.6c0.1,0.7,0,1.4,0,2.1c0,163.8,0,327.6,0,491.5c0,3.9,0,3.9-4.1,3.9c-410.1,0-820.2,0-1230.3,0
		c-4.1,0-4.1,0-4.1-3.9c0-45.1-0.1-90.3,0-135.4c0.1-92.4,0.3-184.7,0.5-277.1c0-3.1,0.1-3.2,3.4-3.2c1.9,0,4-0.6,5.2,1.7
		c0.1,0.2,0.9,0.2,1.4,0.2c3.8,0.3,7.6,0.6,11.5,1c0.5,0,0.9,0.5,1.3,0.7c-0.5,0.2-0.9,0.7-1.4,0.7c-1.5-0.1-2.9-0.3-4.3-0.5
		c-0.3,0-0.6-0.3-0.9-0.3c-2.2,0.3-4.4,0.5-6.5,0.9c-0.6,0.1-1.3,0.8-1.4,1.4c-0.2,1-0.1,2.1-0.1,3.1c0,22.1,0,44.2,0,66.3
		c0,1.8-0.2,3.1-2.6,3c-0.4,0-1.4,0.7-1.3,1c0.1,0.7,0.4,1.7,1,2c1.7,0.8,3,1.6,3,3.6c0,0.2,0.2,0.4,0.4,0.6c3.7,2.4,7.3,5,11.1,7.2
		c2.1,1.2,3,0.5,3.2-1.8c0.2-2,1.7-4.1,0.3-6.1c-0.4-0.6-1.2-1-1.8-1.5c-0.6-0.4-1.8-0.9-1.8-1.2c0.3-2.5-1.9-5-0.3-7.6
		c0.1-0.1,0.1-0.3,0.1-0.5c-0.2-0.9-0.4-1.8-0.7-2.7c-0.4,0.7-1.1,1.4-1.3,2.1c-0.4,2.3-0.6,4.6-0.9,6.9c-0.1,0.5-0.5,1-0.8,1.5
		c-0.3-0.5-0.7-1-0.7-1.6c-0.1-5-0.1-10,0-15c0-0.7,0.9-1.9,1.5-2c1.7-0.3,3.5-0.2,5.2,0c0.5,0,0.9,0.7,1.4,1.1
		c0.3,0.3,0.5,0.7,0.7,1c0.1-0.4,0.4-0.7,0.4-1.1c-0.2-1.2-0.5-2.4-0.7-3.5c-0.1-0.6-0.6-1.2-0.5-1.8c0.1-1.7-0.3-2.7-2.4-2.6
		c-0.5,0-1.4-0.9-1.5-1.5c-0.2-1.6-0.2-3.3,0-5c0.1-0.5,0.9-1.5,1.3-1.4c2.4,0.2,2.2-1.3,2.7-2.9c0.9-2.9,1.9-5.6,0.9-8.6
		c-0.1-0.3,0-0.9,0.2-1.1c1.6-1.3,1.2-3.3,1.9-4.9c1.5-3.5-0.3-6.9,0.2-10.3c0.1-0.4-0.8-1.3-1.4-1.4c-1.6-0.2-2-1.1-2-2.4
		c0-2.5,0-5.1,0-7.6c0-0.7,0.5-1.4,0.7-2.1c0.7,0.6,1.6,1.2,2.2,2c0.5,0.6,0.5,2.2,0.8,2.2c1.4,0.1,2.9-0.1,4.3-0.5
		c0.6-0.2,1.2-1,1.3-1.6c2.2-9.8,3.9-19.7,3.4-29.8c-0.4-7.3-1.1-14.5-1.8-21.8c-0.6-6.5-1.3-13-2.2-19.5c-0.6-4.5-1.7-9-2.5-13.4
		c-0.1-0.4,0-0.7,0-1.1c0.2,0.1,0.5,0.1,0.6,0.2c0.4,0.3,0.7,0.7,1.1,1c0.2-0.7,0.5-1.3,0.5-2c0.1-5,0.1-10,0.1-15
		c0-1.3-0.1-2.5,0-3.8c0-0.5,0.4-0.9,0.6-1.4c0.3,0.4,0.9,0.7,0.9,1.2c0.4,2.1,0.7,4.2,1,6.3c0.4,3.4,0.8,6.7,1.1,10.1
		c0.1,1.3-0.3,2.6-0.3,3.9c0,0.3,0.4,0.6,0.6,1c0.2-0.3,0.5-0.6,0.6-0.9c0.4-2.4,0.9-4.7,0.1-7.3c-0.4-1.3,0.7-3.2,1.1-4.8
		c0.8,0.2,2,0.2,2.2,0.7c0.5,0.9,0.6,2.1,0.7,3.2c0.4,5.3,0.8,10.6,1.2,15.9c0,0.5,0.5,0.9,0.8,1.3c0.2-0.4,0.6-0.8,0.7-1.3
		c0.1-1,0-2.1,0.1-3.1c0-0.4,0.5-1.2,0.7-1.2c0.6,0.1,1.6,0.3,1.8,0.7c0.4,0.7,0.5,1.6,0.6,2.5c0.1,5.2,0.1,10.3,0.2,15.5
		c0,0.7,0.3,1.4,0.4,2.1c0.2,1.1,0.4,2.2,0.6,3.2c0.1,0.4,0.1,0.9,0.2,1.3c0.4-0.3,0.9-0.6,1.1-1c0.6-0.9,1-2,1.5-2.9
		c0.2-0.3,0.6-0.4,1-0.5c0.2,0.3,0.5,0.7,0.5,1c-0.4,5.4-0.8,10.7-1.3,16.1c-0.2,2.7-0.5,5.5-0.7,8.2c-0.2,2.4-0.4,4.9-0.5,7.3
		c-0.1,3.6-0.3,7.2-0.1,10.8c0.4,6,1,12.1,1.6,18.1c0.6,5.9,0.6,12,2.1,17.8c1,3.8,0.7,7.4,0.9,11.1c0.1,2.8,0.6,5.6,1.1,8.4
		c0.1,0.4,1,1,1.5,1c1.9,0,2.5,0.9,2.3,2.5c-0.3,2,0.9,4.3-1.3,6c-0.2,0.1-0.1,0.7,0,1.1c0.4,1.8,0.8,3.6,1.4,5.3
		c0.2,0.6,1,1.1,1.6,1.6c0.2-0.6,0.7-1.2,0.6-1.8c0-1.7-0.3-3.3-0.4-5c0-0.6,0.5-1.1,0.8-1.7c0.2,0.5,0.6,1.1,0.6,1.6
		c0.1,3.6,0,7.2,0.1,10.7c0,0.7,0.7,1.5,1.3,2.1c2.1,2.1,4.2,4.2,6.4,6.2c0.9,0.9,2.3,1.4,3.1,2.3c1.8,2,3.4,4.3,5.2,6.3
		c0.2,0.2,0.9-0.1,1.3,0c0.9,0.1,1.8,0,2.5,0.4c0.2,0.1,0,1.4-0.2,2c-1,2.6-1,4.9,0.8,7.4c1,1.3,1,3.4,1.5,5.1
		c0.1,0.4,0.3,0.8,0.5,1.2c0.3-0.3,0.5-0.7,0.8-0.7c2.5-0.2,4.9-0.4,7.4-0.3c0.2,0,0.6,1.5,0.7,2.3c0.2,1.5,0.3,3.1,0.4,4.6
		c1.4-0.8,2.7-1.6,4.1-2.4c2.5-1.6,4.8-3.7,7.5-4.6c3.2-1,5.1-3.3,7.4-5.3c0.4-0.3,0.2-1.2,0.4-1.8c0.1-0.5,0-1.2,0.4-1.6
		c1.9-2.1,3.7-4.2,5.9-6c0.8-0.7,2.5-0.4,3.8-0.6c0.8-0.1,1.5-0.3,2.3-0.5c-0.4-0.6-0.7-1.2-1.1-1.8c-1.2-1.7-1-3.6,0.6-5
		c1-0.9,1-6.1-0.1-7c-1.2-1.1-1.9-6.6-0.7-7.5c0.7-0.6,2-0.8,3-0.6c3.1,0.4,5.2-1,7.1-3c0.4-0.4,0.5-1.1,0.9-1.6
		c0.8-0.9,1.7-1.8,2.6-2.7c0.3-0.3,0.7-0.4,1.1-0.7c-0.4-0.2-0.9-0.6-1.3-0.7c-1.3-0.1-2.7-0.1-4,0c-1.7,0.1-2.5-0.6-2.4-2.2
		c0-1.5,0-3,0-4.5c0-1.5,0.3-2.7,2.2-2.9c0.1,0,0.2,0,0.2,0c1.7-2.3,3.5-4.2,6.8-3.6c0.2,0,0.4-0.2,0.5-0.4
		c2.3-3.8,4.6-7.6,6.7-11.4c0.4-0.7,0-1.8-0.1-2.7c-0.7,0.2-1.5,0.3-2.2,0.6c-0.9,0.3-1.8,0.6-2.7,0.9c0.5-0.8,0.9-1.7,1.5-2.4
		c1-1.2,2.3-2.3,3.3-3.5c0.3-0.3,0.2-1,0.3-1.5c-0.5,0-1.1-0.1-1.6-0.1c-0.5,0-1,0-1.6,0c0.2-0.5,0.2-1.2,0.6-1.6
		c2.1-2.4,4.2-4.8,6.3-7.2c0.2-0.3,0.3-0.7,0.5-1c-0.4,0-0.8,0-1.1,0.1c-1.1,0.1-2.2,0.2-3.3,0.4c0.6-1,1.3-1.9,1.8-2.9
		c2.1-4.2,4.2-8.3,6.3-12.5c0.7-1.3,1.1-2.8,1.7-4.1c0.8,1.3,2,2.5,2.5,3.8c0.8,2.2,0.9,4.7,1.9,6.8c1.7,3.3,4.1,6.2,6.2,9.3
		c0.3,0.5,0.7,1.1,0.8,1.7c0.1,0.5-0.2,1-0.3,1.5c-0.4-0.3-0.9-0.5-1.3-0.8c-0.4-0.2-0.9-0.5-1.3-0.7c0.2,0.5,0.2,1,0.5,1.4
		c0.9,1.7,1.7,3.4,2.7,5.1c0.8,1.3,1.9,2.3,2.9,3.5c0.6,0.7,1.4,1.3,1.8,2.1c0.3,0.7,0.2,1.5,0.3,2.3c-0.9-0.2-2-0.1-2.7-0.5
		c-1.4-0.9-2.5-2.1-3.8-3.1c-0.2-0.2-0.6-0.2-0.8-0.3c0.1,0.3,0,0.8,0.2,1c0.6,0.7,1.5,1.3,2,2.1c0.4,0.7,0.3,1.7,0.5,2.5
		c-0.6-0.2-1.3-0.5-1.9-0.7c-0.5-0.2-1-0.4-1.5-0.6c0.2,0.5,0.2,1.2,0.5,1.6c3.3,3.7,6.7,7.4,10.1,11c0.4,0.4,1.3,0.6,2,0.6
		c1.5,0.1,3,0,4.5,0.2c1.8,0.2,2.8-0.4,3.7-2c2.1-4.1,4.5-7.9,6.6-12c1.1-2.1,1.9-4.3,2.7-6.6c1.9-5.2,3.6-10.5,5.4-15.7
		c0.1-0.4,0.2-0.8,0.1-1.2c-0.1-1.1-0.2-2.1-0.4-3.2c-0.5,0.9-0.7,1.9-1.4,2.5c-2.1,1.9-4.4,3.7-6.7,5.4c-0.2,0.2-0.7,0.1-1.1,0.1
		c0-0.4-0.1-1,0.1-1.3c1-1.5,2.2-2.9,3.1-4.5c1.1-1.8,2.2-3.7,3.1-5.6c0.6-1.2,0.5-2.3,0.1-3.7c-0.4-1.8,0.5-4,1-5.9
		c0.5-1.8,1.3-3.4,1.9-5.1c0.1-0.4,0-0.9,0-1.3c-0.3,0.3-0.7,0.5-1,0.8c-2,2.1-4,4.3-6,6.4c-0.1,0.1-0.4,0.1-0.6,0.2
		c0-0.2-0.1-0.5,0-0.7c0.7-1.3,1.4-2.6,2.2-3.9c1.8-3.2,4.1-6.3,5.5-9.7c1.6-4,2.5-8.2,3.8-12.3c0.2-0.5,0.7-1,1-1.5
		c0.3,0.5,0.8,1,1,1.5c0.4,1,0.7,2.1,1,3.1C193.9,351.2,194.1,350.1,194.3,348.8z M171.5,435.2c1.9-0.1,3.8-0.1,5.7-0.3
		c0.8-0.1,1.6-0.4,2.4-0.6c-0.5-0.6-1-1.3-1.6-1.8c-1.7-1.2-1.7-3.1,0-4.3c0.6-0.4,1.2-0.9,1.7-1.4c2.7-2.5,2.2-6.2,3.3-9.2
		c0.1-0.2-0.2-0.5-0.3-0.8c-0.2,0.2-0.6,0.3-0.7,0.5c-1.3,2.1-2.8,4.2-3.9,6.5c-1.3,2.5-4.2,4.2-4,7.4c0,0.3-0.3,0.9-0.6,1
		C171.7,432.7,171.7,434.1,171.5,435.2c-0.4,0.1-1-0.1-1.4,0.1c-0.7,0.4-1.6,1-1.6,1.6c0,0.6,0.9,1.2,1.4,1.8
		c0.5-0.6,1.1-1.2,1.5-1.9C171.6,436.4,171.5,435.8,171.5,435.2z M864.8,499.7c-0.1,0-0.2,0-0.3,0c0-0.8,0-1.6,0-2.4
		c0.1-3.8,2.1-5.6,6-5.6c1.2,0,2.3-0.1,3.5,0c1.3,0.1,2-0.4,2-1.7c0-1.5,0.8-2.1,2.4-2.4c3.9-0.6,6.9-0.4,10.1,2.9
		c2.9,3,3.3,6,3.5,9.6c0.1,1,0.8,2.6,1.5,2.8c1.9,0.4,2.9-0.8,2.9-2.6c0-1.5-0.1-3-0.2-4.5c-0.2-3.1,0.4-6.1,3-8
		c2.6-1.9,2.9-4.1,2.7-6.8c0-0.6,0.7-1.3,1.1-2c0.4-0.6,0.9-1.1,1.4-1.7c-0.7-0.5-1.4-1.4-2.2-1.5c-3.2-0.6-6.4-0.9-9.5-1.4
		c-3.8-0.6-7.5-1.6-11.3-2c-7.1-0.7-14.1-1.3-20.8-3.9c-0.8-0.3-1.7-0.4-2.6-0.6c-2.6-0.4-5.2-0.7-7.8-1.2c-2.2-0.5-4.3-1.4-6.5-1.9
		c-3.1-0.8-6.2-1.4-9.2-2c-1.2-0.3-2.5-0.5-3.8-0.8c0.4,1,0.9,2.1,1.1,3.1c0.1,0.6-0.1,1.3-0.2,2c-0.4-0.4-0.9-0.7-1.3-1.1
		c-0.3-0.3-0.7-0.6-1-0.9c-0.1,0.3-0.2,0.7-0.4,1c-2,2.3-0.9,4.3,0.6,6.3c0.6,0.9,1.3,2,1.2,3c-0.1,0.7-1.4,1.4-2.2,1.8
		c-1.8,0.9-1.8,1.1-0.2,2.5c1,0.9,2.5,2.2,2.4,3.2c-0.2,1.9,1,2.4,2.1,3.3c0.8,0.6,1.4,1.4,2.1,2.2c-0.8,0.3-1.6,0.6-2.3,1.1
		c-1.1,0.7-3.2,0.9-1.8,3c1.4,2,2.8,3.9,4.2,5.9c0.2,0.3,0.3,0.8,0.1,1c-1.4,1.5-0.1,1.8,1,2.2c1.4,0.5,3.3,3.4,2.6,4.5
		c-1.4,2.2,0.2,2.6,1.7,3.2c0.6,0.3,1.2,0.5,1.8,0.8c-0.7,0.4-1.4,1.1-2.1,1.3c-1,0.3-2.8,0-0.6,1.5c0,0-0.5,1.2-0.8,1.3
		c-1.4,0.2-1.5,0.5-0.3,1.2c0.6,0.4,1.4,0.9,1.5,1.5c0.3,1.1,0.5,3.3,0.2,3.3c-2.9,0.8-1.2,1.5-0.1,2.4c0.4,0.4,0.4,1.2,0.8,1.7
		c0.5,0.6,1.6,1.6,1.9,1.5c1.2-0.5,2.1-1.5,3.2-2.3c3.3-2.2,4.3-7.2,9.5-7c0.1,0,0.3-0.1,0.4-0.2c2.6-2.8,5-5.7,8.6-7.4
		c0.2-0.1,0.2-0.7,0.2-1C864.4,505.1,864.6,502.4,864.8,499.7z M51.1,490.8c0.7,0,1.3-0.1,2,0c1.5,0.1,2.3-0.4,2.3-2
		c0-1.1,0.4-2.3,0.7-3.4c0.6,1.1,1.2,2.3,1.8,3.4c0.2,0.3,0.4,0.6,0.6,0.9c0.3-0.3,0.8-0.7,0.7-1c-0.2-2.3-0.3-4.6-0.9-6.7
		c-0.3-0.9-2.1-2.4-2.4-2.2c-2.8,1.6-3.1,0.3-3.1-2c0-1.9-1.8-3.1-4.2-3.1c-2.4,0-2.3,1.6-2.2,3.1c0.1,3,0.3,6,0.4,9
		C47,491.3,46.3,490.7,51.1,490.8z M25.9,468.7c-0.7-8.1,0.8-16.5-2.4-24.4c-0.9-2.3-0.7-4.9-1.1-7.3c-0.1-0.5-0.8-1-1.1-1.4
		c-0.4,0.5-1.2,1-1.1,1.4c0.2,2.9,0.5,5.7,0.9,8.6c0.1,1.1,0.5,2.1,0.6,3.2c0.2,4.3,0.3,8.6,0.5,13c0,0.4,0.5,0.8,0.7,1.3
		c0.2-0.4,0.4-0.8,0.7-1.1c0.2-0.4,0.5-0.7,0.8-1c0.2,0.4,0.5,0.8,0.5,1.2c-0.1,0.9-0.3,1.8-0.4,2.8c-0.1,0.7-0.3,1.3-0.3,2
		c0.2,3.2,0.6,6.4,0.7,9.6c0,0.7-1,1.5-1.8,2c-1.2,0.8-2.8,1.3-3.8,2.3c-0.4,0.4,0.2,2.2,0.8,2.7c0.7,0.6,2.1,0.6,3.2,0.5
		c0.5,0,0.9-0.8,1.3-1.3c0.2,0.6,0.3,1.3,0.6,1.9c0.3,0.6,0.7,1.1,1.1,1.6c0.2-0.6,0.8-1.2,0.7-1.7c-0.2-2.2-0.8-4.5-0.9-6.7
		C25.8,474.8,25.9,471.7,25.9,468.7z M810.5,457.4c-0.1-0.1-0.1-0.3-0.2-0.4c-1.2,0.2-2.5,0.3-3.6,0.7c-0.5,0.2-1.2,1-1.1,1.4
		c1.3,3.6,1.2,7.7,4.9,10.3c0,0-0.3,0.3-0.4,0.6c-0.2,0.3-0.5,0.8-0.4,1.1c0.5,1.3,1.2,2.5,1.8,3.8c0.9-0.8,1.8-1.7,2.7-2.5
		c0.1-0.1,0.3-0.2,0.4-0.3c0.4-1.2,1.2-3.3,1.1-3.3c-2.8-1.1,0.7-2.5-0.2-3.6c0-0.1-0.1-0.1-0.2-0.1c-0.4-0.3-0.8-0.6-1.2-1
		c0.8-0.3,1.6-0.6,2.4-1c0.6-0.2,1.5-0.4,1.7-0.8c0.4-1.3,0.5-2.7,0.6-4c-1.3,0.6-2.6,1.2-3.9,1.8c-0.1,0-0.1,0.1-0.2,0.2
		c-0.6,0.2-1.2,0.4-1.8,0.7c0.3-0.6,0.6-1.1,0.9-1.7c0.1-0.1,0.3-0.2,0.3-0.3c0.1-0.7,0.2-1.4,0.3-2.1c-0.7,0-1.5-0.1-2.2,0.1
		C811.5,456.7,811,457.1,810.5,457.4z M809.3,480.9c-0.1,0.2-0.2,0.4-0.4,0.6c-0.7-0.3-1.5-0.5-2.1-0.9c-0.1-0.1,0.1-1.2,0.4-1.3
		c2.3-1,1.6-2.7,1.3-4.3c-0.3-1.2-0.8-2.4-1.3-3.5c-0.5-1-1.2-1.9-1.8-2.8c-0.3,1-0.6,2-0.9,3c0,0.1,0,0.2,0,0.2
		c0.1,2.3,0.5,4.5,0.4,6.8c-0.1,2-0.7,4-0.8,5.9c0,0.5,0.9,1.2,1.4,1.7c0.2,0.2,0.7,0.1,1,0c0.8-0.4,1.9-0.6,2.4-1.3
		c0.8-0.9,1.3-2,1.7-3.1C810.7,481.8,809.8,481.2,809.3,480.9z M412,555.9C412,555.9,412,555.9,412,555.9c0-1.3,0.1-2.6-0.1-3.8
		c-0.1-0.6-0.7-1.2-1.1-1.8c-0.5,0.5-1.2,0.9-1.4,1.4c-0.7,2.7-1.2,5.5-1.8,8.3c-0.5,2.2-0.1,2.5,2.1,2c1.6-0.3,2.4-1.1,2.3-2.8
		C411.9,558.2,412,557,412,555.9z M1080.4,301.3c-0.1-1.6-0.3-3.2-0.3-4.8c0-3.2,0.2-6.4,0.2-9.7c0-0.5-0.4-1-0.6-1.5
		c-0.4,0.3-0.9,0.6-1.1,1c-0.8,2.4-1.5,4.9-2.1,7.3c-0.1,0.4,0,1.1,0.3,1.3C1079.2,296.5,1079.9,298.7,1080.4,301.3z M167.5,449.7
		c2.9,0.5,4.7-0.1,5.4-2.4c0.1-0.3,0-0.7-0.1-1.1c-0.4,0-0.8,0-1.1,0.1c-1.3,0.2-2.5,0.4-3.7,0.8c-1.3,0.4-3.7-1.2-3.6,1.5
		C164.5,450.9,166.9,449.4,167.5,449.7z M1081.8,312.7c-0.4-1.2-0.8-2.8-1.4-4.4c-0.1-0.4-0.5-0.7-0.7-1.1c-0.2,0.4-0.5,0.8-0.6,1.2
		c0,3.2,0,6.4,0.1,9.7c0,0.3,0.3,0.8,0.7,0.9c0.2,0.1,0.9-0.1,1-0.3C1081.2,317,1081.4,315.1,1081.8,312.7z M691,565.8
		c-0.7,0.2-1.9,0.2-1.9,0.4c-0.2,1.2,2.8,3.1,3.9,2.5c1-0.5,1.8-1.3,2.6-2c0.1-0.1-0.1-0.6-0.1-0.6C694,566,692.5,565.9,691,565.8z
		 M28.8,324.2C28.9,324.2,28.9,324.2,28.8,324.2c0-0.7,0-1.4-0.1-2.1c-0.1-0.5-0.4-0.9-0.6-1.3c-0.2,0.5-0.5,0.9-0.6,1.4
		c0,2.7,0,5.5,0.1,8.2c0,0.3,0.4,0.6,0.7,0.8c0.2-0.3,0.5-0.6,0.5-0.9C28.9,328.3,28.8,326.2,28.8,324.2z M242.9,520.7
		c-0.4,0.3-0.9,0.5-1.3,0.8c0.3,0.3,0.6,0.7,1,1c0.4,0.3,0.9,0.6,1.3,0.6c1,0,1.9-0.2,2.9-0.4c-0.6-0.4-1.3-0.9-1.9-1.3
		C244.3,521.1,243.6,521,242.9,520.7z M75.4,494.5c-0.7,0.5-1.2,0.9-1.6,1.3c0.4,0.4,1,1.1,1.3,1c0.7-0.2,1.3-0.8,1.9-1.2
		C76.5,495.3,76.1,495,75.4,494.5z M1160.9,318.8c0.7-0.2,1.2-0.4,1.8-0.6c-0.5-0.3-1.1-0.6-1.6-0.8c-0.5-0.2-1.1-0.3-1.6-0.5
		c-0.5-0.2-1-0.3-1.5-0.5c0.2,0.6,0.3,1.3,0.8,1.6C1159.3,318.5,1160.2,318.6,1160.9,318.8z"/>
</defs>
<use xlink:href="#XMLID_3_"  style="overflow:visible;fill:#101F26;"/>
<clipPath id="XMLID_20_">
	<use xlink:href="#XMLID_3_"  style="overflow:visible;"/>
</clipPath>
</svg>
